Besley-Condensed Black.ufo
<glyph name="parenright" format="2">
	<advance width="1009" height="0"/>
	<unicode hex="0029"/>
	<outline>
		<contour>
			<point x="15" y="1477" type="curve" smooth="yes"/>
			<point x="60" y="1562" type="line" smooth="yes"/>
			<point x="75" y="1593"/>
			<point x="86" y="1599"/>
			<point x="123" y="1589" type="curve" smooth="yes"/>
			<point x="549" y="1476"/>
			<point x="899" y="1119"/>
			<point x="899" y="610" type="curve" smooth="yes"/>
			<point x="899" y="99"/>
			<point x="546" y="-221"/>
			<point x="117" y="-331" type="curve" smooth="yes"/>
			<point x="87" y="-339"/>
			<point x="76" y="-338"/>
			<point x="63" y="-312" type="curve" smooth="yes"/>
			<point x="19" y="-214" type="line" smooth="yes"/>
			<point x="4" y="-184"/>
			<point x="-1" y="-181"/>
			<point x="31" y="-168" type="curve" smooth="yes"/>
			<point x="297" y="-62"/>
			<point x="429" y="164"/>
			<point x="429" y="610" type="curve" smooth="yes"/>
			<point x="429" y="1056"/>
			<point x="298" y="1320"/>
			<point x="31" y="1428" type="curve" smooth="yes"/>
			<point x="-2" y="1441"/>
			<point x="0" y="1446"/>
		</contour>
	</outline>
</glyph>
<glyph name="one" format="2">
	<advance width="920" height="2310"/>
	<unicode hex="0031"/>
	<outline>
		<contour>
			<point x="70" y="65" type="curve" smooth="yes"/>
			<point x="70" y="166" type="line" smooth="yes"/>
			<point x="70" y="208"/>
			<point x="80" y="210"/>
			<point x="123" y="210" type="curve" smooth="yes"/>
			<point x="215" y="210" type="line" smooth="yes"/>
			<point x="264" y="210"/>
			<point x="270" y="217"/>
			<point x="270" y="264" type="curve" smooth="yes"/>
			<point x="270" y="1023" type="line" smooth="yes"/>
			<point x="270" y="1063"/>
			<point x="261" y="1070"/>
			<point x="223" y="1070" type="curve" smooth="yes"/>
			<point x="149" y="1070" type="line" smooth="yes"/>
			<point x="116" y="1070"/>
			<point x="104" y="1073"/>
			<point x="104" y="1109" type="curve" smooth="yes"/>
			<point x="104" y="1229" type="line" smooth="yes"/>
			<point x="104" y="1283"/>
			<point x="136.043" y="1278.764"/>
			<point x="183" y="1281" type="curve" smooth="yes"/>
			<point x="267" y="1285"/>
			<point x="356" y="1310"/>
			<point x="449" y="1485" type="curve" smooth="yes"/>
			<point x="466" y="1517"/>
			<point x="471" y="1530"/>
			<point x="523" y="1530" type="curve" smooth="yes"/>
			<point x="609" y="1530" type="line" smooth="yes"/>
			<point x="652" y="1530"/>
			<point x="660" y="1525"/>
			<point x="660" y="1484" type="curve" smooth="yes"/>
			<point x="660" y="266" type="line" smooth="yes"/>
			<point x="660" y="212"/>
			<point x="670" y="210"/>
			<point x="725" y="210" type="curve" smooth="yes"/>
			<point x="797" y="210" type="line" smooth="yes"/>
			<point x="830" y="210"/>
			<point x="850" y="206"/>
			<point x="850" y="170" type="curve" smooth="yes"/>
			<point x="850" y="59" type="line" smooth="yes"/>
			<point x="850" y="10"/>
			<point x="848" y="0"/>
			<point x="799" y="0" type="curve" smooth="yes"/>
			<point x="135" y="0" type="line" smooth="yes"/>
			<point x="77" y="0"/>
			<point x="70" y="5"/>
		</contour>
	</outline>
</glyph>
<glyph name="seven" format="2">
	<advance width="1027" height="2310"/>
	<unicode hex="0037"/>
	<outline>
		<contour>
			<point x="0.463" y="982" type="curve" smooth="yes"/>
			<point x="10.463" y="1347"/>
			<point x="119.463" y="1520"/>
			<point x="320.463" y="1520" type="curve" smooth="yes"/>
			<point x="514.463" y="1520"/>
			<point x="534.463" y="1400"/>
			<point x="700.463" y="1400" type="curve" smooth="yes"/>
			<point x="768.463" y="1400"/>
			<point x="801.463" y="1427"/>
			<point x="821.463" y="1471" type="curve" smooth="yes"/>
			<point x="829.463" y="1489"/>
			<point x="832.463" y="1500"/>
			<point x="860.463" y="1500" type="curve" smooth="yes"/>
			<point x="989.463" y="1500" type="line" smooth="yes"/>
			<point x="1024.463" y="1500"/>
			<point x="1030.463" y="1493"/>
			<point x="1025.463" y="1460" type="curve" smooth="yes"/>
			<point x="1002.463" y="1305"/>
			<point x="841.463" y="993"/>
			<point x="696.463" y="756" type="curve" smooth="yes"/>
			<point x="592.696" y="586.396"/>
			<point x="548.463" y="532"/>
			<point x="548.463" y="464" type="curve" smooth="yes"/>
			<point x="548.463" y="368"/>
			<point x="724.463" y="368"/>
			<point x="724.463" y="216" type="curve" smooth="yes"/>
			<point x="724.463" y="102"/>
			<point x="654.463" y="-20"/>
			<point x="496.463" y="-20" type="curve" smooth="yes"/>
			<point x="348.463" y="-20"/>
			<point x="234.463" y="74"/>
			<point x="234.463" y="252" type="curve" smooth="yes"/>
			<point x="234.463" y="430"/>
			<point x="331.146" y="540.104"/>
			<point x="458.463" y="762" type="curve" smooth="yes"/>
			<point x="528.463" y="884"/>
			<point x="568.463" y="965"/>
			<point x="664.463" y="1100" type="curve" smooth="yes"/>
			<point x="693.463" y="1141"/>
			<point x="718.463" y="1176"/>
			<point x="708.463" y="1186" type="curve" smooth="yes"/>
			<point x="693.463" y="1201"/>
			<point x="663.061" y="1165.315"/>
			<point x="640.463" y="1136" type="curve" smooth="yes"/>
			<point x="603.463" y="1088"/>
			<point x="564.463" y="1076"/>
			<point x="510.463" y="1076" type="curve" smooth="yes"/>
			<point x="420.463" y="1076"/>
			<point x="420.463" y="1134"/>
			<point x="338.463" y="1134" type="curve" smooth="yes"/>
			<point x="271.463" y="1134"/>
			<point x="186.463" y="1082"/>
			<point x="176.463" y="980" type="curve" smooth="yes"/>
			<point x="174.463" y="957"/>
			<point x="181.463" y="946"/>
			<point x="153.463" y="946" type="curve" smooth="yes"/>
			<point x="37.463" y="946" type="line" smooth="yes"/>
			<point x="7.463" y="946"/>
			<point x="-0.537" y="954"/>
		</contour>
	</outline>
</glyph>
<glyph name="equal" format="2">
	<advance width="1120" height="0"/>
	<unicode hex="003D"/>
	<outline>
		<contour>
			<point x="164" y="690" type="curve" smooth="yes"/>
			<point x="956" y="690" type="line" smooth="yes"/>
			<point x="996" y="690"/>
			<point x="1000" y="683"/>
			<point x="1000" y="651" type="curve" smooth="yes"/>
			<point x="1000" y="501" type="line" smooth="yes"/>
			<point x="1000" y="466"/>
			<point x="999" y="460"/>
			<point x="954" y="460" type="curve" smooth="yes"/>
			<point x="175" y="460" type="line" smooth="yes"/>
			<point x="128" y="460"/>
			<point x="120" y="465"/>
			<point x="120" y="500" type="curve" smooth="yes"/>
			<point x="120" y="649" type="line" smooth="yes"/>
			<point x="120" y="681"/>
			<point x="123" y="690"/>
		</contour>
		<contour>
			<point x="164" y="1090" type="curve" smooth="yes"/>
			<point x="956" y="1090" type="line" smooth="yes"/>
			<point x="996" y="1090"/>
			<point x="1000" y="1083"/>
			<point x="1000" y="1051" type="curve" smooth="yes"/>
			<point x="1000" y="901" type="line" smooth="yes"/>
			<point x="1000" y="866"/>
			<point x="999" y="860"/>
			<point x="954" y="860" type="curve" smooth="yes"/>
			<point x="175" y="860" type="line" smooth="yes"/>
			<point x="128" y="860"/>
			<point x="120" y="865"/>
			<point x="120" y="900" type="curve" smooth="yes"/>
			<point x="120" y="1049" type="line" smooth="yes"/>
			<point x="120" y="1081"/>
			<point x="123" y="1090"/>
		</contour>
	</outline>
</glyph>
<glyph name="B" format="2">
	<advance width="1210" height="0"/>
	<unicode hex="0042"/>
	<anchor x="654" y="1500" name="Anchor-0"/>
	<anchor x="686" y="0" name="Anchor-1"/>
	<anchor x="686" y="0" name="Anchor-2"/>
	<outline>
		<contour>
			<point x="630" y="270" type="line" smooth="yes"/>
			<point x="692" y="270"/>
			<point x="720" y="352"/>
			<point x="720" y="470" type="curve" smooth="yes"/>
			<point x="720" y="588"/>
			<point x="672" y="640"/>
			<point x="630" y="640" type="curve" smooth="yes"/>
			<point x="601" y="640" type="line" smooth="yes"/>
			<point x="575" y="640"/>
			<point x="560" y="624"/>
			<point x="560" y="596" type="curve" smooth="yes"/>
			<point x="560" y="326" type="line" smooth="yes"/>
			<point x="560" y="285"/>
			<point x="566" y="270"/>
			<point x="605" y="270" type="curve" smooth="yes"/>
		</contour>
		<contour>
			<point x="587" y="910" type="curve" smooth="yes"/>
			<point x="600" y="910" type="line" smooth="yes"/>
			<point x="652" y="910"/>
			<point x="670" y="962"/>
			<point x="670" y="1080" type="curve" smooth="yes"/>
			<point x="670" y="1198"/>
			<point x="642" y="1230"/>
			<point x="600" y="1230" type="curve" smooth="yes"/>
			<point x="591" y="1230" type="line" smooth="yes"/>
			<point x="560" y="1230"/>
			<point x="560" y="1229"/>
			<point x="560" y="1198" type="curve" smooth="yes"/>
			<point x="560" y="969" type="line" smooth="yes"/>
			<point x="560" y="919"/>
			<point x="563" y="910"/>
		</contour>
		<contour>
			<point x="730" y="0" type="curve" smooth="yes"/>
			<point x="57" y="0" type="line" smooth="yes"/>
			<point x="11" y="0"/>
			<point x="10" y="19"/>
			<point x="10" y="66" type="curve" smooth="yes"/>
			<point x="10" y="240" type="line" smooth="yes"/>
			<point x="10" y="266"/>
			<point x="21" y="270"/>
			<point x="45" y="270" type="curve" smooth="yes"/>
			<point x="83" y="270" type="line" smooth="yes"/>
			<point x="127" y="270"/>
			<point x="130" y="287"/>
			<point x="130" y="332" type="curve" smooth="yes"/>
			<point x="130" y="1178" type="line" smooth="yes"/>
			<point x="130" y="1214"/>
			<point x="124" y="1230"/>
			<point x="89" y="1230" type="curve" smooth="yes"/>
			<point x="53" y="1230" type="line" smooth="yes"/>
			<point x="16" y="1230"/>
			<point x="10" y="1236"/>
			<point x="10" y="1272" type="curve" smooth="yes"/>
			<point x="10" y="1448" type="line" smooth="yes"/>
			<point x="10" y="1488"/>
			<point x="19" y="1500"/>
			<point x="57" y="1500" type="curve" smooth="yes"/>
			<point x="690" y="1500" type="line" smooth="yes"/>
			<point x="1002" y="1500"/>
			<point x="1150" y="1380"/>
			<point x="1150" y="1150" type="curve" smooth="yes"/>
			<point x="1150" y="945"/>
			<point x="1034" y="859"/>
			<point x="905" y="805" type="curve" smooth="yes"/>
			<point x="868.508" y="789.725"/>
			<point x="865.719" y="772.11"/>
			<point x="911" y="760" type="curve" smooth="yes"/>
			<point x="1083" y="714"/>
			<point x="1210" y="623"/>
			<point x="1210" y="390" type="curve" smooth="yes"/>
			<point x="1210" y="120"/>
			<point x="1062" y="0"/>
		</contour>
	</outline>
</glyph>
<glyph name="E" format="2">
	<advance width="1170" height="0"/>
	<unicode hex="0045"/>
	<anchor x="703.835" y="1500" name="Anchor-0"/>
	<anchor x="675.835" y="0" name="Anchor-1"/>
	<anchor x="675.835" y="0" name="Anchor-2"/>
	<anchor x="985.835" y="50" name="Anchor-3"/>
	<outline>
		<contour>
			<point x="85.835" y="1230" type="curve" smooth="yes"/>
			<point x="55.835" y="1230" type="line" smooth="yes"/>
			<point x="13.835" y="1230"/>
			<point x="9.835" y="1238"/>
			<point x="9.835" y="1278" type="curve" smooth="yes"/>
			<point x="9.835" y="1454" type="line" smooth="yes"/>
			<point x="9.835" y="1499"/>
			<point x="23.835" y="1500"/>
			<point x="65.835" y="1500" type="curve" smooth="yes"/>
			<point x="1097.835" y="1500" type="line" smooth="yes"/>
			<point x="1136.835" y="1500"/>
			<point x="1139.835" y="1489"/>
			<point x="1139.835" y="1452" type="curve" smooth="yes"/>
			<point x="1139.835" y="948" type="line" smooth="yes"/>
			<point x="1139.835" y="910"/>
			<point x="1139.835" y="910"/>
			<point x="1101.835" y="910" type="curve" smooth="yes"/>
			<point x="941.835" y="910" type="line" smooth="yes"/>
			<point x="911.835" y="910"/>
			<point x="909.835" y="924"/>
			<point x="908.835" y="950" type="curve" smooth="yes"/>
			<point x="902.835" y="1154"/>
			<point x="869.835" y="1230"/>
			<point x="699.835" y="1230" type="curve" smooth="yes"/>
			<point x="657.835" y="1230" type="line" smooth="yes"/>
			<point x="618.835" y="1230"/>
			<point x="599.835" y="1226"/>
			<point x="599.835" y="1183" type="curve" smooth="yes"/>
			<point x="599.835" y="918" type="line" smooth="yes"/>
			<point x="599.835" y="870"/>
			<point x="605.835" y="860"/>
			<point x="617.835" y="860" type="curve" smooth="yes"/>
			<point x="618.835" y="860" type="line" smooth="yes"/>
			<point x="641.835" y="860"/>
			<point x="659.835" y="945"/>
			<point x="665.835" y="1038" type="curve" smooth="yes"/>
			<point x="667.856" y="1069.336"/>
			<point x="672.835" y="1086"/>
			<point x="700.835" y="1086" type="curve" smooth="yes"/>
			<point x="811.835" y="1086" type="line" smooth="yes"/>
			<point x="854.835" y="1086"/>
			<point x="859.835" y="1080"/>
			<point x="859.835" y="1038" type="curve" smooth="yes"/>
			<point x="859.835" y="458" type="line" smooth="yes"/>
			<point x="859.835" y="423"/>
			<point x="854.835" y="416"/>
			<point x="817.835" y="416" type="curve" smooth="yes"/>
			<point x="709.835" y="416" type="line" smooth="yes"/>
			<point x="668.835" y="416"/>
			<point x="667.042" y="434.531"/>
			<point x="664.835" y="468" type="curve" smooth="yes"/>
			<point x="658.835" y="559"/>
			<point x="648.835" y="650"/>
			<point x="621.835" y="650" type="curve" smooth="yes"/>
			<point x="620.835" y="650" type="line" smooth="yes"/>
			<point x="603.835" y="650"/>
			<point x="599.835" y="633"/>
			<point x="599.835" y="592" type="curve" smooth="yes"/>
			<point x="599.835" y="310" type="line" smooth="yes"/>
			<point x="599.835" y="263"/>
			<point x="608.835" y="270"/>
			<point x="653.835" y="270" type="curve" smooth="yes"/>
			<point x="679.835" y="270" type="line" smooth="yes"/>
			<point x="883.835" y="270"/>
			<point x="921.835" y="361"/>
			<point x="928.835" y="592" type="curve" smooth="yes"/>
			<point x="930.835" y="643"/>
			<point x="924.835" y="650"/>
			<point x="979.835" y="650" type="curve" smooth="yes"/>
			<point x="1119.835" y="650" type="line" smooth="yes"/>
			<point x="1164.835" y="650"/>
			<point x="1159.835" y="644"/>
			<point x="1159.835" y="600" type="curve" smooth="yes"/>
			<point x="1159.835" y="40" type="line" smooth="yes"/>
			<point x="1159.835" y="-2"/>
			<point x="1157.835" y="0"/>
			<point x="1115.835" y="0" type="curve" smooth="yes"/>
			<point x="59.835" y="0" type="line" smooth="yes"/>
			<point x="19.835" y="0"/>
			<point x="9.835" y="-7"/>
			<point x="9.835" y="36" type="curve" smooth="yes"/>
			<point x="9.835" y="238" type="line" smooth="yes"/>
			<point x="9.835" y="272"/>
			<point x="12.835" y="270"/>
			<point x="45.835" y="270" type="curve" smooth="yes"/>
			<point x="85.835" y="270" type="line" smooth="yes"/>
			<point x="128.835" y="270"/>
			<point x="129.835" y="269"/>
			<point x="129.835" y="312" type="curve" smooth="yes"/>
			<point x="129.835" y="1192" type="line" smooth="yes"/>
			<point x="129.835" y="1227"/>
			<point x="121.835" y="1230"/>
		</contour>
	</outline>
</glyph>
<glyph name="F" format="2">
	<advance width="1150" height="0"/>
	<unicode hex="0046"/>
	<anchor x="684" y="1500" name="Anchor-0"/>
	<anchor x="376" y="0" name="Anchor-1"/>
	<anchor x="376" y="0" name="Anchor-2"/>
	<outline>
		<contour>
			<point x="94" y="1230" type="curve" smooth="yes"/>
			<point x="35" y="1230" type="line" smooth="yes"/>
			<point x="12" y="1230"/>
			<point x="10" y="1238"/>
			<point x="10" y="1262" type="curve" smooth="yes"/>
			<point x="10" y="1474" type="line" smooth="yes"/>
			<point x="10" y="1499"/>
			<point x="19" y="1500"/>
			<point x="44" y="1500" type="curve" smooth="yes"/>
			<point x="1104" y="1500" type="line" smooth="yes"/>
			<point x="1136" y="1500"/>
			<point x="1140" y="1493"/>
			<point x="1140" y="1460" type="curve" smooth="yes"/>
			<point x="1140" y="921" type="line" smooth="yes"/>
			<point x="1140" y="893"/>
			<point x="1133" y="890"/>
			<point x="1104" y="890" type="curve" smooth="yes"/>
			<point x="956" y="890" type="line" smooth="yes"/>
			<point x="920" y="890"/>
			<point x="911" y="890"/>
			<point x="910" y="925" type="curve" smooth="yes"/>
			<point x="905" y="1135"/>
			<point x="902" y="1230"/>
			<point x="680" y="1230" type="curve" smooth="yes"/>
			<point x="642" y="1230" type="line" smooth="yes"/>
			<point x="610" y="1230"/>
			<point x="600" y="1229"/>
			<point x="600" y="1197" type="curve" smooth="yes"/>
			<point x="600" y="851" type="line" smooth="yes"/>
			<point x="600" y="841"/>
			<point x="603" y="837"/>
			<point x="609" y="837" type="curve" smooth="yes"/>
			<point x="611" y="837" type="line" smooth="yes"/>
			<point x="654" y="837"/>
			<point x="661" y="929"/>
			<point x="669" y="1049" type="curve" smooth="yes"/>
			<point x="670" y="1064"/>
			<point x="678" y="1066"/>
			<point x="694" y="1066" type="curve" smooth="yes"/>
			<point x="837" y="1066" type="line" smooth="yes"/>
			<point x="858" y="1066"/>
			<point x="860" y="1058"/>
			<point x="860" y="1036" type="curve" smooth="yes"/>
			<point x="860" y="406" type="line" smooth="yes"/>
			<point x="860" y="382"/>
			<point x="854" y="376"/>
			<point x="828" y="376" type="curve" smooth="yes"/>
			<point x="708" y="376" type="line" smooth="yes"/>
			<point x="679" y="376"/>
			<point x="672" y="377"/>
			<point x="669" y="403" type="curve" smooth="yes"/>
			<point x="657" y="521"/>
			<point x="646" y="615"/>
			<point x="614" y="615" type="curve" smooth="yes"/>
			<point x="613" y="615" type="line" smooth="yes"/>
			<point x="601" y="615"/>
			<point x="600" y="607"/>
			<point x="600" y="603" type="curve" smooth="yes"/>
			<point x="600" y="317" type="line" smooth="yes"/>
			<point x="600" y="277"/>
			<point x="605" y="270"/>
			<point x="647" y="270" type="curve" smooth="yes"/>
			<point x="723" y="270" type="line" smooth="yes"/>
			<point x="760" y="270"/>
			<point x="760" y="270"/>
			<point x="760" y="233" type="curve" smooth="yes"/>
			<point x="760" y="47" type="line" smooth="yes"/>
			<point x="760" y="5"/>
			<point x="754" y="0"/>
			<point x="713" y="0" type="curve" smooth="yes"/>
			<point x="51" y="0" type="line" smooth="yes"/>
			<point x="18" y="0"/>
			<point x="10" y="3"/>
			<point x="10" y="35" type="curve" smooth="yes"/>
			<point x="10" y="241" type="line" smooth="yes"/>
			<point x="10" y="269"/>
			<point x="19" y="270"/>
			<point x="48" y="270" type="curve" smooth="yes"/>
			<point x="87" y="270" type="line" smooth="yes"/>
			<point x="127" y="270"/>
			<point x="130" y="277"/>
			<point x="130" y="318" type="curve" smooth="yes"/>
			<point x="130" y="1195" type="line" smooth="yes"/>
			<point x="130" y="1225"/>
			<point x="122" y="1230"/>
		</contour>
	</outline>
</glyph>
<glyph name="J" format="2">
	<advance width="1112" height="0"/>
	<unicode hex="004A"/>
	<anchor x="636" y="1500" name="Anchor-0"/>
	<anchor x="448" y="0" name="Anchor-1"/>
	<anchor x="448" y="0" name="Anchor-2"/>
	<outline>
		<contour>
			<point x="0" y="390" type="curve" smooth="yes"/>
			<point x="0" y="594"/>
			<point x="88" y="740"/>
			<point x="268" y="740" type="curve" smooth="yes"/>
			<point x="422" y="740"/>
			<point x="496" y="648"/>
			<point x="496" y="522" type="curve" smooth="yes"/>
			<point x="496" y="342"/>
			<point x="390" y="304"/>
			<point x="390" y="248" type="curve" smooth="yes"/>
			<point x="390" y="214"/>
			<point x="418" y="190"/>
			<point x="452" y="190" type="curve" smooth="yes"/>
			<point x="504" y="190"/>
			<point x="522" y="260"/>
			<point x="522" y="480" type="curve" smooth="yes"/>
			<point x="522" y="1172" type="line" smooth="yes"/>
			<point x="522" y="1228"/>
			<point x="509" y="1230"/>
			<point x="453" y="1230" type="curve" smooth="yes"/>
			<point x="360" y="1230" type="line" smooth="yes"/>
			<point x="316" y="1230"/>
			<point x="302" y="1231"/>
			<point x="302" y="1278" type="curve" smooth="yes"/>
			<point x="302" y="1442" type="line" smooth="yes"/>
			<point x="302" y="1491"/>
			<point x="303" y="1500"/>
			<point x="352" y="1500" type="curve" smooth="yes"/>
			<point x="1062" y="1500" type="line" smooth="yes"/>
			<point x="1104" y="1500"/>
			<point x="1112" y="1493"/>
			<point x="1112" y="1449" type="curve" smooth="yes"/>
			<point x="1112" y="1272" type="line" smooth="yes"/>
			<point x="1112" y="1231"/>
			<point x="1100" y="1230"/>
			<point x="1059" y="1230" type="curve" smooth="yes"/>
			<point x="1010" y="1230" type="line" smooth="yes"/>
			<point x="975" y="1230"/>
			<point x="972" y="1217"/>
			<point x="972" y="1181" type="curve" smooth="yes"/>
			<point x="972" y="540" type="line" smooth="yes"/>
			<point x="972" y="160"/>
			<point x="794" y="-40"/>
			<point x="432" y="-40" type="curve" smooth="yes"/>
			<point x="118" y="-40"/>
			<point x="0" y="170"/>
		</contour>
	</outline>
</glyph>
<glyph name="M" format="2">
	<advance width="1830" height="0"/>
	<unicode hex="004D"/>
	<anchor x="946" y="1500" name="Anchor-0"/>
	<anchor x="845" y="0" name="Anchor-1"/>
	<anchor x="845" y="0" name="Anchor-2"/>
	<outline>
		<contour>
			<point x="142" y="1230" type="curve" smooth="yes"/>
			<point x="128" y="1230" type="line" smooth="yes"/>
			<point x="81" y="1230"/>
			<point x="80" y="1229"/>
			<point x="80" y="1277" type="curve" smooth="yes"/>
			<point x="80" y="1469" type="line" smooth="yes"/>
			<point x="80" y="1510"/>
			<point x="98" y="1500"/>
			<point x="136" y="1500" type="curve" smooth="yes"/>
			<point x="766" y="1500" type="line" smooth="yes"/>
			<point x="845" y="1500"/>
			<point x="836" y="1473"/>
			<point x="855" y="1417" type="curve" smooth="yes"/>
			<point x="916" y="989" type="line" smooth="yes"/>
			<point x="920.466" y="923.866"/>
			<point x="928" y="853"/>
			<point x="948" y="853" type="curve" smooth="yes"/>
			<point x="970" y="853"/>
			<point x="982.277" y="886.606"/>
			<point x="996" y="957" type="curve" smooth="yes"/>
			<point x="1087" y="1459" type="line" smooth="yes"/>
			<point x="1101" y="1496"/>
			<point x="1102" y="1500"/>
			<point x="1154" y="1500" type="curve" smooth="yes"/>
			<point x="1700" y="1500" type="line" smooth="yes"/>
			<point x="1751" y="1500"/>
			<point x="1770" y="1512"/>
			<point x="1770" y="1457" type="curve" smooth="yes"/>
			<point x="1770" y="1281" type="line" smooth="yes"/>
			<point x="1770" y="1232"/>
			<point x="1772" y="1230"/>
			<point x="1722" y="1230" type="curve" smooth="yes"/>
			<point x="1700" y="1230" type="line" smooth="yes"/>
			<point x="1657" y="1230"/>
			<point x="1659" y="1228"/>
			<point x="1660" y="1187" type="curve" smooth="yes"/>
			<point x="1690" y="311" type="line" smooth="yes"/>
			<point x="1691" y="276"/>
			<point x="1686" y="270"/>
			<point x="1724" y="270" type="curve" smooth="yes"/>
			<point x="1784" y="270" type="line" smooth="yes"/>
			<point x="1817" y="270"/>
			<point x="1820" y="263"/>
			<point x="1820" y="229" type="curve" smooth="yes"/>
			<point x="1820" y="55" type="line" smooth="yes"/>
			<point x="1820" y="12"/>
			<point x="1818" y="0"/>
			<point x="1772" y="0" type="curve" smooth="yes"/>
			<point x="1196" y="0" type="line" smooth="yes"/>
			<point x="1152" y="0"/>
			<point x="1150" y="8"/>
			<point x="1150" y="53" type="curve" smooth="yes"/>
			<point x="1150" y="223" type="line" smooth="yes"/>
			<point x="1150" y="268"/>
			<point x="1162" y="270"/>
			<point x="1204" y="270" type="curve" smooth="yes"/>
			<point x="1210" y="270" type="line" smooth="yes"/>
			<point x="1252" y="270"/>
			<point x="1263" y="280"/>
			<point x="1262" y="322" type="curve" smooth="yes"/>
			<point x="1250" y="683" type="line" smooth="yes"/>
			<point x="1246" y="822"/>
			<point x="1277" y="957"/>
			<point x="1240" y="957" type="curve" smooth="yes"/>
			<point x="1215" y="957"/>
			<point x="1222.155" y="925.521"/>
			<point x="1204" y="833" type="curve" smooth="yes"/>
			<point x="1027" y="21" type="line" smooth="yes"/>
			<point x="1012" y="-22"/>
			<point x="1005" y="-30"/>
			<point x="946" y="-30" type="curve" smooth="yes"/>
			<point x="706" y="-30" type="line" smooth="yes"/>
			<point x="647" y="-30"/>
			<point x="639" y="-22"/>
			<point x="624" y="21" type="curve" smooth="yes"/>
			<point x="507" y="887" type="line" smooth="yes"/>
			<point x="491.283" y="963.897"/>
			<point x="492" y="1097"/>
			<point x="466" y="1097" type="curve" smooth="yes"/>
			<point x="449" y="1097"/>
			<point x="450" y="1063"/>
			<point x="446" y="973" type="curve" smooth="yes"/>
			<point x="416" y="341" type="line" smooth="yes"/>
			<point x="414" y="293"/>
			<point x="409" y="270"/>
			<point x="464" y="270" type="curve" smooth="yes"/>
			<point x="496" y="270" type="line" smooth="yes"/>
			<point x="533" y="270"/>
			<point x="540" y="263"/>
			<point x="540" y="225" type="curve" smooth="yes"/>
			<point x="540" y="51" type="line" smooth="yes"/>
			<point x="540" y="2"/>
			<point x="528" y="0"/>
			<point x="482" y="0" type="curve" smooth="yes"/>
			<point x="62" y="0" type="line" smooth="yes"/>
			<point x="15" y="0"/>
			<point x="10" y="6"/>
			<point x="10" y="55" type="curve" smooth="yes"/>
			<point x="10" y="235" type="line" smooth="yes"/>
			<point x="10" y="263"/>
			<point x="13" y="270"/>
			<point x="40" y="270" type="curve" smooth="yes"/>
			<point x="98" y="270" type="line" smooth="yes"/>
			<point x="158" y="270"/>
			<point x="145" y="294"/>
			<point x="148" y="347" type="curve" smooth="yes"/>
			<point x="194" y="1195" type="line" smooth="yes"/>
			<point x="196" y="1238"/>
			<point x="184" y="1230"/>
		</contour>
	</outline>
</glyph>
<glyph name="P" format="2">
	<advance width="1230" height="0"/>
	<unicode hex="0050"/>
	<anchor x="606" y="1500" name="Anchor-0"/>
	<anchor x="322" y="0" name="Anchor-1"/>
	<anchor x="322" y="0" name="Anchor-2"/>
	<outline>
		<contour>
			<point x="74" y="1230" type="curve" smooth="yes"/>
			<point x="64" y="1230" type="line" smooth="yes"/>
			<point x="18" y="1230"/>
			<point x="10" y="1232"/>
			<point x="10" y="1278" type="curve" smooth="yes"/>
			<point x="10" y="1448" type="line" smooth="yes"/>
			<point x="10" y="1496"/>
			<point x="21" y="1500"/>
			<point x="66" y="1500" type="curve" smooth="yes"/>
			<point x="680" y="1500" type="line" smooth="yes"/>
			<point x="1042" y="1500"/>
			<point x="1220" y="1380"/>
			<point x="1220" y="1040" type="curve" smooth="yes"/>
			<point x="1220" y="700"/>
			<point x="1042" y="560"/>
			<point x="680" y="560" type="curve" smooth="yes"/>
			<point x="644" y="560" type="line" smooth="yes"/>
			<point x="601" y="560"/>
			<point x="600" y="551"/>
			<point x="600" y="508" type="curve" smooth="yes"/>
			<point x="600" y="318" type="line" smooth="yes"/>
			<point x="600" y="274"/>
			<point x="607" y="270"/>
			<point x="652" y="270" type="curve" smooth="yes"/>
			<point x="716" y="270" type="line" smooth="yes"/>
			<point x="758" y="270"/>
			<point x="760" y="262"/>
			<point x="760" y="220" type="curve" smooth="yes"/>
			<point x="760" y="56" type="line" smooth="yes"/>
			<point x="760" y="10"/>
			<point x="760" y="0"/>
			<point x="714" y="0" type="curve" smooth="yes"/>
			<point x="58" y="0" type="line" smooth="yes"/>
			<point x="18" y="0"/>
			<point x="10" y="4"/>
			<point x="10" y="46" type="curve" smooth="yes"/>
			<point x="10" y="220" type="line" smooth="yes"/>
			<point x="10" y="263"/>
			<point x="14" y="270"/>
			<point x="56" y="270" type="curve" smooth="yes"/>
			<point x="72" y="270" type="line" smooth="yes"/>
			<point x="128" y="270"/>
			<point x="130" y="280"/>
			<point x="130" y="334" type="curve" smooth="yes"/>
			<point x="130" y="1182" type="line" smooth="yes"/>
			<point x="130" y="1229"/>
			<point x="121" y="1230"/>
		</contour>
		<contour>
			<point x="632" y="830" type="curve" smooth="yes"/>
			<point x="650" y="830" type="line" smooth="yes"/>
			<point x="702" y="830"/>
			<point x="720" y="902"/>
			<point x="720" y="1040" type="curve" smooth="yes"/>
			<point x="720" y="1178"/>
			<point x="702" y="1230"/>
			<point x="650" y="1230" type="curve" smooth="yes"/>
			<point x="626" y="1230" type="line" smooth="yes"/>
			<point x="591" y="1230"/>
			<point x="600" y="1221"/>
			<point x="600" y="1186" type="curve" smooth="yes"/>
			<point x="600" y="874" type="line" smooth="yes"/>
			<point x="600" y="836"/>
			<point x="595" y="830"/>
		</contour>
	</outline>
</glyph>
<glyph name="T" format="2">
	<advance width="1250" height="0"/>
	<unicode hex="0054"/>
	<anchor x="620" y="1500" name="Anchor-0"/>
	<anchor x="621" y="0" name="Anchor-1"/>
	<anchor x="621" y="0" name="Anchor-2"/>
	<outline>
		<contour>
			<point x="270" y="51" type="curve" smooth="yes"/>
			<point x="270" y="220" type="line" smooth="yes"/>
			<point x="270" y="260"/>
			<point x="277" y="270"/>
			<point x="316" y="270" type="curve" smooth="yes"/>
			<point x="348" y="270" type="line" smooth="yes"/>
			<point x="401" y="270"/>
			<point x="410" y="282"/>
			<point x="410" y="335" type="curve" smooth="yes"/>
			<point x="410" y="1202" type="line" smooth="yes"/>
			<point x="410" y="1226"/>
			<point x="411" y="1240"/>
			<point x="386" y="1240" type="curve" smooth="yes"/>
			<point x="380" y="1240" type="line" smooth="yes"/>
			<point x="331" y="1240"/>
			<point x="277" y="1174"/>
			<point x="271" y="927" type="curve" smooth="yes"/>
			<point x="270" y="879"/>
			<point x="256" y="870"/>
			<point x="204" y="870" type="curve" smooth="yes"/>
			<point x="83" y="870" type="line" smooth="yes"/>
			<point x="44" y="870"/>
			<point x="30" y="872"/>
			<point x="30" y="911" type="curve" smooth="yes"/>
			<point x="30" y="1442" type="line" smooth="yes"/>
			<point x="30" y="1485"/>
			<point x="31" y="1500"/>
			<point x="74" y="1500" type="curve" smooth="yes"/>
			<point x="1180" y="1500" type="line" smooth="yes"/>
			<point x="1212" y="1500"/>
			<point x="1220" y="1487"/>
			<point x="1220" y="1452" type="curve" smooth="yes"/>
			<point x="1220" y="927" type="line" smooth="yes"/>
			<point x="1220" y="876"/>
			<point x="1211" y="870"/>
			<point x="1158" y="870" type="curve" smooth="yes"/>
			<point x="1040" y="870" type="line" smooth="yes"/>
			<point x="988" y="870"/>
			<point x="980" y="876"/>
			<point x="979" y="925" type="curve" smooth="yes"/>
			<point x="973" y="1174"/>
			<point x="940" y="1240"/>
			<point x="880" y="1240" type="curve" smooth="yes"/>
			<point x="868" y="1240" type="line" smooth="yes"/>
			<point x="838" y="1240"/>
			<point x="840" y="1226"/>
			<point x="840" y="1197" type="curve" smooth="yes"/>
			<point x="840" y="350" type="line" smooth="yes"/>
			<point x="840" y="287"/>
			<point x="843" y="270"/>
			<point x="906" y="270" type="curve" smooth="yes"/>
			<point x="923" y="270" type="line" smooth="yes"/>
			<point x="969" y="270"/>
			<point x="980" y="258"/>
			<point x="980" y="215" type="curve" smooth="yes"/>
			<point x="980" y="55" type="line" smooth="yes"/>
			<point x="980" y="7"/>
			<point x="970" y="0"/>
			<point x="924" y="0" type="curve" smooth="yes"/>
			<point x="324" y="0" type="line" smooth="yes"/>
			<point x="282" y="0"/>
			<point x="270" y="6"/>
		</contour>
	</outline>
</glyph>
<glyph name="V" format="2">
	<advance width="1390" height="0"/>
	<unicode hex="0056"/>
	<anchor x="845" y="1500" name="Anchor-0"/>
	<anchor x="721" y="0" name="Anchor-1"/>
	<anchor x="721" y="0" name="Anchor-2"/>
	<outline>
		<contour>
			<point x="821" y="501" type="curve" smooth="yes"/>
			<point x="952" y="1187" type="line" smooth="yes"/>
			<point x="965" y="1219"/>
			<point x="963" y="1230"/>
			<point x="927" y="1230" type="curve" smooth="yes"/>
			<point x="923" y="1230" type="line" smooth="yes"/>
			<point x="891" y="1230"/>
			<point x="890" y="1239"/>
			<point x="890" y="1271" type="curve" smooth="yes"/>
			<point x="890" y="1463" type="line" smooth="yes"/>
			<point x="890" y="1496"/>
			<point x="900" y="1500"/>
			<point x="931" y="1500" type="curve" smooth="yes"/>
			<point x="1324" y="1500" type="line" smooth="yes"/>
			<point x="1380" y="1500"/>
			<point x="1390" y="1499"/>
			<point x="1390" y="1443" type="curve" smooth="yes"/>
			<point x="1390" y="1279" type="line" smooth="yes"/>
			<point x="1390" y="1245"/>
			<point x="1382" y="1230"/>
			<point x="1344" y="1230" type="curve" smooth="yes"/>
			<point x="1279" y="1230" type="line" smooth="yes"/>
			<point x="1246" y="1230"/>
			<point x="1248" y="1215"/>
			<point x="1239" y="1193" type="curve" smooth="yes"/>
			<point x="962" y="23" type="line" smooth="yes"/>
			<point x="949" y="-9"/>
			<point x="945" y="-10"/>
			<point x="899" y="-10" type="curve" smooth="yes"/>
			<point x="499" y="-10" type="line" smooth="yes"/>
			<point x="452" y="-10"/>
			<point x="446" y="1"/>
			<point x="433" y="33" type="curve" smooth="yes"/>
			<point x="152" y="1169" type="line" smooth="yes"/>
			<point x="137" y="1207"/>
			<point x="142" y="1230"/>
			<point x="85" y="1230" type="curve" smooth="yes"/>
			<point x="53" y="1230" type="line" smooth="yes"/>
			<point x="18" y="1230"/>
			<point x="0" y="1230"/>
			<point x="0" y="1269" type="curve" smooth="yes"/>
			<point x="0" y="1455" type="line" smooth="yes"/>
			<point x="0" y="1495"/>
			<point x="6" y="1500"/>
			<point x="45" y="1500" type="curve" smooth="yes"/>
			<point x="739" y="1500" type="line" smooth="yes"/>
			<point x="779" y="1500"/>
			<point x="780" y="1491"/>
			<point x="780" y="1451" type="curve" smooth="yes"/>
			<point x="780" y="1273" type="line" smooth="yes"/>
			<point x="780" y="1235"/>
			<point x="774" y="1230"/>
			<point x="737" y="1230" type="curve" smooth="yes"/>
			<point x="723" y="1230" type="line" smooth="yes"/>
			<point x="665" y="1230"/>
			<point x="660" y="1220"/>
			<point x="674" y="1181" type="curve" smooth="yes"/>
			<point x="776" y="497" type="line" smooth="yes"/>
			<point x="792" y="451"/>
			<point x="808" y="470"/>
		</contour>
	</outline>
</glyph>
<glyph name="f" format="2">
	<advance width="700" height="2310"/>
	<unicode hex="0066"/>
	<anchor x="539" y="1692" name="Anchor-0"/>
	<anchor x="321" y="0" name="Anchor-1"/>
	<anchor x="321" y="0" name="Anchor-2"/>
	<outline>
		<contour>
			<point x="510" y="787" type="curve" smooth="yes"/>
			<point x="510" y="248" type="line" smooth="yes"/>
			<point x="510" y="215"/>
			<point x="516" y="210"/>
			<point x="551" y="210" type="curve" smooth="yes"/>
			<point x="593" y="210" type="line" smooth="yes"/>
			<point x="632" y="210"/>
			<point x="650" y="206"/>
			<point x="650" y="163" type="curve" smooth="yes"/>
			<point x="650" y="46" type="line" smooth="yes"/>
			<point x="650" y="3"/>
			<point x="643" y="0"/>
			<point x="599" y="0" type="curve" smooth="yes"/>
			<point x="67" y="0" type="line" smooth="yes"/>
			<point x="25" y="0"/>
			<point x="10" y="6"/>
			<point x="10" y="51" type="curve" smooth="yes"/>
			<point x="10" y="155" type="line" smooth="yes"/>
			<point x="10" y="196"/>
			<point x="12" y="210"/>
			<point x="43" y="210" type="curve" smooth="yes"/>
			<point x="51" y="210" type="line" smooth="yes"/>
			<point x="71" y="210"/>
			<point x="90" y="212"/>
			<point x="90" y="252" type="curve" smooth="yes"/>
			<point x="90" y="796" type="line" smooth="yes"/>
			<point x="90" y="822"/>
			<point x="88" y="830"/>
			<point x="63" y="830" type="curve" smooth="yes"/>
			<point x="51" y="830" type="line" smooth="yes"/>
			<point x="20" y="830"/>
			<point x="10" y="831"/>
			<point x="10" y="862" type="curve" smooth="yes"/>
			<point x="10" y="1000" type="line" smooth="yes"/>
			<point x="10" y="1031"/>
			<point x="14" y="1040"/>
			<point x="47" y="1040" type="curve" smooth="yes"/>
			<point x="51" y="1040" type="line" smooth="yes"/>
			<point x="84" y="1040"/>
			<point x="90" y="1046"/>
			<point x="90" y="1078" type="curve" smooth="yes"/>
			<point x="90" y="1144" type="line" smooth="yes"/>
			<point x="90" y="1366"/>
			<point x="194" y="1600"/>
			<point x="554" y="1600" type="curve" smooth="yes"/>
			<point x="856" y="1600"/>
			<point x="950" y="1462"/>
			<point x="950" y="1308" type="curve" smooth="yes"/>
			<point x="950" y="1148"/>
			<point x="840" y="1086"/>
			<point x="716" y="1086" type="curve" smooth="yes"/>
			<point x="592" y="1086"/>
			<point x="526" y="1162"/>
			<point x="526" y="1272" type="curve" smooth="yes"/>
			<point x="526" y="1366"/>
			<point x="578" y="1380"/>
			<point x="578" y="1402" type="curve" smooth="yes"/>
			<point x="578" y="1416"/>
			<point x="560" y="1426"/>
			<point x="540" y="1426" type="curve" smooth="yes"/>
			<point x="430" y="1426"/>
			<point x="510" y="1234"/>
			<point x="510" y="1100" type="curve" smooth="yes"/>
			<point x="510" y="1063" type="line" smooth="yes"/>
			<point x="510" y="1042"/>
			<point x="515" y="1040"/>
			<point x="535" y="1040" type="curve" smooth="yes"/>
			<point x="616" y="1040" type="line" smooth="yes"/>
			<point x="649" y="1040"/>
			<point x="650" y="1036"/>
			<point x="650" y="1004" type="curve" smooth="yes"/>
			<point x="650" y="867" type="line" smooth="yes"/>
			<point x="650" y="834"/>
			<point x="648" y="830"/>
			<point x="615" y="830" type="curve" smooth="yes"/>
			<point x="557" y="830" type="line" smooth="yes"/>
			<point x="520" y="830"/>
			<point x="510" y="824"/>
		</contour>
	</outline>
</glyph>
<glyph name="l" format="2">
	<advance width="600" height="2310"/>
	<unicode hex="006C"/>
	<anchor x="298" y="1696" name="Anchor-0"/>
	<anchor x="761" y="1040" name="Anchor-1"/>
	<anchor x="305" y="0" name="Anchor-2"/>
	<anchor x="761" y="1040" name="Anchor-3"/>
	<outline>
		<contour>
			<point x="61" y="1350" type="curve" smooth="yes"/>
			<point x="57" y="1350" type="line" smooth="yes"/>
			<point x="21" y="1350"/>
			<point x="10" y="1363"/>
			<point x="10" y="1416" type="curve" smooth="yes"/>
			<point x="10" y="1496" type="line" smooth="yes"/>
			<point x="10" y="1558"/>
			<point x="18" y="1560"/>
			<point x="81" y="1560" type="curve" smooth="yes"/>
			<point x="447" y="1560" type="line" smooth="yes"/>
			<point x="503" y="1560"/>
			<point x="510" y="1556"/>
			<point x="510" y="1498" type="curve" smooth="yes"/>
			<point x="510" y="262" type="line" smooth="yes"/>
			<point x="510" y="215"/>
			<point x="516" y="210"/>
			<point x="551" y="210" type="curve" smooth="yes"/>
			<point x="557" y="210" type="line" smooth="yes"/>
			<point x="584" y="210"/>
			<point x="590" y="205"/>
			<point x="590" y="176" type="curve" smooth="yes"/>
			<point x="590" y="54" type="line" smooth="yes"/>
			<point x="590" y="3"/>
			<point x="583" y="0"/>
			<point x="531" y="0" type="curve" smooth="yes"/>
			<point x="51" y="0" type="line" smooth="yes"/>
			<point x="19" y="0"/>
			<point x="10" y="2"/>
			<point x="10" y="34" type="curve" smooth="yes"/>
			<point x="10" y="166" type="line" smooth="yes"/>
			<point x="10" y="201"/>
			<point x="12" y="210"/>
			<point x="47" y="210" type="curve" smooth="yes"/>
			<point x="59" y="210" type="line" smooth="yes"/>
			<point x="74" y="210"/>
			<point x="90" y="214"/>
			<point x="90" y="270" type="curve" smooth="yes"/>
			<point x="90" y="1298" type="line" smooth="yes"/>
			<point x="90" y="1348"/>
			<point x="88" y="1350"/>
		</contour>
	</outline>
</glyph>
<glyph name="t" format="2">
	<advance width="717" height="2310"/>
	<unicode hex="0074"/>
	<anchor x="416.853" y="1277" name="Anchor-0"/>
	<anchor x="606.853" y="1153" name="Anchor-1"/>
	<anchor x="429.853" y="0" name="Anchor-2"/>
	<anchor x="606.853" y="1153" name="Anchor-3"/>
	<outline>
		<contour>
			<point x="740.853" y="249" type="curve" smooth="yes"/>
			<point x="716.853" y="84"/>
			<point x="631.853" y="-34"/>
			<point x="405.853" y="-34" type="curve" smooth="yes"/>
			<point x="171.853" y="-34"/>
			<point x="85.853" y="54"/>
			<point x="85.853" y="272" type="curve" smooth="yes"/>
			<point x="85.853" y="791" type="line" smooth="yes"/>
			<point x="85.853" y="820"/>
			<point x="85.853" y="830"/>
			<point x="56.853" y="830" type="curve" smooth="yes"/>
			<point x="28.853" y="830" type="line" smooth="yes"/>
			<point x="4.853" y="830"/>
			<point x="-0.147" y="837"/>
			<point x="-0.147" y="862" type="curve" smooth="yes"/>
			<point x="-0.147" y="1002" type="line" smooth="yes"/>
			<point x="-0.147" y="1034"/>
			<point x="4.854" y="1039.71"/>
			<point x="35.853" y="1040" type="curve" smooth="yes"/>
			<point x="142.853" y="1041"/>
			<point x="205.853" y="1068"/>
			<point x="288.853" y="1363" type="curve" smooth="yes"/>
			<point x="297.139" y="1392.451"/>
			<point x="290.853" y="1400"/>
			<point x="328.853" y="1400" type="curve" smooth="yes"/>
			<point x="491.853" y="1400" type="line" smooth="yes"/>
			<point x="516.853" y="1400"/>
			<point x="525.853" y="1393"/>
			<point x="525.853" y="1367" type="curve" smooth="yes"/>
			<point x="525.853" y="1080" type="line" smooth="yes"/>
			<point x="525.853" y="1049"/>
			<point x="526.853" y="1040"/>
			<point x="557.853" y="1040" type="curve" smooth="yes"/>
			<point x="654.853" y="1040" type="line" smooth="yes"/>
			<point x="674.853" y="1040"/>
			<point x="679.853" y="1034"/>
			<point x="679.853" y="1012" type="curve" smooth="yes"/>
			<point x="679.853" y="854" type="line" smooth="yes"/>
			<point x="679.853" y="836"/>
			<point x="670.853" y="830"/>
			<point x="651.853" y="830" type="curve" smooth="yes"/>
			<point x="557.853" y="830" type="line" smooth="yes"/>
			<point x="537.853" y="830"/>
			<point x="525.853" y="818"/>
			<point x="525.853" y="797" type="curve" smooth="yes"/>
			<point x="525.853" y="308" type="line" smooth="yes"/>
			<point x="525.853" y="208"/>
			<point x="527.853" y="184"/>
			<point x="544.853" y="184" type="curve" smooth="yes"/>
			<point x="565.853" y="184"/>
			<point x="578.853" y="222"/>
			<point x="595.853" y="294" type="curve" smooth="yes"/>
			<point x="601.783" y="319.116"/>
			<point x="615.401" y="312.737"/>
			<point x="641.853" y="308" type="curve" smooth="yes"/>
			<point x="718.853" y="296" type="line" smooth="yes"/>
			<point x="748.354" y="290.716"/>
			<point x="744.805" y="276.173"/>
		</contour>
	</outline>
</glyph>
<glyph name="w" format="2">
	<advance width="1310" height="2310"/>
	<unicode hex="0077"/>
	<anchor x="757" y="1040" name="Anchor-0"/>
	<anchor x="657" y="0" name="Anchor-1"/>
	<anchor x="657" y="0" name="Anchor-2"/>
	<outline>
		<contour>
			<point x="492" y="647" type="curve" smooth="yes"/>
			<point x="565" y="1013" type="line" smooth="yes"/>
			<point x="569.334" y="1034.731"/>
			<point x="582" y="1040"/>
			<point x="612" y="1040" type="curve" smooth="yes"/>
			<point x="746" y="1040" type="line" smooth="yes"/>
			<point x="789" y="1040"/>
			<point x="801" y="1038"/>
			<point x="814" y="1009" type="curve" smooth="yes"/>
			<point x="919" y="683" type="line" smooth="yes"/>
			<point x="940" y="637"/>
			<point x="931" y="622"/>
			<point x="947" y="622" type="curve" smooth="yes"/>
			<point x="965" y="622"/>
			<point x="958.274" y="641.578"/>
			<point x="969" y="683" type="curve" smooth="yes"/>
			<point x="998" y="795" type="line" smooth="yes"/>
			<point x="1005.312" y="823.243"/>
			<point x="986" y="830"/>
			<point x="969" y="830" type="curve" smooth="yes"/>
			<point x="954" y="830" type="line" smooth="yes"/>
			<point x="925" y="830"/>
			<point x="922" y="841"/>
			<point x="922" y="867" type="curve" smooth="yes"/>
			<point x="922" y="1013" type="line" smooth="yes"/>
			<point x="922" y="1039"/>
			<point x="931" y="1040"/>
			<point x="958" y="1040" type="curve" smooth="yes"/>
			<point x="1292" y="1040" type="line" smooth="yes"/>
			<point x="1319" y="1040"/>
			<point x="1330" y="1032"/>
			<point x="1330" y="1002" type="curve" smooth="yes"/>
			<point x="1330" y="877" type="line" smooth="yes"/>
			<point x="1330" y="839"/>
			<point x="1328" y="830"/>
			<point x="1290" y="830" type="curve" smooth="yes"/>
			<point x="1276" y="830" type="line" smooth="yes"/>
			<point x="1252" y="830"/>
			<point x="1243" y="825"/>
			<point x="1232" y="793" type="curve" smooth="yes"/>
			<point x="1072" y="21" type="line" smooth="yes"/>
			<point x="1059" y="-18"/>
			<point x="1064" y="-30"/>
			<point x="1010" y="-30" type="curve" smooth="yes"/>
			<point x="854" y="-30" type="line" smooth="yes"/>
			<point x="795" y="-30"/>
			<point x="786.439" y="-25.973"/>
			<point x="777" y="15" type="curve" smooth="yes"/>
			<point x="693" y="313" type="line" smooth="yes"/>
			<point x="681.899" y="361.18"/>
			<point x="676" y="401"/>
			<point x="658" y="401" type="curve" smooth="yes"/>
			<point x="643" y="401"/>
			<point x="634.583" y="362.494"/>
			<point x="628" y="321" type="curve" smooth="yes"/>
			<point x="582" y="15" type="line" smooth="yes"/>
			<point x="574.798" y="-24.425"/>
			<point x="568" y="-30"/>
			<point x="512" y="-30" type="curve" smooth="yes"/>
			<point x="320" y="-30" type="line" smooth="yes"/>
			<point x="261" y="-30"/>
			<point x="263" y="-21"/>
			<point x="248" y="21" type="curve" smooth="yes"/>
			<point x="83" y="795" type="line" smooth="yes"/>
			<point x="72" y="825"/>
			<point x="73" y="830"/>
			<point x="30" y="830" type="curve" smooth="yes"/>
			<point x="16" y="830" type="line" smooth="yes"/>
			<point x="-19" y="830"/>
			<point x="-20" y="845"/>
			<point x="-20" y="877" type="curve" smooth="yes"/>
			<point x="-20" y="999" type="line" smooth="yes"/>
			<point x="-20" y="1036"/>
			<point x="-12" y="1040"/>
			<point x="22" y="1040" type="curve" smooth="yes"/>
			<point x="439" y="1040" type="line" smooth="yes"/>
			<point x="474" y="1040"/>
			<point x="483" y="1036"/>
			<point x="483" y="999" type="curve" smooth="yes"/>
			<point x="483" y="875" type="line" smooth="yes"/>
			<point x="483" y="837"/>
			<point x="480" y="830"/>
			<point x="443" y="830" type="curve" smooth="yes"/>
			<point x="467" y="830" type="line" smooth="yes"/>
			<point x="428" y="830"/>
			<point x="412.396" y="827.765"/>
			<point x="418" y="799" type="curve" smooth="yes"/>
			<point x="438" y="645" type="line" smooth="yes"/>
			<point x="442.557" y="609.911"/>
			<point x="445" y="587"/>
			<point x="461" y="587" type="curve" smooth="yes"/>
			<point x="478" y="587"/>
			<point x="482.558" y="605.363"/>
		</contour>
	</outline>
</glyph>
<glyph name="y" format="2">
	<advance width="1025" height="2310"/>
	<unicode hex="0079"/>
	<anchor x="659" y="1040" name="Anchor-0"/>
	<anchor x="301" y="-565" name="Anchor-1"/>
	<anchor x="301" y="-565" name="Anchor-2"/>
	<outline>
		<contour>
			<point x="-84" y="-202" type="curve" smooth="yes"/>
			<point x="-84" y="-40"/>
			<point x="36" y="74"/>
			<point x="168" y="74" type="curve" smooth="yes"/>
			<point x="278" y="74"/>
			<point x="347" y="17"/>
			<point x="347" y="-104" type="curve" smooth="yes"/>
			<point x="347" y="-280"/>
			<point x="192" y="-251"/>
			<point x="192" y="-293" type="curve" smooth="yes"/>
			<point x="192" y="-320"/>
			<point x="226" y="-330"/>
			<point x="252" y="-330" type="curve" smooth="yes"/>
			<point x="310" y="-330"/>
			<point x="351.32" y="-290.975"/>
			<point x="386" y="-180" type="curve" smooth="yes"/>
			<point x="400" y="-132" type="line" smooth="yes"/>
			<point x="414.751" y="-84.797"/>
			<point x="394" y="-9"/>
			<point x="376" y="31" type="curve" smooth="yes"/>
			<point x="80" y="778" type="line" smooth="yes"/>
			<point x="59" y="820"/>
			<point x="71" y="830"/>
			<point x="31" y="830" type="curve" smooth="yes"/>
			<point x="24" y="830" type="line" smooth="yes"/>
			<point x="-6" y="830"/>
			<point x="-21" y="836"/>
			<point x="-21" y="864" type="curve" smooth="yes"/>
			<point x="-21" y="1010" type="line" smooth="yes"/>
			<point x="-21" y="1028"/>
			<point x="-3" y="1040"/>
			<point x="16" y="1040" type="curve" smooth="yes"/>
			<point x="544" y="1040" type="line" smooth="yes"/>
			<point x="576" y="1040"/>
			<point x="591" y="1024"/>
			<point x="591" y="990" type="curve" smooth="yes"/>
			<point x="591" y="885" type="line" smooth="yes"/>
			<point x="591" y="845"/>
			<point x="587" y="830"/>
			<point x="558" y="830" type="curve" smooth="yes"/>
			<point x="545" y="830" type="line" smooth="yes"/>
			<point x="523" y="830"/>
			<point x="515.403" y="817.847"/>
			<point x="520" y="800" type="curve" smooth="yes"/>
			<point x="561" y="621" type="line" smooth="yes"/>
			<point x="578.388" y="553.494"/>
			<point x="582" y="503"/>
			<point x="595" y="503" type="curve" smooth="yes"/>
			<point x="610" y="503"/>
			<point x="613" y="528"/>
			<point x="631" y="575" type="curve" smooth="yes"/>
			<point x="700" y="796" type="line" smooth="yes"/>
			<point x="704.164" y="816.396"/>
			<point x="694" y="830"/>
			<point x="661" y="830" type="curve" smooth="yes"/>
			<point x="658" y="830" type="line" smooth="yes"/>
			<point x="629" y="830"/>
			<point x="625" y="839"/>
			<point x="625" y="866" type="curve" smooth="yes"/>
			<point x="625" y="990" type="line" smooth="yes"/>
			<point x="625" y="1025"/>
			<point x="633" y="1040"/>
			<point x="666" y="1040" type="curve" smooth="yes"/>
			<point x="1004" y="1040" type="line" smooth="yes"/>
			<point x="1027" y="1040"/>
			<point x="1045" y="1028"/>
			<point x="1045" y="1006" type="curve" smooth="yes"/>
			<point x="1045" y="880" type="line" smooth="yes"/>
			<point x="1045" y="850"/>
			<point x="1034" y="830"/>
			<point x="1004" y="830" type="curve" smooth="yes"/>
			<point x="1003" y="830" type="line" smooth="yes"/>
			<point x="957" y="830"/>
			<point x="960.778" y="800.193"/>
			<point x="951" y="768" type="curve" smooth="yes"/>
			<point x="634" y="-144" type="line" smooth="yes"/>
			<point x="553.318" y="-409.639"/>
			<point x="468" y="-530"/>
			<point x="252" y="-530" type="curve" smooth="yes"/>
			<point x="38" y="-530"/>
			<point x="-84" y="-396"/>
		</contour>
	</outline>
</glyph>
<glyph name="braceright" format="2">
	<advance width="704" height="2310"/>
	<unicode hex="007D"/>
	<outline>
		<contour>
			<point x="97" y="1560" type="curve" smooth="yes"/>
			<point x="455" y="1554"/>
			<point x="654" y="1488"/>
			<point x="654" y="1280" type="curve" smooth="yes"/>
			<point x="654" y="1086"/>
			<point x="494" y="976"/>
			<point x="494" y="850" type="curve" smooth="yes"/>
			<point x="494" y="783"/>
			<point x="534" y="765"/>
			<point x="582" y="750" type="curve" smooth="yes"/>
			<point x="617" y="739"/>
			<point x="614" y="725"/>
			<point x="614" y="679" type="curve" smooth="yes"/>
			<point x="614" y="544" type="line" smooth="yes"/>
			<point x="614" y="508"/>
			<point x="590" y="513"/>
			<point x="566" y="504" type="curve" smooth="yes"/>
			<point x="526" y="489"/>
			<point x="494" y="468"/>
			<point x="494" y="408" type="curve" smooth="yes"/>
			<point x="494" y="282"/>
			<point x="654" y="172"/>
			<point x="654" y="-22" type="curve" smooth="yes"/>
			<point x="654" y="-231"/>
			<point x="448" y="-295"/>
			<point x="88" y="-300" type="curve" smooth="yes"/>
			<point x="45" y="-301"/>
			<point x="40" y="-291"/>
			<point x="40" y="-246" type="curve" smooth="yes"/>
			<point x="40" y="-133" type="line" smooth="yes"/>
			<point x="40" y="-82"/>
			<point x="53" y="-87"/>
			<point x="98" y="-85" type="curve" smooth="yes"/>
			<point x="189" y="-81"/>
			<point x="248" y="-62"/>
			<point x="248" y="26" type="curve" smooth="yes"/>
			<point x="248" y="158"/>
			<point x="160" y="218"/>
			<point x="160" y="398" type="curve" smooth="yes"/>
			<point x="160" y="475"/>
			<point x="227" y="558"/>
			<point x="313" y="590" type="curve" smooth="yes"/>
			<point x="352" y="604"/>
			<point x="366" y="601"/>
			<point x="366" y="630" type="curve" smooth="yes"/>
			<point x="366" y="660"/>
			<point x="349" y="657"/>
			<point x="304" y="674" type="curve" smooth="yes"/>
			<point x="222" y="705"/>
			<point x="160" y="785"/>
			<point x="160" y="860" type="curve" smooth="yes"/>
			<point x="160" y="1040"/>
			<point x="248" y="1100"/>
			<point x="248" y="1232" type="curve" smooth="yes"/>
			<point x="248" y="1320"/>
			<point x="189" y="1341"/>
			<point x="98" y="1345" type="curve" smooth="yes"/>
			<point x="58" y="1347"/>
			<point x="40" y="1345"/>
			<point x="40" y="1392" type="curve" smooth="yes"/>
			<point x="40" y="1496" type="line" smooth="yes"/>
			<point x="40" y="1549"/>
			<point x="44" y="1561"/>
		</contour>
	</outline>
</glyph>
<glyph name="exclamdown" format="2">
	<advance width="798" height="0"/>
	<unicode hex="00A1"/>
	<outline>
		<contour>
			<point x="638" y="840" type="curve" smooth="yes"/>
			<point x="638" y="708"/>
			<point x="530" y="600"/>
			<point x="398" y="600" type="curve" smooth="yes"/>
			<point x="266" y="600"/>
			<point x="158" y="708"/>
			<point x="158" y="840" type="curve" smooth="yes"/>
			<point x="158" y="972"/>
			<point x="266" y="1080"/>
			<point x="398" y="1080" type="curve" smooth="yes"/>
			<point x="530" y="1080"/>
			<point x="638" y="972"/>
		</contour>
		<contour>
			<point x="142" y="-208" type="curve" smooth="yes"/>
			<point x="182" y="128"/>
			<point x="300" y="161"/>
			<point x="311" y="424" type="curve" smooth="yes"/>
			<point x="312" y="450"/>
			<point x="314" y="464"/>
			<point x="345" y="464" type="curve" smooth="yes"/>
			<point x="445" y="464" type="line" smooth="yes"/>
			<point x="486" y="464"/>
			<point x="487" y="452"/>
			<point x="489" y="416" type="curve" smooth="yes"/>
			<point x="502" y="161"/>
			<point x="618" y="124"/>
			<point x="658" y="-208" type="curve" smooth="yes"/>
			<point x="660" y="-222"/>
			<point x="658" y="-234"/>
			<point x="658" y="-246" type="curve" smooth="yes"/>
			<point x="658" y="-418"/>
			<point x="534" y="-496"/>
			<point x="400" y="-496" type="curve" smooth="yes"/>
			<point x="266" y="-496"/>
			<point x="140" y="-418"/>
			<point x="140" y="-246" type="curve" smooth="yes"/>
			<point x="140" y="-234"/>
			<point x="140" y="-222"/>
		</contour>
	</outline>
</glyph>
<glyph name="brokenbar" format="2">
	<advance width="479" height="0"/>
	<unicode hex="00A6"/>
	<outline>
		<contour>
			<point x="150" y="818" type="line"/>
			<point x="150" y="1560" type="line"/>
			<point x="363" y="1560" type="line"/>
			<point x="363" y="818" type="line"/>
		</contour>
		<contour>
			<point x="150" y="-500" type="line"/>
			<point x="150" y="332" type="line"/>
			<point x="363" y="332" type="line"/>
			<point x="363" y="-500" type="line"/>
		</contour>
	</outline>
</glyph>
<glyph name="twosuperior" format="2">
	<advance width="859" height="2310"/>
	<unicode hex="00B2"/>
	<outline>
		<contour>
			<point x="819" y="1220" type="curve" smooth="yes"/>
			<point x="812" y="999"/>
			<point x="723" y="902"/>
			<point x="562" y="902" type="curve" smooth="yes"/>
			<point x="422" y="902"/>
			<point x="344" y="974"/>
			<point x="256" y="974" type="curve" smooth="yes"/>
			<point x="222" y="974"/>
			<point x="200" y="958"/>
			<point x="186" y="934" type="curve" smooth="yes"/>
			<point x="176" y="918"/>
			<point x="180" y="914"/>
			<point x="153" y="914" type="curve" smooth="yes"/>
			<point x="68" y="914" type="line" smooth="yes"/>
			<point x="45" y="914"/>
			<point x="41" y="916"/>
			<point x="41" y="939" type="curve" smooth="yes"/>
			<point x="42" y="1106"/>
			<point x="123" y="1260"/>
			<point x="288" y="1375" type="curve" smooth="yes"/>
			<point x="377" y="1437"/>
			<point x="528" y="1497"/>
			<point x="528" y="1604" type="curve" smooth="yes"/>
			<point x="528" y="1687"/>
			<point x="497" y="1722"/>
			<point x="372" y="1722" type="curve" smooth="yes"/>
			<point x="295" y="1722"/>
			<point x="233" y="1692"/>
			<point x="233" y="1666" type="curve" smooth="yes"/>
			<point x="233" y="1644"/>
			<point x="330" y="1651"/>
			<point x="330" y="1548" type="curve" smooth="yes"/>
			<point x="330" y="1468"/>
			<point x="267" y="1424"/>
			<point x="199" y="1424" type="curve" smooth="yes"/>
			<point x="128" y="1424"/>
			<point x="59" y="1469"/>
			<point x="59" y="1563" type="curve" smooth="yes"/>
			<point x="59" y="1727"/>
			<point x="214" y="1826"/>
			<point x="426" y="1826" type="curve" smooth="yes"/>
			<point x="643" y="1826"/>
			<point x="782" y="1754"/>
			<point x="782" y="1598" type="curve" smooth="yes"/>
			<point x="782" y="1430"/>
			<point x="613" y="1389"/>
			<point x="432" y="1310" type="curve" smooth="yes"/>
			<point x="331" y="1266"/>
			<point x="273" y="1224"/>
			<point x="235" y="1179" type="curve" smooth="yes"/>
			<point x="207" y="1146"/>
			<point x="181" y="1095"/>
			<point x="194" y="1095" type="curve" smooth="yes"/>
			<point x="208" y="1095"/>
			<point x="208" y="1127"/>
			<point x="245" y="1162" type="curve" smooth="yes"/>
			<point x="273" y="1188"/>
			<point x="318" y="1195"/>
			<point x="358" y="1195" type="curve" smooth="yes"/>
			<point x="460" y="1195"/>
			<point x="508" y="1143"/>
			<point x="599" y="1143" type="curve" smooth="yes"/>
			<point x="663" y="1143"/>
			<point x="694" y="1173"/>
			<point x="702" y="1220" type="curve" smooth="yes"/>
			<point x="706" y="1245"/>
			<point x="702" y="1246"/>
			<point x="731" y="1246" type="curve" smooth="yes"/>
			<point x="795" y="1246" type="line" smooth="yes"/>
			<point x="821" y="1246"/>
			<point x="819" y="1245"/>
		</contour>
	</outline>
</glyph>
<glyph name="mu" format="2">
	<advance width="1120" height="0"/>
	<unicode hex="00B5"/>
	<outline>
		<contour>
			<point x="302" y="847" type="line"/>
			<point x="302" y="-182" type="line" smooth="yes"/>
			<point x="302" y="-353"/>
			<point x="506" y="-383"/>
			<point x="524" y="-375" type="curve" smooth="yes"/>
			<point x="533" y="-371"/>
			<point x="471" y="-346"/>
			<point x="471" y="-252" type="curve" smooth="yes"/>
			<point x="471" y="-157"/>
			<point x="559" y="-86"/>
			<point x="694" y="-86" type="curve" smooth="yes"/>
			<point x="844" y="-86"/>
			<point x="917" y="-158"/>
			<point x="917" y="-280" type="curve" smooth="yes"/>
			<point x="917" y="-401"/>
			<point x="810" y="-520"/>
			<point x="550" y="-520" type="curve" smooth="yes"/>
			<point x="268" y="-520"/>
			<point x="90" y="-409"/>
			<point x="90" y="-182" type="curve" smooth="yes"/>
			<point x="90" y="847" type="line"/>
		</contour>
		<component base="u"/>
	</outline>
</glyph>
<glyph name="AE" format="2">
	<advance width="1920" height="0"/>
	<unicode hex="00C6"/>
	<outline>
		<contour>
			<point x="0" y="42" type="curve" smooth="yes"/>
			<point x="0" y="254" type="line" smooth="yes"/>
			<point x="0" y="274"/>
			<point x="6" y="280"/>
			<point x="28" y="280" type="curve" smooth="yes"/>
			<point x="44" y="280" type="line" smooth="yes"/>
			<point x="86" y="280"/>
			<point x="91" y="296"/>
			<point x="115" y="320" type="curve" smooth="yes"/>
			<point x="632" y="1189" type="line" smooth="yes"/>
			<point x="662" y="1231"/>
			<point x="645" y="1230"/>
			<point x="574" y="1230" type="curve" smooth="yes"/>
			<point x="546" y="1230" type="line" smooth="yes"/>
			<point x="521" y="1230"/>
			<point x="520" y="1234"/>
			<point x="520" y="1260" type="curve" smooth="yes"/>
			<point x="520" y="1472" type="line" smooth="yes"/>
			<point x="520" y="1495"/>
			<point x="527" y="1500"/>
			<point x="548" y="1500" type="curve" smooth="yes"/>
			<point x="1284" y="1500" type="line" smooth="yes"/>
			<point x="1307" y="1500"/>
			<point x="1310" y="1496"/>
			<point x="1310" y="1472" type="curve" smooth="yes"/>
			<point x="1310" y="1263" type="line" smooth="yes"/>
			<point x="1310" y="1239"/>
			<point x="1308" y="1230"/>
			<point x="1282" y="1230" type="curve" smooth="yes"/>
			<point x="1038" y="1230" type="line" smooth="yes"/>
			<point x="974" y="1230"/>
			<point x="971" y="1231"/>
			<point x="949" y="1201" type="curve" smooth="yes"/>
			<point x="624" y="678" type="line" smooth="yes"/>
			<point x="611" y="657"/>
			<point x="616" y="650"/>
			<point x="652" y="650" type="curve" smooth="yes"/>
			<point x="1134" y="650" type="line"/>
			<point x="1114" y="440" type="line"/>
			<point x="546" y="440" type="line" smooth="yes"/>
			<point x="510" y="440"/>
			<point x="484.554" y="426.044"/>
			<point x="469" y="400" type="curve" smooth="yes"/>
			<point x="426" y="328" type="line" smooth="yes"/>
			<point x="406.753" y="295.772"/>
			<point x="403" y="280"/>
			<point x="447" y="280" type="curve" smooth="yes"/>
			<point x="478" y="280" type="line" smooth="yes"/>
			<point x="502" y="280"/>
			<point x="510" y="275"/>
			<point x="510" y="250" type="curve" smooth="yes"/>
			<point x="510" y="32" type="line" smooth="yes"/>
			<point x="510" y="0"/>
			<point x="510" y="0"/>
			<point x="478" y="0" type="curve" smooth="yes"/>
			<point x="50" y="0" type="line" smooth="yes"/>
			<point x="13" y="0"/>
			<point x="0" y="2"/>
		</contour>
		<component base="E" xOffset="749.999"/>
	</outline>
</glyph>
<glyph name="Eth" format="2">
	<advance width="1320" height="0"/>
	<unicode hex="00D0"/>
	<outline>
		<contour>
			<point x="57" y="900" type="curve" smooth="yes"/>
			<point x="682" y="900" type="line" smooth="yes"/>
			<point x="720" y="900"/>
			<point x="723" y="893"/>
			<point x="723" y="861" type="curve" smooth="yes"/>
			<point x="723" y="711" type="line" smooth="yes"/>
			<point x="723" y="676"/>
			<point x="723" y="670"/>
			<point x="680" y="670" type="curve" smooth="yes"/>
			<point x="67" y="670" type="line" smooth="yes"/>
			<point x="23" y="670"/>
			<point x="16" y="675"/>
			<point x="16" y="710" type="curve" smooth="yes"/>
			<point x="16" y="859" type="line" smooth="yes"/>
			<point x="16" y="891"/>
			<point x="18" y="900"/>
		</contour>
		<component base="D"/>
	</outline>
</glyph>
<glyph name="multiply" format="2">
	<advance width="1090" height="0"/>
	<unicode hex="00D7"/>
	<outline>
		<contour>
			<point x="566" y="860" type="curve" smooth="yes"/>
			<point x="726" y="1020" type="line" smooth="yes"/>
			<point x="745" y="1039"/>
			<point x="756" y="1047"/>
			<point x="777" y="1026" type="curve" smooth="yes"/>
			<point x="889" y="913" type="line" smooth="yes"/>
			<point x="910" y="892"/>
			<point x="915" y="884"/>
			<point x="894" y="863" type="curve" smooth="yes"/>
			<point x="732" y="700" type="line" smooth="yes"/>
			<point x="709" y="677"/>
			<point x="710" y="673"/>
			<point x="734" y="649" type="curve" smooth="yes"/>
			<point x="901" y="483" type="line" smooth="yes"/>
			<point x="915" y="469"/>
			<point x="912" y="462"/>
			<point x="897" y="447" type="curve" smooth="yes"/>
			<point x="777" y="327" type="line" smooth="yes"/>
			<point x="758" y="308"/>
			<point x="751" y="310"/>
			<point x="731" y="330" type="curve" smooth="yes"/>
			<point x="576" y="485" type="line" smooth="yes"/>
			<point x="552" y="509"/>
			<point x="544" y="513"/>
			<point x="521" y="490" type="curve" smooth="yes"/>
			<point x="358" y="327" type="line" smooth="yes"/>
			<point x="342" y="311"/>
			<point x="333" y="309"/>
			<point x="316" y="326" type="curve" smooth="yes"/>
			<point x="190" y="453" type="line" smooth="yes"/>
			<point x="174" y="469"/>
			<point x="177" y="471"/>
			<point x="193" y="487" type="curve" smooth="yes"/>
			<point x="364" y="658" type="line" smooth="yes"/>
			<point x="382" y="676"/>
			<point x="378" y="684"/>
			<point x="360" y="702" type="curve" smooth="yes"/>
			<point x="204" y="857" type="line" smooth="yes"/>
			<point x="181" y="880"/>
			<point x="178" y="888"/>
			<point x="201" y="911" type="curve" smooth="yes"/>
			<point x="316" y="1026" type="line" smooth="yes"/>
			<point x="337" y="1047"/>
			<point x="344" y="1040"/>
			<point x="365" y="1019" type="curve" smooth="yes"/>
			<point x="524" y="860" type="line" smooth="yes"/>
			<point x="542" y="842"/>
			<point x="548" y="842"/>
		</contour>
	</outline>
</glyph>
<glyph name="Oslash" format="2">
	<advance width="1240" height="0"/>
	<unicode hex="00D8"/>
	<outline>
		<contour>
			<point x="865" y="1660" type="curve" smooth="yes"/>
			<point x="983" y="1660" type="line" smooth="yes"/>
			<point x="1050" y="1660"/>
			<point x="1061" y="1657"/>
			<point x="1044" y="1605" type="curve" smooth="yes"/>
			<point x="455" y="-154" type="line" smooth="yes"/>
			<point x="442" y="-194"/>
			<point x="434" y="-200"/>
			<point x="379" y="-200" type="curve" smooth="yes"/>
			<point x="269" y="-200" type="line" smooth="yes"/>
			<point x="198" y="-200"/>
			<point x="182" y="-199"/>
			<point x="200" y="-146" type="curve" smooth="yes"/>
			<point x="802" y="1624" type="line" smooth="yes"/>
			<point x="813" y="1655"/>
			<point x="821" y="1660"/>
		</contour>
		<component base="O"/>
	</outline>
</glyph>
<glyph name="oslash" format="2">
	<advance width="1056" height="0"/>
	<unicode hex="00F8"/>
	<outline>
		<contour>
			<point x="755" y="1215" type="curve" smooth="yes"/>
			<point x="873" y="1215" type="line" smooth="yes"/>
			<point x="940" y="1215"/>
			<point x="951" y="1212"/>
			<point x="934" y="1173" type="curve" smooth="yes"/>
			<point x="345" y="-155" type="line" smooth="yes"/>
			<point x="332" y="-185"/>
			<point x="324" y="-189"/>
			<point x="269" y="-189" type="curve" smooth="yes"/>
			<point x="159" y="-189" type="line" smooth="yes"/>
			<point x="88" y="-189"/>
			<point x="72" y="-189"/>
			<point x="90" y="-149" type="curve" smooth="yes"/>
			<point x="692" y="1187" type="line" smooth="yes"/>
			<point x="703" y="1210"/>
			<point x="711" y="1215"/>
		</contour>
		<component base="o"/>
	</outline>
</glyph>
<glyph name="dcroat" format="2">
	<advance width="1116" height="2309"/>
	<unicode hex="0111"/>
	<outline>
		<contour>
			<point x="547" y="1290" type="curve" smooth="yes"/>
			<point x="1070" y="1290" type="line" smooth="yes"/>
			<point x="1103" y="1290"/>
			<point x="1106" y="1283"/>
			<point x="1106" y="1251" type="curve" smooth="yes"/>
			<point x="1106" y="1101" type="line" smooth="yes"/>
			<point x="1106" y="1066"/>
			<point x="1105" y="1060"/>
			<point x="1068" y="1060" type="curve" smooth="yes"/>
			<point x="556" y="1060" type="line" smooth="yes"/>
			<point x="518" y="1060"/>
			<point x="511" y="1065"/>
			<point x="511" y="1100" type="curve" smooth="yes"/>
			<point x="511" y="1249" type="line" smooth="yes"/>
			<point x="511" y="1281"/>
			<point x="513" y="1290"/>
		</contour>
		<component base="d"/>
	</outline>
</glyph>
<glyph name="Hbar" format="2">
	<advance width="1440" height="0"/>
	<unicode hex="0126"/>
	<outline>
		<contour>
			<point x="107" y="1170" type="curve" smooth="yes"/>
			<point x="1334" y="1170" type="line" smooth="yes"/>
			<point x="1421" y="1170"/>
			<point x="1430" y="1163"/>
			<point x="1430" y="1131" type="curve" smooth="yes"/>
			<point x="1430" y="981" type="line" smooth="yes"/>
			<point x="1430" y="946"/>
			<point x="1427" y="940"/>
			<point x="1328" y="940" type="curve" smooth="yes"/>
			<point x="129" y="940" type="line" smooth="yes"/>
			<point x="27" y="940"/>
			<point x="11" y="945"/>
			<point x="11" y="980" type="curve" smooth="yes"/>
			<point x="11" y="1129" type="line" smooth="yes"/>
			<point x="11" y="1161"/>
			<point x="17" y="1170"/>
		</contour>
		<component base="H"/>
	</outline>
</glyph>
<glyph name="hbar" format="2">
	<advance width="1315" height="2309"/>
	<unicode hex="0127"/>
	<outline>
		<contour>
			<point x="60" y="1310" type="curve" smooth="yes"/>
			<point x="625" y="1310" type="line" smooth="yes"/>
			<point x="663" y="1310"/>
			<point x="666" y="1303"/>
			<point x="666" y="1271" type="curve" smooth="yes"/>
			<point x="666" y="1121" type="line" smooth="yes"/>
			<point x="666" y="1086"/>
			<point x="666" y="1080"/>
			<point x="623" y="1080" type="curve" smooth="yes"/>
			<point x="70" y="1080" type="line" smooth="yes"/>
			<point x="26" y="1080"/>
			<point x="19" y="1085"/>
			<point x="19" y="1120" type="curve" smooth="yes"/>
			<point x="19" y="1269" type="line" smooth="yes"/>
			<point x="19" y="1301"/>
			<point x="21" y="1310"/>
		</contour>
		<component base="h"/>
	</outline>
</glyph>
<glyph name="dotlessi" format="2">
	<advance width="600" height="2310"/>
	<unicode hex="0131"/>
	<anchor x="319" y="1040" name="Anchor-0"/>
	<anchor x="317" y="0" name="Anchor-1"/>
	<anchor x="317" y="0" name="Anchor-2"/>
	<outline>
		<contour>
			<point x="71" y="830" type="curve" smooth="yes"/>
			<point x="36" y="830" type="line" smooth="yes"/>
			<point x="18" y="830"/>
			<point x="10" y="833"/>
			<point x="10" y="850" type="curve" smooth="yes"/>
			<point x="10" y="1012" type="line" smooth="yes"/>
			<point x="10" y="1035"/>
			<point x="18" y="1040"/>
			<point x="40" y="1040" type="curve" smooth="yes"/>
			<point x="485" y="1040" type="line" smooth="yes"/>
			<point x="504" y="1040"/>
			<point x="510" y="1039"/>
			<point x="510" y="1020" type="curve" smooth="yes"/>
			<point x="510" y="235" type="line" smooth="yes"/>
			<point x="510" y="215"/>
			<point x="511" y="210"/>
			<point x="531" y="210" type="curve" smooth="yes"/>
			<point x="562" y="210" type="line" smooth="yes"/>
			<point x="585" y="210"/>
			<point x="590" y="209"/>
			<point x="590" y="186" type="curve" smooth="yes"/>
			<point x="590" y="31" type="line" smooth="yes"/>
			<point x="590" y="2"/>
			<point x="582" y="0"/>
			<point x="552" y="0" type="curve" smooth="yes"/>
			<point x="34" y="0" type="line" smooth="yes"/>
			<point x="14" y="0"/>
			<point x="10" y="4"/>
			<point x="10" y="25" type="curve" smooth="yes"/>
			<point x="10" y="181" type="line" smooth="yes"/>
			<point x="10" y="206"/>
			<point x="13" y="210"/>
			<point x="37" y="210" type="curve" smooth="yes"/>
			<point x="64" y="210" type="line" smooth="yes"/>
			<point x="85" y="210"/>
			<point x="90" y="211"/>
			<point x="90" y="232" type="curve" smooth="yes"/>
			<point x="90" y="804" type="line" smooth="yes"/>
			<point x="90" y="821"/>
			<point x="87" y="830"/>
		</contour>
	</outline>
</glyph>
<glyph name="idotless" format="2">
	<advance width="600"/>
	<unicode hex="0131"/>
	<anchor x="300" y="1040" name="Anchor-0"/>
	<anchor x="300" y="0" name="bottom"/>
	<anchor x="540" y="10" name="ogonek"/>
	<outline>
		<contour>
			<point x="34" y="0" type="curve" smooth="yes"/>
			<point x="552" y="0" type="line" smooth="yes"/>
			<point x="582" y="0"/>
			<point x="590" y="2"/>
			<point x="590" y="31" type="curve" smooth="yes"/>
			<point x="590" y="186" type="line" smooth="yes"/>
			<point x="590" y="209"/>
			<point x="585" y="210"/>
			<point x="562" y="210" type="curve" smooth="yes"/>
			<point x="531" y="210" type="line" smooth="yes"/>
			<point x="511" y="210"/>
			<point x="510" y="215"/>
			<point x="510" y="235" type="curve" smooth="yes"/>
			<point x="510" y="1020" type="line" smooth="yes"/>
			<point x="510" y="1039"/>
			<point x="504" y="1040"/>
			<point x="485" y="1040" type="curve" smooth="yes"/>
			<point x="40" y="1040" type="line" smooth="yes"/>
			<point x="18" y="1040"/>
			<point x="10" y="1035"/>
			<point x="10" y="1012" type="curve" smooth="yes"/>
			<point x="10" y="850" type="line" smooth="yes"/>
			<point x="10" y="833"/>
			<point x="18" y="830"/>
			<point x="36" y="830" type="curve" smooth="yes"/>
			<point x="71" y="830" type="line" smooth="yes"/>
			<point x="87" y="830"/>
			<point x="90" y="821"/>
			<point x="90" y="804" type="curve" smooth="yes"/>
			<point x="90" y="232" type="line" smooth="yes"/>
			<point x="90" y="211"/>
			<point x="85" y="210"/>
			<point x="64" y="210" type="curve" smooth="yes"/>
			<point x="37" y="210" type="line" smooth="yes"/>
			<point x="13" y="210"/>
			<point x="10" y="206"/>
			<point x="10" y="181" type="curve" smooth="yes"/>
			<point x="10" y="25" type="line" smooth="yes"/>
			<point x="10" y="4"/>
			<point x="14" y="0"/>
		</contour>
	</outline>
</glyph>
<glyph name="Lslash" format="2">
	<advance width="1100" height="0"/>
	<unicode hex="0141"/>
	<outline>
		<contour>
			<point x="44" y="786" type="curve" smooth="yes"/>
			<point x="818" y="1139" type="line" smooth="yes"/>
			<point x="839" y="1149"/>
			<point x="851" y="1153"/>
			<point x="851" y="1112" type="curve" smooth="yes"/>
			<point x="851" y="943" type="line" smooth="yes"/>
			<point x="851" y="908"/>
			<point x="850" y="901"/>
			<point x="828" y="891" type="curve" smooth="yes"/>
			<point x="50" y="535" type="line" smooth="yes"/>
			<point x="30" y="526"/>
			<point x="20" y="524"/>
			<point x="20" y="564" type="curve" smooth="yes"/>
			<point x="20" y="735" type="line" smooth="yes"/>
			<point x="20" y="765"/>
			<point x="25" y="777"/>
		</contour>
		<component base="L"/>
	</outline>
</glyph>
<glyph name="lslash" format="2">
	<advance width="600" height="2309"/>
	<unicode hex="0142"/>
	<outline>
		<contour>
			<point x="35" y="850" type="curve" smooth="yes"/>
			<point x="555" y="1105" type="line" smooth="yes"/>
			<point x="577" y="1115"/>
			<point x="579" y="1105"/>
			<point x="579" y="1068" type="curve" smooth="yes"/>
			<point x="579" y="958" type="line" smooth="yes"/>
			<point x="579" y="921"/>
			<point x="575" y="920"/>
			<point x="553" y="906" type="curve" smooth="yes"/>
			<point x="43" y="657" type="line" smooth="yes"/>
			<point x="23" y="648"/>
			<point x="19" y="655"/>
			<point x="19" y="691" type="curve" smooth="yes"/>
			<point x="19" y="815" type="line" smooth="yes"/>
			<point x="19" y="839"/>
			<point x="21" y="841"/>
		</contour>
		<component base="l"/>
	</outline>
</glyph>
<glyph name="OE" format="2">
	<advance width="1779" height="0"/>
	<unicode hex="0152"/>
	<outline>
		<contour>
			<point x="850" y="1500" type="line"/>
			<point x="850" y="1230" type="line"/>
			<point x="700" y="1230" type="line" smooth="yes"/>
			<point x="622" y="1230"/>
			<point x="540" y="1114"/>
			<point x="540" y="750" type="curve" smooth="yes"/>
			<point x="540" y="386"/>
			<point x="642" y="270"/>
			<point x="700" y="270" type="curve" smooth="yes"/>
			<point x="850" y="270" type="line"/>
			<point x="850" y="0" type="line"/>
			<point x="630" y="0" type="line" smooth="yes"/>
			<point x="134" y="0"/>
			<point x="10" y="324"/>
			<point x="10" y="750" type="curve" smooth="yes"/>
			<point x="10" y="1176"/>
			<point x="154" y="1500"/>
			<point x="630" y="1500" type="curve" smooth="yes"/>
		</contour>
		<component base="E" xOffset="608.999"/>
	</outline>
</glyph>
<glyph name="Tbar" format="2">
	<advance width="1250" height="0"/>
	<unicode hex="0166"/>
	<outline>
		<contour>
			<point x="208" y="730" type="curve" smooth="yes"/>
			<point x="1026" y="730" type="line" smooth="yes"/>
			<point x="1067" y="730"/>
			<point x="1072" y="723"/>
			<point x="1072" y="691" type="curve" smooth="yes"/>
			<point x="1072" y="541" type="line" smooth="yes"/>
			<point x="1072" y="506"/>
			<point x="1071" y="500"/>
			<point x="1024" y="500" type="curve" smooth="yes"/>
			<point x="218" y="500" type="line" smooth="yes"/>
			<point x="170" y="500"/>
			<point x="162" y="505"/>
			<point x="162" y="540" type="curve" smooth="yes"/>
			<point x="162" y="689" type="line" smooth="yes"/>
			<point x="162" y="721"/>
			<point x="165" y="730"/>
		</contour>
		<component base="T"/>
	</outline>
</glyph>
<glyph name="tbar" format="2">
	<advance width="717" height="2309"/>
	<unicode hex="0167"/>
	<outline>
		<contour>
			<point x="49" y="657" type="curve" smooth="yes"/>
			<point x="670" y="657" type="line" smooth="yes"/>
			<point x="709" y="657"/>
			<point x="713" y="650"/>
			<point x="713" y="618" type="curve" smooth="yes"/>
			<point x="713" y="468" type="line" smooth="yes"/>
			<point x="713" y="433"/>
			<point x="712" y="427"/>
			<point x="668" y="427" type="curve" smooth="yes"/>
			<point x="59" y="427" type="line" smooth="yes"/>
			<point x="14" y="427"/>
			<point x="6" y="432"/>
			<point x="6" y="467" type="curve" smooth="yes"/>
			<point x="6" y="616" type="line" smooth="yes"/>
			<point x="6" y="648"/>
			<point x="9" y="657"/>
		</contour>
		<component base="t"/>
	</outline>
</glyph>
<glyph name="brevecomb" format="2">
	<advance width="0" height="0"/>
	<unicode hex="0306"/>
	<anchor x="499" y="1500" name="_Anchor-0"/>
	<outline>
		<contour>
			<point x="499" y="1580" type="curve" smooth="yes"/>
			<point x="297" y="1580"/>
			<point x="224" y="1705"/>
			<point x="221" y="1919" type="curve" smooth="yes"/>
			<point x="221" y="1936"/>
			<point x="227" y="1938"/>
			<point x="244" y="1938" type="curve" smooth="yes"/>
			<point x="363" y="1938" type="line" smooth="yes"/>
			<point x="377" y="1938"/>
			<point x="379" y="1935"/>
			<point x="381" y="1922" type="curve" smooth="yes"/>
			<point x="388" y="1882"/>
			<point x="402" y="1840"/>
			<point x="499" y="1840" type="curve" smooth="yes"/>
			<point x="591" y="1840"/>
			<point x="606" y="1878"/>
			<point x="618" y="1909" type="curve" smooth="yes"/>
			<point x="625" y="1927"/>
			<point x="624" y="1938"/>
			<point x="648" y="1938" type="curve" smooth="yes"/>
			<point x="760" y="1938" type="line" smooth="yes"/>
			<point x="781" y="1938"/>
			<point x="781" y="1934"/>
			<point x="780" y="1914" type="curve" smooth="yes"/>
			<point x="775" y="1704"/>
			<point x="698" y="1580"/>
		</contour>
	</outline>
</glyph>
<glyph name="dotbelowcomb" format="2">
	<advance width="0" height="0"/>
	<unicode hex="0323"/>
	<anchor x="500" y="0" name="_Anchor-1"/>
	<anchor x="500" y="0" name="_Anchor-2"/>
	<outline>
		<contour>
			<point x="501" y="-553" type="curve" smooth="yes"/>
			<point x="395" y="-553"/>
			<point x="309" y="-467"/>
			<point x="309" y="-361" type="curve" smooth="yes"/>
			<point x="309" y="-255"/>
			<point x="395" y="-169"/>
			<point x="501" y="-169" type="curve" smooth="yes"/>
			<point x="607" y="-169"/>
			<point x="693" y="-255"/>
			<point x="693" y="-361" type="curve" smooth="yes"/>
			<point x="693" y="-467"/>
			<point x="607" y="-553"/>
		</contour>
	</outline>
</glyph>
<glyph name="commaaccentcomb" format="2">
	<advance width="0" height="0"/>
	<unicode hex="0326"/>
	<anchor x="496" y="0" name="_Anchor-1"/>
	<anchor x="496" y="0" name="_Anchor-2"/>
	<outline>
		<contour>
			<point x="280" y="-351" type="curve" smooth="yes"/>
			<point x="280" y="-234"/>
			<point x="382" y="-160"/>
			<point x="491" y="-160" type="curve" smooth="yes"/>
			<point x="625" y="-160"/>
			<point x="715" y="-249"/>
			<point x="715" y="-422" type="curve" smooth="yes"/>
			<point x="715" y="-646"/>
			<point x="486" y="-801"/>
			<point x="339" y="-820" type="curve" smooth="yes"/>
			<point x="316" y="-823"/>
			<point x="309" y="-820"/>
			<point x="309" y="-794" type="curve" smooth="yes"/>
			<point x="309" y="-699" type="line" smooth="yes"/>
			<point x="309" y="-683"/>
			<point x="315" y="-680"/>
			<point x="329" y="-678" type="curve" smooth="yes"/>
			<point x="425" y="-668"/>
			<point x="522" y="-590"/>
			<point x="555" y="-535" type="curve" smooth="yes"/>
			<point x="559" y="-529"/>
			<point x="553" y="-523"/>
			<point x="543" y="-527" type="curve" smooth="yes"/>
			<point x="525" y="-535"/>
			<point x="496" y="-541"/>
			<point x="461" y="-541" type="curve" smooth="yes"/>
			<point x="352" y="-541"/>
			<point x="280" y="-468"/>
		</contour>
	</outline>
</glyph>
<glyph name="Omega" format="2">
	<advance width="1719" height="0"/>
	<unicode hex="03A9"/>
	<outline>
		<contour>
			<point x="1431" y="400" type="curve"/>
			<point x="1644" y="400" type="line"/>
			<point x="1644" y="0" type="line"/>
			<point x="945" y="0" type="line"/>
			<point x="945" y="506" type="line"/>
			<point x="1113" y="576"/>
			<point x="1165" y="687"/>
			<point x="1165" y="900" type="curve" smooth="yes"/>
			<point x="1165" y="1163"/>
			<point x="1052" y="1313"/>
			<point x="854" y="1313" type="curve" smooth="yes"/>
			<point x="656" y="1313"/>
			<point x="544" y="1163"/>
			<point x="544" y="900" type="curve" smooth="yes"/>
			<point x="544" y="687"/>
			<point x="595" y="567"/>
			<point x="763" y="497" type="curve"/>
			<point x="763" y="0" type="line"/>
			<point x="75" y="0" type="line"/>
			<point x="75" y="400" type="line"/>
			<point x="278" y="400" type="line"/>
			<point x="278" y="306"/>
			<point x="315" y="163"/>
			<point x="418" y="163" type="curve" smooth="yes"/>
			<point x="554" y="163" type="line"/>
			<point x="554" y="337" type="line"/>
			<point x="361" y="424"/>
			<point x="115" y="626"/>
			<point x="115" y="900" type="curve" smooth="yes"/>
			<point x="115" y="1326"/>
			<point x="407" y="1520"/>
			<point x="854" y="1520" type="curve" smooth="yes"/>
			<point x="1301" y="1520"/>
			<point x="1594" y="1326"/>
			<point x="1594" y="900" type="curve" smooth="yes"/>
			<point x="1594" y="626"/>
			<point x="1348" y="430"/>
			<point x="1155" y="345" type="curve"/>
			<point x="1155" y="163" type="line"/>
			<point x="1291" y="163" type="line" smooth="yes"/>
			<point x="1394" y="163"/>
			<point x="1431" y="306"/>
		</contour>
	</outline>
</glyph>
<glyph name="Dje-cy" format="2">
	<advance width="1790" height="0"/>
	<unicode hex="0402"/>
	<anchor x="580" y="1500" name="Anchor-0"/>
	<anchor x="581" y="0" name="Anchor-1"/>
	<anchor x="581" y="0" name="Anchor-2"/>
	<outline>
		<contour>
			<point x="269" y="41" type="curve" smooth="yes"/>
			<point x="269" y="235" type="line" smooth="yes"/>
			<point x="269" y="267"/>
			<point x="281" y="270"/>
			<point x="311" y="270" type="curve" smooth="yes"/>
			<point x="355" y="270" type="line" smooth="yes"/>
			<point x="403" y="270"/>
			<point x="409" y="275"/>
			<point x="409" y="325" type="curve" smooth="yes"/>
			<point x="409" y="1195" type="line" smooth="yes"/>
			<point x="409" y="1233"/>
			<point x="404" y="1240"/>
			<point x="367" y="1240" type="curve" smooth="yes"/>
			<point x="365" y="1240" type="line" smooth="yes"/>
			<point x="313" y="1240"/>
			<point x="276" y="1162"/>
			<point x="270" y="981" type="curve" smooth="yes"/>
			<point x="269" y="950"/>
			<point x="266" y="940"/>
			<point x="232" y="940" type="curve" smooth="yes"/>
			<point x="64" y="940" type="line" smooth="yes"/>
			<point x="30" y="940"/>
			<point x="30" y="961"/>
			<point x="30" y="991" type="curve" smooth="yes"/>
			<point x="30" y="1447" type="line" smooth="yes"/>
			<point x="30" y="1493"/>
			<point x="33" y="1500"/>
			<point x="78" y="1500" type="curve" smooth="yes"/>
			<point x="1177" y="1500" type="line" smooth="yes"/>
			<point x="1216" y="1500"/>
			<point x="1219" y="1493"/>
			<point x="1219" y="1453" type="curve" smooth="yes"/>
			<point x="1219" y="971" type="line" smooth="yes"/>
			<point x="1219" y="942"/>
			<point x="1211" y="940"/>
			<point x="1181" y="940" type="curve" smooth="yes"/>
			<point x="1017" y="940" type="line" smooth="yes"/>
			<point x="980" y="940"/>
			<point x="979" y="955"/>
			<point x="978" y="987" type="curve" smooth="yes"/>
			<point x="971" y="1164"/>
			<point x="945" y="1240"/>
			<point x="895" y="1240" type="curve" smooth="yes"/>
			<point x="879" y="1240" type="line" smooth="yes"/>
			<point x="844" y="1240"/>
			<point x="841" y="1233"/>
			<point x="841" y="1197" type="curve" smooth="yes"/>
			<point x="841" y="788" type="line" smooth="yes"/>
			<point x="841" y="742"/>
			<point x="845" y="746"/>
			<point x="872" y="764" type="curve" smooth="yes"/>
			<point x="989" y="842"/>
			<point x="1123" y="891"/>
			<point x="1266" y="891" type="curve" smooth="yes"/>
			<point x="1588" y="891"/>
			<point x="1760" y="738"/>
			<point x="1760" y="438" type="curve" smooth="yes"/>
			<point x="1760" y="138"/>
			<point x="1554" y="-19"/>
			<point x="1282" y="-19" type="curve" smooth="yes"/>
			<point x="1068" y="-19"/>
			<point x="870" y="105"/>
			<point x="870" y="319" type="curve" smooth="yes"/>
			<point x="870" y="455"/>
			<point x="980" y="561"/>
			<point x="1088" y="561" type="curve" smooth="yes"/>
			<point x="1212" y="561"/>
			<point x="1292" y="499"/>
			<point x="1292" y="395" type="curve" smooth="yes"/>
			<point x="1292" y="283"/>
			<point x="1208" y="233"/>
			<point x="1208" y="207" type="curve" smooth="yes"/>
			<point x="1208" y="183"/>
			<point x="1224" y="155"/>
			<point x="1262" y="155" type="curve" smooth="yes"/>
			<point x="1300" y="155"/>
			<point x="1318" y="213"/>
			<point x="1318" y="401" type="curve" smooth="yes"/>
			<point x="1318" y="669"/>
			<point x="1290" y="705"/>
			<point x="1182" y="705" type="curve" smooth="yes"/>
			<point x="1113" y="705"/>
			<point x="1002" y="671"/>
			<point x="876" y="576" type="curve" smooth="yes"/>
			<point x="852" y="558"/>
			<point x="841" y="549"/>
			<point x="841" y="504" type="curve" smooth="yes"/>
			<point x="841" y="42" type="line" smooth="yes"/>
			<point x="841" y="2"/>
			<point x="819" y="0"/>
			<point x="783" y="0" type="curve" smooth="yes"/>
			<point x="315" y="0" type="line" smooth="yes"/>
			<point x="276" y="0"/>
			<point x="269" y="3"/>
		</contour>
	</outline>
</glyph>
<glyph name="E-cy" format="2">
	<advance width="1208" height="0"/>
	<unicode hex="0404"/>
	<anchor x="586.398" y="1500" name="Anchor-0"/>
	<anchor x="677.398" y="0" name="Anchor-1"/>
	<anchor x="677.398" y="0" name="Anchor-2"/>
	<outline>
		<contour>
			<point x="30.398" y="750" type="curve" smooth="yes"/>
			<point x="30.398" y="1196"/>
			<point x="184.398" y="1540"/>
			<point x="580.398" y="1540" type="curve" smooth="yes"/>
			<point x="720.398" y="1540"/>
			<point x="781.398" y="1497"/>
			<point x="826.398" y="1431" type="curve" smooth="yes"/>
			<point x="855.354" y="1388.531"/>
			<point x="855.398" y="1401"/>
			<point x="889.398" y="1444" type="curve" smooth="yes"/>
			<point x="922.398" y="1488" type="line" smooth="yes"/>
			<point x="937.398" y="1507"/>
			<point x="943.398" y="1510"/>
			<point x="980.398" y="1510" type="curve" smooth="yes"/>
			<point x="1120.398" y="1510" type="line" smooth="yes"/>
			<point x="1169.398" y="1510"/>
			<point x="1170.398" y="1501"/>
			<point x="1170.398" y="1452" type="curve" smooth="yes"/>
			<point x="1170.398" y="974" type="line" smooth="yes"/>
			<point x="1170.398" y="936"/>
			<point x="1165.398" y="930"/>
			<point x="1125.398" y="930" type="curve" smooth="yes"/>
			<point x="912.398" y="930" type="line" smooth="yes"/>
			<point x="864.398" y="930"/>
			<point x="858.398" y="941"/>
			<point x="849.398" y="977" type="curve" smooth="yes"/>
			<point x="804.398" y="1157"/>
			<point x="810.398" y="1284"/>
			<point x="700.398" y="1284" type="curve" smooth="yes"/>
			<point x="614.398" y="1284"/>
			<point x="585.398" y="1177"/>
			<point x="565.398" y="978" type="curve" smooth="yes"/>
			<point x="559.311" y="917.428"/>
			<point x="540.398" y="870"/>
			<point x="626.398" y="870" type="curve" smooth="yes"/>
			<point x="728.398" y="870" type="line" smooth="yes"/>
			<point x="774.398" y="870"/>
			<point x="785.398" y="858"/>
			<point x="785.398" y="815" type="curve" smooth="yes"/>
			<point x="785.398" y="655" type="line" smooth="yes"/>
			<point x="785.398" y="607"/>
			<point x="775.398" y="600"/>
			<point x="729.398" y="600" type="curve" smooth="yes"/>
			<point x="634.398" y="600" type="line" smooth="yes"/>
			<point x="554.398" y="600"/>
			<point x="545.516" y="593.226"/>
			<point x="555.398" y="528" type="curve" smooth="yes"/>
			<point x="585.398" y="330"/>
			<point x="598.398" y="228"/>
			<point x="720.398" y="228" type="curve" smooth="yes"/>
			<point x="806.398" y="228"/>
			<point x="850.398" y="338"/>
			<point x="890.398" y="522" type="curve" smooth="yes"/>
			<point x="902.398" y="577"/>
			<point x="909.398" y="590"/>
			<point x="958.398" y="590" type="curve" smooth="yes"/>
			<point x="1154.398" y="590" type="line" smooth="yes"/>
			<point x="1207.398" y="590"/>
			<point x="1211.398" y="579"/>
			<point x="1206.398" y="542" type="curve" smooth="yes"/>
			<point x="1164.398" y="202"/>
			<point x="1025.398" y="-40"/>
			<point x="680.398" y="-40" type="curve" smooth="yes"/>
			<point x="194.398" y="-40"/>
			<point x="30.398" y="264"/>
		</contour>
	</outline>
</glyph>
<glyph name="Tshe-cy" format="2">
	<advance width="1645" height="0"/>
	<unicode hex="040B"/>
	<outline>
		<contour>
			<point x="269" y="41" type="curve" smooth="yes"/>
			<point x="269" y="235" type="line" smooth="yes"/>
			<point x="269" y="267"/>
			<point x="281" y="270"/>
			<point x="311" y="270" type="curve" smooth="yes"/>
			<point x="355" y="270" type="line" smooth="yes"/>
			<point x="403" y="270"/>
			<point x="409" y="275"/>
			<point x="409" y="325" type="curve" smooth="yes"/>
			<point x="409" y="1195" type="line" smooth="yes"/>
			<point x="409" y="1233"/>
			<point x="412" y="1240"/>
			<point x="385" y="1240" type="curve" smooth="yes"/>
			<point x="375" y="1240" type="line" smooth="yes"/>
			<point x="323" y="1240"/>
			<point x="276" y="1172"/>
			<point x="270" y="981" type="curve" smooth="yes"/>
			<point x="269" y="950"/>
			<point x="266" y="940"/>
			<point x="232" y="940" type="curve" smooth="yes"/>
			<point x="64" y="940" type="line" smooth="yes"/>
			<point x="30" y="940"/>
			<point x="30" y="961"/>
			<point x="30" y="991" type="curve" smooth="yes"/>
			<point x="30" y="1447" type="line" smooth="yes"/>
			<point x="30" y="1493"/>
			<point x="33" y="1500"/>
			<point x="78" y="1500" type="curve" smooth="yes"/>
			<point x="1178" y="1500" type="line" smooth="yes"/>
			<point x="1217" y="1500"/>
			<point x="1220" y="1493"/>
			<point x="1220" y="1453" type="curve" smooth="yes"/>
			<point x="1220" y="971" type="line" smooth="yes"/>
			<point x="1220" y="942"/>
			<point x="1212" y="940"/>
			<point x="1182" y="940" type="curve" smooth="yes"/>
			<point x="1013" y="940" type="line" smooth="yes"/>
			<point x="976" y="940"/>
			<point x="975" y="955"/>
			<point x="974" y="987" type="curve" smooth="yes"/>
			<point x="967" y="1184"/>
			<point x="945" y="1240"/>
			<point x="885" y="1240" type="curve" smooth="yes"/>
			<point x="879" y="1240" type="line" smooth="yes"/>
			<point x="844" y="1240"/>
			<point x="841" y="1233"/>
			<point x="841" y="1197" type="curve" smooth="yes"/>
			<point x="841" y="913" type="line" smooth="yes"/>
			<point x="841" y="837"/>
			<point x="839.405" y="824.44"/>
			<point x="884" y="850" type="curve" smooth="yes"/>
			<point x="966" y="897"/>
			<point x="1076" y="926"/>
			<point x="1185" y="926" type="curve" smooth="yes"/>
			<point x="1511" y="926"/>
			<point x="1555" y="782"/>
			<point x="1555" y="436" type="curve" smooth="yes"/>
			<point x="1555" y="309" type="line" smooth="yes"/>
			<point x="1555" y="277"/>
			<point x="1564" y="270"/>
			<point x="1594" y="270" type="curve" smooth="yes"/>
			<point x="1600" y="270" type="line" smooth="yes"/>
			<point x="1634" y="270"/>
			<point x="1635" y="259"/>
			<point x="1635" y="224" type="curve" smooth="yes"/>
			<point x="1635" y="38" type="line" smooth="yes"/>
			<point x="1635" y="6"/>
			<point x="1625" y="0"/>
			<point x="1595" y="0" type="curve" smooth="yes"/>
			<point x="1065" y="0" type="line" smooth="yes"/>
			<point x="1038" y="0"/>
			<point x="1025" y="3"/>
			<point x="1025" y="32" type="curve" smooth="yes"/>
			<point x="1025" y="232" type="line" smooth="yes"/>
			<point x="1025" y="264"/>
			<point x="1031" y="270"/>
			<point x="1062" y="270" type="curve" smooth="yes"/>
			<point x="1076" y="270" type="line" smooth="yes"/>
			<point x="1110" y="270"/>
			<point x="1115" y="277"/>
			<point x="1115" y="313" type="curve" smooth="yes"/>
			<point x="1115" y="386" type="line" smooth="yes"/>
			<point x="1115" y="550"/>
			<point x="1103" y="616"/>
			<point x="1035" y="616" type="curve" smooth="yes"/>
			<point x="980" y="616"/>
			<point x="940" y="601"/>
			<point x="887" y="564" type="curve" smooth="yes"/>
			<point x="856.65" y="542.812"/>
			<point x="841" y="516"/>
			<point x="841" y="462" type="curve" smooth="yes"/>
			<point x="841" y="327" type="line" smooth="yes"/>
			<point x="841" y="276"/>
			<point x="846" y="270"/>
			<point x="895" y="270" type="curve" smooth="yes"/>
			<point x="939" y="270" type="line" smooth="yes"/>
			<point x="979" y="270"/>
			<point x="981" y="262"/>
			<point x="981" y="221" type="curve" smooth="yes"/>
			<point x="981" y="42" type="line" smooth="yes"/>
			<point x="981" y="2"/>
			<point x="959" y="0"/>
			<point x="923" y="0" type="curve" smooth="yes"/>
			<point x="315" y="0" type="line" smooth="yes"/>
			<point x="276" y="0"/>
			<point x="269" y="3"/>
		</contour>
	</outline>
</glyph>
<glyph name="Dzhe-cy" format="2">
	<advance width="1440" height="0"/>
	<unicode hex="040F"/>
	<anchor x="716" y="1500" name="Anchor-0"/>
	<anchor x="716" y="0" name="Anchor-1"/>
	<anchor x="716" y="0" name="Anchor-2"/>
	<outline>
		<contour>
			<point x="600" y="332" type="line" smooth="yes"/>
			<point x="600" y="290"/>
			<point x="601" y="270"/>
			<point x="643" y="270" type="curve" smooth="yes"/>
			<point x="801" y="270" type="line" smooth="yes"/>
			<point x="835" y="270"/>
			<point x="840" y="287"/>
			<point x="840" y="323" type="curve" smooth="yes"/>
			<point x="840" y="1180" type="line" smooth="yes"/>
			<point x="840" y="1211"/>
			<point x="835" y="1230"/>
			<point x="802" y="1230" type="curve" smooth="yes"/>
			<point x="773" y="1230" type="line" smooth="yes"/>
			<point x="746" y="1230"/>
			<point x="740" y="1240"/>
			<point x="740" y="1269" type="curve" smooth="yes"/>
			<point x="740" y="1445" type="line" smooth="yes"/>
			<point x="740" y="1490"/>
			<point x="746" y="1500"/>
			<point x="790" y="1500" type="curve" smooth="yes"/>
			<point x="1390" y="1500" type="line" smooth="yes"/>
			<point x="1423" y="1500"/>
			<point x="1430" y="1490"/>
			<point x="1430" y="1455" type="curve" smooth="yes"/>
			<point x="1430" y="1277" type="line" smooth="yes"/>
			<point x="1430" y="1241"/>
			<point x="1424" y="1230"/>
			<point x="1389" y="1230" type="curve" smooth="yes"/>
			<point x="1351" y="1230" type="line" smooth="yes"/>
			<point x="1319" y="1230"/>
			<point x="1310" y="1218"/>
			<point x="1310" y="1186" type="curve" smooth="yes"/>
			<point x="1310" y="309" type="line" smooth="yes"/>
			<point x="1310" y="277"/>
			<point x="1319" y="270"/>
			<point x="1349" y="270" type="curve" smooth="yes"/>
			<point x="1395" y="270" type="line" smooth="yes"/>
			<point x="1429" y="270"/>
			<point x="1430" y="249"/>
			<point x="1430" y="214" type="curve" smooth="yes"/>
			<point x="1430" y="48" type="line" smooth="yes"/>
			<point x="1430" y="16"/>
			<point x="1420" y="0"/>
			<point x="1390" y="0" type="curve" smooth="yes"/>
			<point x="1176" y="0" type="line" smooth="yes"/>
			<point x="913" y="0"/>
			<point x="837" y="-93"/>
			<point x="837" y="-379" type="curve" smooth="yes"/>
			<point x="837" y="-408"/>
			<point x="819" y="-410"/>
			<point x="788" y="-410" type="curve" smooth="yes"/>
			<point x="644" y="-410" type="line" smooth="yes"/>
			<point x="614" y="-410"/>
			<point x="596" y="-408"/>
			<point x="596" y="-379" type="curve" smooth="yes"/>
			<point x="596" y="-93"/>
			<point x="520" y="0"/>
			<point x="257" y="0" type="curve" smooth="yes"/>
			<point x="50" y="0" type="line" smooth="yes"/>
			<point x="18" y="0"/>
			<point x="10" y="14"/>
			<point x="10" y="48" type="curve" smooth="yes"/>
			<point x="10" y="226" type="line" smooth="yes"/>
			<point x="10" y="254"/>
			<point x="19" y="270"/>
			<point x="49" y="270" type="curve" smooth="yes"/>
			<point x="75" y="270" type="line" smooth="yes"/>
			<point x="119" y="270"/>
			<point x="130" y="272"/>
			<point x="130" y="316" type="curve" smooth="yes"/>
			<point x="130" y="1186" type="line" smooth="yes"/>
			<point x="130" y="1214"/>
			<point x="123" y="1230"/>
			<point x="93" y="1230" type="curve" smooth="yes"/>
			<point x="54" y="1230" type="line" smooth="yes"/>
			<point x="27" y="1230"/>
			<point x="10" y="1238"/>
			<point x="10" y="1267" type="curve" smooth="yes"/>
			<point x="10" y="1451" type="line" smooth="yes"/>
			<point x="10" y="1493"/>
			<point x="26" y="1500"/>
			<point x="65" y="1500" type="curve" smooth="yes"/>
			<point x="660" y="1500" type="line" smooth="yes"/>
			<point x="696" y="1500"/>
			<point x="700" y="1488"/>
			<point x="700" y="1451" type="curve" smooth="yes"/>
			<point x="700" y="1271" type="line" smooth="yes"/>
			<point x="700" y="1243"/>
			<point x="698" y="1230"/>
			<point x="671" y="1230" type="curve" smooth="yes"/>
			<point x="642" y="1230" type="line" smooth="yes"/>
			<point x="603" y="1230"/>
			<point x="600" y="1207"/>
			<point x="600" y="1170" type="curve" smooth="yes"/>
		</contour>
	</outline>
</glyph>
<glyph name="Zhe-cy" format="2">
	<advance width="2106" height="0"/>
	<unicode hex="0416"/>
	<outline>
		<contour>
			<point x="2076" y="283" type="curve" smooth="yes"/>
			<point x="2034" y="92"/>
			<point x="1942" y="-40"/>
			<point x="1738" y="-40" type="curve" smooth="yes"/>
			<point x="1242" y="-40"/>
			<point x="1571" y="620"/>
			<point x="1338" y="620" type="curve" smooth="yes"/>
			<point x="1314" y="620" type="line" smooth="yes"/>
			<point x="1290" y="620"/>
			<point x="1288" y="612"/>
			<point x="1288" y="568" type="curve" smooth="yes"/>
			<point x="1288" y="304" type="line" smooth="yes"/>
			<point x="1288" y="273"/>
			<point x="1296" y="270"/>
			<point x="1328" y="270" type="curve" smooth="yes"/>
			<point x="1377" y="270" type="line" smooth="yes"/>
			<point x="1405" y="270"/>
			<point x="1408" y="253"/>
			<point x="1408" y="224" type="curve" smooth="yes"/>
			<point x="1408" y="39" type="line" smooth="yes"/>
			<point x="1408" y="14"/>
			<point x="1401" y="0"/>
			<point x="1375" y="0" type="curve" smooth="yes"/>
			<point x="761" y="0" type="line" smooth="yes"/>
			<point x="735" y="0"/>
			<point x="728" y="14"/>
			<point x="728" y="39" type="curve" smooth="yes"/>
			<point x="728" y="224" type="line" smooth="yes"/>
			<point x="728" y="253"/>
			<point x="731" y="270"/>
			<point x="759" y="270" type="curve" smooth="yes"/>
			<point x="778" y="270" type="line" smooth="yes"/>
			<point x="810" y="270"/>
			<point x="818" y="273"/>
			<point x="818" y="304" type="curve" smooth="yes"/>
			<point x="818" y="568" type="line" smooth="yes"/>
			<point x="818" y="612"/>
			<point x="816" y="620"/>
			<point x="792" y="620" type="curve" smooth="yes"/>
			<point x="768" y="620" type="line" smooth="yes"/>
			<point x="535" y="620"/>
			<point x="864" y="-40"/>
			<point x="368" y="-40" type="curve" smooth="yes"/>
			<point x="164" y="-40"/>
			<point x="72" y="92"/>
			<point x="30" y="283" type="curve" smooth="yes"/>
			<point x="26.128" y="300.607"/>
			<point x="6.797" y="340.524"/>
			<point x="50" y="356" type="curve" smooth="yes"/>
			<point x="117" y="380" type="line" smooth="yes"/>
			<point x="133.919" y="386.061"/>
			<point x="153.8" y="384.015"/>
			<point x="160" y="365" type="curve" smooth="yes"/>
			<point x="175" y="319"/>
			<point x="180" y="307"/>
			<point x="206" y="307" type="curve" smooth="yes"/>
			<point x="316" y="307"/>
			<point x="117.901" y="624.462"/>
			<point x="355" y="758" type="curve" smooth="yes"/>
			<point x="442" y="807"/>
			<point x="565.922" y="774.354"/>
			<point x="552" y="842" type="curve" smooth="yes"/>
			<point x="542.214" y="889.553"/>
			<point x="531.764" y="912.555"/>
			<point x="505" y="1142" type="curve" smooth="yes"/>
			<point x="492.87" y="1245.991"/>
			<point x="481" y="1284"/>
			<point x="443" y="1284" type="curve" smooth="yes"/>
			<point x="426" y="1284"/>
			<point x="417" y="1273"/>
			<point x="417" y="1260" type="curve" smooth="yes"/>
			<point x="417" y="1220"/>
			<point x="479" y="1196"/>
			<point x="479" y="1066" type="curve" smooth="yes"/>
			<point x="479" y="930"/>
			<point x="383" y="855"/>
			<point x="243" y="855" type="curve" smooth="yes"/>
			<point x="83" y="855"/>
			<point x="0" y="971"/>
			<point x="0" y="1167" type="curve" smooth="yes"/>
			<point x="0" y="1331"/>
			<point x="119" y="1534"/>
			<point x="361" y="1534" type="curve" smooth="yes"/>
			<point x="591" y="1534"/>
			<point x="689" y="1428"/>
			<point x="725" y="1192" type="curve" smooth="yes"/>
			<point x="754" y="1000"/>
			<point x="730" y="880"/>
			<point x="803" y="880" type="curve" smooth="yes"/>
			<point x="806" y="880" type="line" smooth="yes"/>
			<point x="817" y="880"/>
			<point x="818" y="887"/>
			<point x="818" y="928" type="curve" smooth="yes"/>
			<point x="818" y="1183" type="line" smooth="yes"/>
			<point x="818" y="1230"/>
			<point x="818" y="1230"/>
			<point x="771" y="1230" type="curve" smooth="yes"/>
			<point x="767" y="1230" type="line" smooth="yes"/>
			<point x="742" y="1230"/>
			<point x="738" y="1237"/>
			<point x="738" y="1272" type="curve" smooth="yes"/>
			<point x="738" y="1466" type="line" smooth="yes"/>
			<point x="738" y="1497"/>
			<point x="744" y="1500"/>
			<point x="774" y="1500" type="curve" smooth="yes"/>
			<point x="1332" y="1500" type="line" smooth="yes"/>
			<point x="1362" y="1500"/>
			<point x="1368" y="1497"/>
			<point x="1368" y="1466" type="curve" smooth="yes"/>
			<point x="1368" y="1272" type="line" smooth="yes"/>
			<point x="1368" y="1237"/>
			<point x="1351" y="1230"/>
			<point x="1326" y="1230" type="curve" smooth="yes"/>
			<point x="1320" y="1230" type="line" smooth="yes"/>
			<point x="1293" y="1230"/>
			<point x="1288" y="1230"/>
			<point x="1288" y="1182" type="curve" smooth="yes"/>
			<point x="1288" y="928" type="line" smooth="yes"/>
			<point x="1288" y="887"/>
			<point x="1290" y="880"/>
			<point x="1300" y="880" type="curve" smooth="yes"/>
			<point x="1303" y="880" type="line" smooth="yes"/>
			<point x="1376" y="880"/>
			<point x="1352" y="1000"/>
			<point x="1381" y="1192" type="curve" smooth="yes"/>
			<point x="1417" y="1428"/>
			<point x="1515" y="1534"/>
			<point x="1745" y="1534" type="curve" smooth="yes"/>
			<point x="1987" y="1534"/>
			<point x="2106" y="1331"/>
			<point x="2106" y="1167" type="curve" smooth="yes"/>
			<point x="2106" y="971"/>
			<point x="2023" y="855"/>
			<point x="1863" y="855" type="curve" smooth="yes"/>
			<point x="1723" y="855"/>
			<point x="1627" y="930"/>
			<point x="1627" y="1066" type="curve" smooth="yes"/>
			<point x="1627" y="1196"/>
			<point x="1689" y="1220"/>
			<point x="1689" y="1260" type="curve" smooth="yes"/>
			<point x="1689" y="1273"/>
			<point x="1680" y="1284"/>
			<point x="1663" y="1284" type="curve" smooth="yes"/>
			<point x="1625" y="1284"/>
			<point x="1613.13" y="1245.991"/>
			<point x="1601" y="1142" type="curve" smooth="yes"/>
			<point x="1574.236" y="912.555"/>
			<point x="1563.786" y="889.553"/>
			<point x="1554" y="842" type="curve" smooth="yes"/>
			<point x="1540.078" y="774.354"/>
			<point x="1664" y="807"/>
			<point x="1751" y="758" type="curve" smooth="yes"/>
			<point x="1988.099" y="624.462"/>
			<point x="1790" y="307"/>
			<point x="1900" y="307" type="curve" smooth="yes"/>
			<point x="1926" y="307"/>
			<point x="1931" y="319"/>
			<point x="1946" y="365" type="curve" smooth="yes"/>
			<point x="1952.2" y="384.015"/>
			<point x="1972.081" y="386.061"/>
			<point x="1989" y="380" type="curve" smooth="yes"/>
			<point x="2056" y="356" type="line" smooth="yes"/>
			<point x="2099.203" y="340.524"/>
			<point x="2079.872" y="300.607"/>
		</contour>
	</outline>
</glyph>
<glyph name="El-cy" format="2">
	<advance width="1560" height="0"/>
	<unicode hex="041B"/>
	<outline>
		<contour>
			<point x="0" y="330" type="curve" smooth="yes"/>
			<point x="0" y="514"/>
			<point x="88" y="600"/>
			<point x="218" y="600" type="curve" smooth="yes"/>
			<point x="352" y="600"/>
			<point x="436" y="528"/>
			<point x="436" y="412" type="curve" smooth="yes"/>
			<point x="436" y="262"/>
			<point x="360" y="244"/>
			<point x="360" y="218" type="curve" smooth="yes"/>
			<point x="360" y="194"/>
			<point x="368" y="190"/>
			<point x="392" y="190" type="curve" smooth="yes"/>
			<point x="515" y="190"/>
			<point x="512" y="869"/>
			<point x="512" y="1172" type="curve" smooth="yes"/>
			<point x="512" y="1228"/>
			<point x="499" y="1230"/>
			<point x="443" y="1230" type="curve" smooth="yes"/>
			<point x="350" y="1230" type="line" smooth="yes"/>
			<point x="306" y="1230"/>
			<point x="292" y="1231"/>
			<point x="292" y="1278" type="curve" smooth="yes"/>
			<point x="292" y="1442" type="line" smooth="yes"/>
			<point x="292" y="1491"/>
			<point x="293" y="1500"/>
			<point x="342" y="1500" type="curve" smooth="yes"/>
			<point x="1504" y="1500" type="line" smooth="yes"/>
			<point x="1550" y="1500"/>
			<point x="1550" y="1490"/>
			<point x="1550" y="1444" type="curve" smooth="yes"/>
			<point x="1550" y="1280" type="line" smooth="yes"/>
			<point x="1550" y="1238"/>
			<point x="1548" y="1230"/>
			<point x="1506" y="1230" type="curve" smooth="yes"/>
			<point x="1462" y="1230" type="line" smooth="yes"/>
			<point x="1417" y="1230"/>
			<point x="1410" y="1226"/>
			<point x="1410" y="1182" type="curve" smooth="yes"/>
			<point x="1410" y="308" type="line" smooth="yes"/>
			<point x="1410" y="274"/>
			<point x="1418" y="270"/>
			<point x="1450" y="270" type="curve" smooth="yes"/>
			<point x="1502" y="270" type="line" smooth="yes"/>
			<point x="1535" y="270"/>
			<point x="1550" y="269"/>
			<point x="1550" y="236" type="curve" smooth="yes"/>
			<point x="1550" y="50" type="line" smooth="yes"/>
			<point x="1550" y="5"/>
			<point x="1544" y="0"/>
			<point x="1500" y="0" type="curve" smooth="yes"/>
			<point x="876" y="0" type="line" smooth="yes"/>
			<point x="831" y="0"/>
			<point x="820" y="4"/>
			<point x="820" y="52" type="curve" smooth="yes"/>
			<point x="820" y="222" type="line" smooth="yes"/>
			<point x="820" y="268"/>
			<point x="828" y="270"/>
			<point x="874" y="270" type="curve" smooth="yes"/>
			<point x="884" y="270" type="line" smooth="yes"/>
			<point x="931" y="270"/>
			<point x="940" y="271"/>
			<point x="940" y="318" type="curve" smooth="yes"/>
			<point x="940" y="1166" type="line" smooth="yes"/>
			<point x="940" y="1220"/>
			<point x="938" y="1230"/>
			<point x="882" y="1230" type="curve" smooth="yes"/>
			<point x="840" y="1230" type="line" smooth="yes"/>
			<point x="805" y="1230"/>
			<point x="802" y="1217"/>
			<point x="802" y="1181" type="curve" smooth="yes"/>
			<point x="802" y="304"/>
			<point x="751" y="-40"/>
			<point x="372" y="-40" type="curve" smooth="yes"/>
			<point x="128" y="-40"/>
			<point x="0" y="110"/>
		</contour>
	</outline>
</glyph>
<glyph name="U-cy" format="2">
	<advance width="1391" height="0"/>
	<unicode hex="0423"/>
	<anchor x="682" y="1500" name="Anchor-0"/>
	<anchor x="712" y="0" name="Anchor-1"/>
	<anchor x="712" y="0" name="Anchor-2"/>
	<outline>
		<contour>
			<point x="5" y="358" type="curve" smooth="yes"/>
			<point x="5" y="500"/>
			<point x="77" y="614"/>
			<point x="229" y="614" type="curve" smooth="yes"/>
			<point x="339" y="614"/>
			<point x="418" y="547"/>
			<point x="418" y="426" type="curve" smooth="yes"/>
			<point x="418" y="290"/>
			<point x="323" y="298"/>
			<point x="323" y="266" type="curve" smooth="yes"/>
			<point x="323" y="229"/>
			<point x="357" y="200"/>
			<point x="413" y="200" type="curve" smooth="yes"/>
			<point x="488" y="200"/>
			<point x="510" y="249"/>
			<point x="527" y="284" type="curve" smooth="yes"/>
			<point x="545.183" y="321.435"/>
			<point x="537" y="372"/>
			<point x="517" y="411" type="curve" smooth="yes"/>
			<point x="136" y="1178" type="line" smooth="yes"/>
			<point x="114" y="1219"/>
			<point x="117" y="1230"/>
			<point x="77" y="1230" type="curve" smooth="yes"/>
			<point x="38" y="1230" type="line" smooth="yes"/>
			<point x="8" y="1230"/>
			<point x="0" y="1236"/>
			<point x="0" y="1264" type="curve" smooth="yes"/>
			<point x="0" y="1470" type="line" smooth="yes"/>
			<point x="0" y="1488"/>
			<point x="18" y="1500"/>
			<point x="37" y="1500" type="curve" smooth="yes"/>
			<point x="695" y="1500" type="line" smooth="yes"/>
			<point x="727" y="1500"/>
			<point x="742" y="1484"/>
			<point x="742" y="1450" type="curve" smooth="yes"/>
			<point x="742" y="1295" type="line" smooth="yes"/>
			<point x="742" y="1255"/>
			<point x="740" y="1230"/>
			<point x="701" y="1230" type="curve" smooth="yes"/>
			<point x="694" y="1230" type="line" smooth="yes"/>
			<point x="672" y="1230"/>
			<point x="659.781" y="1226.365"/>
			<point x="671" y="1200" type="curve" smooth="yes"/>
			<point x="751" y="1012" type="line" smooth="yes"/>
			<point x="789.114" y="922.432"/>
			<point x="795.513" y="949.028"/>
			<point x="821" y="1006" type="curve" smooth="yes"/>
			<point x="906" y="1196" type="line" smooth="yes"/>
			<point x="918.192" y="1223.252"/>
			<point x="900" y="1230"/>
			<point x="867" y="1230" type="curve" smooth="yes"/>
			<point x="864" y="1230" type="line" smooth="yes"/>
			<point x="835" y="1230"/>
			<point x="831" y="1239"/>
			<point x="831" y="1266" type="curve" smooth="yes"/>
			<point x="831" y="1450" type="line" smooth="yes"/>
			<point x="831" y="1485"/>
			<point x="839" y="1500"/>
			<point x="872" y="1500" type="curve" smooth="yes"/>
			<point x="1350" y="1500" type="line" smooth="yes"/>
			<point x="1373" y="1500"/>
			<point x="1391" y="1488"/>
			<point x="1391" y="1466" type="curve" smooth="yes"/>
			<point x="1391" y="1280" type="line" smooth="yes"/>
			<point x="1391" y="1250"/>
			<point x="1385" y="1230"/>
			<point x="1355" y="1230" type="curve" smooth="yes"/>
			<point x="1319" y="1230" type="line" smooth="yes"/>
			<point x="1273" y="1230"/>
			<point x="1262.868" y="1198.587"/>
			<point x="1247" y="1168" type="curve" smooth="yes"/>
			<point x="805" y="316" type="line" smooth="yes"/>
			<point x="675.151" y="65.703"/>
			<point x="599" y="-40"/>
			<point x="393" y="-40" type="curve" smooth="yes"/>
			<point x="149" y="-40"/>
			<point x="5" y="164"/>
		</contour>
	</outline>
</glyph>
<glyph name="Sha-cy" format="2">
	<advance width="2060" height="2080"/>
	<unicode hex="0428"/>
	<anchor x="996" y="1500" name="Anchor-0"/>
	<anchor x="992" y="0" name="Anchor-1"/>
	<anchor x="992" y="0" name="Anchor-2"/>
	<anchor x="992" y="0" name="Anchor-3"/>
	<outline>
		<contour>
			<point x="600" y="1194" type="curve" smooth="yes"/>
			<point x="600" y="314" type="line" smooth="yes"/>
			<point x="600" y="281"/>
			<point x="609" y="270"/>
			<point x="638" y="270" type="curve" smooth="yes"/>
			<point x="747" y="270" type="line" smooth="yes"/>
			<point x="782" y="270"/>
			<point x="785" y="274"/>
			<point x="785" y="320" type="curve" smooth="yes"/>
			<point x="785" y="1196" type="line" smooth="yes"/>
			<point x="785" y="1222"/>
			<point x="784" y="1230"/>
			<point x="761" y="1230" type="curve" smooth="yes"/>
			<point x="759" y="1230" type="line" smooth="yes"/>
			<point x="733" y="1230"/>
			<point x="725" y="1239"/>
			<point x="725" y="1260" type="curve" smooth="yes"/>
			<point x="725" y="1474" type="line" smooth="yes"/>
			<point x="725" y="1500"/>
			<point x="732" y="1500"/>
			<point x="755" y="1500" type="curve" smooth="yes"/>
			<point x="1299" y="1500" type="line" smooth="yes"/>
			<point x="1329" y="1500"/>
			<point x="1335" y="1497"/>
			<point x="1335" y="1466" type="curve" smooth="yes"/>
			<point x="1335" y="1272" type="line" smooth="yes"/>
			<point x="1335" y="1237"/>
			<point x="1320" y="1230"/>
			<point x="1295" y="1230" type="curve" smooth="yes"/>
			<point x="1293" y="1230" type="line" smooth="yes"/>
			<point x="1261" y="1230"/>
			<point x="1255" y="1227"/>
			<point x="1255" y="1194" type="curve" smooth="yes"/>
			<point x="1255" y="314" type="line" smooth="yes"/>
			<point x="1255" y="281"/>
			<point x="1263" y="270"/>
			<point x="1292" y="270" type="curve" smooth="yes"/>
			<point x="1401" y="270" type="line" smooth="yes"/>
			<point x="1436" y="270"/>
			<point x="1440" y="274"/>
			<point x="1440" y="320" type="curve" smooth="yes"/>
			<point x="1440" y="1196" type="line" smooth="yes"/>
			<point x="1440" y="1222"/>
			<point x="1435" y="1230"/>
			<point x="1415" y="1230" type="curve" smooth="yes"/>
			<point x="1409" y="1230" type="line" smooth="yes"/>
			<point x="1383" y="1230"/>
			<point x="1380" y="1239"/>
			<point x="1380" y="1260" type="curve" smooth="yes"/>
			<point x="1380" y="1474" type="line" smooth="yes"/>
			<point x="1380" y="1500"/>
			<point x="1397" y="1500"/>
			<point x="1420" y="1500" type="curve" smooth="yes"/>
			<point x="2014" y="1500" type="line" smooth="yes"/>
			<point x="2044" y="1500"/>
			<point x="2050" y="1497"/>
			<point x="2050" y="1466" type="curve" smooth="yes"/>
			<point x="2050" y="1272" type="line" smooth="yes"/>
			<point x="2050" y="1237"/>
			<point x="2033" y="1230"/>
			<point x="2008" y="1230" type="curve" smooth="yes"/>
			<point x="1948" y="1230" type="line" smooth="yes"/>
			<point x="1916" y="1230"/>
			<point x="1910" y="1227"/>
			<point x="1910" y="1194" type="curve" smooth="yes"/>
			<point x="1910" y="314" type="line" smooth="yes"/>
			<point x="1910" y="281"/>
			<point x="1919" y="270"/>
			<point x="1948" y="270" type="curve" smooth="yes"/>
			<point x="2028" y="270" type="line" smooth="yes"/>
			<point x="2047" y="270"/>
			<point x="2050" y="257"/>
			<point x="2050" y="238" type="curve" smooth="yes"/>
			<point x="2050" y="32" type="line" smooth="yes"/>
			<point x="2050" y="8"/>
			<point x="2038" y="0"/>
			<point x="2010" y="0" type="curve" smooth="yes"/>
			<point x="50" y="0" type="line" smooth="yes"/>
			<point x="22" y="0"/>
			<point x="10" y="7"/>
			<point x="10" y="32" type="curve" smooth="yes"/>
			<point x="10" y="242" type="line" smooth="yes"/>
			<point x="10" y="263"/>
			<point x="18" y="270"/>
			<point x="56" y="270" type="curve" smooth="yes"/>
			<point x="72" y="270" type="line" smooth="yes"/>
			<point x="107" y="270"/>
			<point x="130" y="274"/>
			<point x="130" y="320" type="curve" smooth="yes"/>
			<point x="130" y="1196" type="line" smooth="yes"/>
			<point x="130" y="1222"/>
			<point x="130" y="1230"/>
			<point x="100" y="1230" type="curve" smooth="yes"/>
			<point x="44" y="1230" type="line" smooth="yes"/>
			<point x="18" y="1230"/>
			<point x="10" y="1239"/>
			<point x="10" y="1260" type="curve" smooth="yes"/>
			<point x="10" y="1474" type="line" smooth="yes"/>
			<point x="10" y="1500"/>
			<point x="17" y="1500"/>
			<point x="40" y="1500" type="curve" smooth="yes"/>
			<point x="644" y="1500" type="line" smooth="yes"/>
			<point x="674" y="1500"/>
			<point x="680" y="1497"/>
			<point x="680" y="1466" type="curve" smooth="yes"/>
			<point x="680" y="1272" type="line" smooth="yes"/>
			<point x="680" y="1237"/>
			<point x="665" y="1230"/>
			<point x="640" y="1230" type="curve" smooth="yes"/>
			<point x="638" y="1230" type="line" smooth="yes"/>
			<point x="606" y="1230"/>
			<point x="600" y="1227"/>
		</contour>
	</outline>
</glyph>
<glyph name="Yeru-cy" format="2">
	<advance width="2005" height="0"/>
	<unicode hex="042B"/>
	<outline>
		<contour>
			<point x="1855" y="1178" type="curve" smooth="yes"/>
			<point x="1855" y="314" type="line" smooth="yes"/>
			<point x="1855" y="271"/>
			<point x="1865" y="270"/>
			<point x="1909" y="270" type="curve" smooth="yes"/>
			<point x="1947" y="270" type="line" smooth="yes"/>
			<point x="1980" y="270"/>
			<point x="1995" y="269"/>
			<point x="1995" y="236" type="curve" smooth="yes"/>
			<point x="1995" y="50" type="line" smooth="yes"/>
			<point x="1995" y="5"/>
			<point x="1989" y="0"/>
			<point x="1945" y="0" type="curve" smooth="yes"/>
			<point x="1295" y="0" type="line" smooth="yes"/>
			<point x="1249" y="0"/>
			<point x="1245" y="9"/>
			<point x="1245" y="56" type="curve" smooth="yes"/>
			<point x="1245" y="221" type="line" smooth="yes"/>
			<point x="1245" y="266"/>
			<point x="1258" y="270"/>
			<point x="1300" y="270" type="curve" smooth="yes"/>
			<point x="1338" y="270" type="line" smooth="yes"/>
			<point x="1376" y="270"/>
			<point x="1385" y="276"/>
			<point x="1385" y="317" type="curve" smooth="yes"/>
			<point x="1385" y="1176" type="line" smooth="yes"/>
			<point x="1385" y="1219"/>
			<point x="1383" y="1230"/>
			<point x="1340" y="1230" type="curve" smooth="yes"/>
			<point x="1298" y="1230" type="line" smooth="yes"/>
			<point x="1257" y="1230"/>
			<point x="1245" y="1234"/>
			<point x="1245" y="1278" type="curve" smooth="yes"/>
			<point x="1245" y="1443" type="line" smooth="yes"/>
			<point x="1245" y="1491"/>
			<point x="1247" y="1500"/>
			<point x="1295" y="1500" type="curve" smooth="yes"/>
			<point x="1941" y="1500" type="line" smooth="yes"/>
			<point x="1989" y="1500"/>
			<point x="1995" y="1489"/>
			<point x="1995" y="1444" type="curve" smooth="yes"/>
			<point x="1995" y="1284" type="line" smooth="yes"/>
			<point x="1995" y="1236"/>
			<point x="1988" y="1230"/>
			<point x="1942" y="1230" type="curve" smooth="yes"/>
			<point x="1905" y="1230" type="line" smooth="yes"/>
			<point x="1861" y="1230"/>
			<point x="1855" y="1220"/>
		</contour>
		<contour>
			<point x="74" y="270" type="line" smooth="yes"/>
			<point x="121" y="270"/>
			<point x="130" y="271"/>
			<point x="130" y="318" type="curve" smooth="yes"/>
			<point x="130" y="1166" type="line" smooth="yes"/>
			<point x="130" y="1220"/>
			<point x="128" y="1230"/>
			<point x="72" y="1230" type="curve" smooth="yes"/>
			<point x="56" y="1230" type="line" smooth="yes"/>
			<point x="14" y="1230"/>
			<point x="10" y="1237"/>
			<point x="10" y="1280" type="curve" smooth="yes"/>
			<point x="10" y="1454" type="line" smooth="yes"/>
			<point x="10" y="1496"/>
			<point x="18" y="1500"/>
			<point x="58" y="1500" type="curve" smooth="yes"/>
			<point x="714" y="1500" type="line" smooth="yes"/>
			<point x="760" y="1500"/>
			<point x="760" y="1490"/>
			<point x="760" y="1444" type="curve" smooth="yes"/>
			<point x="760" y="1280" type="line" smooth="yes"/>
			<point x="760" y="1238"/>
			<point x="758" y="1230"/>
			<point x="716" y="1230" type="curve" smooth="yes"/>
			<point x="652" y="1230" type="line" smooth="yes"/>
			<point x="607" y="1230"/>
			<point x="600" y="1226"/>
			<point x="600" y="1182" type="curve" smooth="yes"/>
			<point x="600" y="992" type="line" smooth="yes"/>
			<point x="600" y="949"/>
			<point x="601" y="940"/>
			<point x="644" y="940" type="curve" smooth="yes"/>
			<point x="700" y="940" type="line" smooth="yes"/>
			<point x="1032" y="940"/>
			<point x="1230" y="800"/>
			<point x="1230" y="460" type="curve" smooth="yes"/>
			<point x="1230" y="120"/>
			<point x="1032" y="0"/>
			<point x="700" y="0" type="curve" smooth="yes"/>
			<point x="66" y="0" type="line" smooth="yes"/>
			<point x="21" y="0"/>
			<point x="10" y="4"/>
			<point x="10" y="52" type="curve" smooth="yes"/>
			<point x="10" y="222" type="line" smooth="yes"/>
			<point x="10" y="268"/>
			<point x="18" y="270"/>
			<point x="64" y="270" type="curve" smooth="yes"/>
		</contour>
		<contour>
			<point x="637" y="670" type="line" smooth="yes"/>
			<point x="610" y="670"/>
			<point x="600" y="664"/>
			<point x="600" y="626" type="curve" smooth="yes"/>
			<point x="600" y="314" type="line" smooth="yes"/>
			<point x="600" y="279"/>
			<point x="606" y="270"/>
			<point x="631" y="270" type="curve" smooth="yes"/>
			<point x="645" y="270" type="line" smooth="yes"/>
			<point x="687" y="270"/>
			<point x="730" y="322"/>
			<point x="730" y="460" type="curve" smooth="yes"/>
			<point x="730" y="598"/>
			<point x="687" y="670"/>
			<point x="645" y="670" type="curve" smooth="yes"/>
		</contour>
	</outline>
</glyph>
<glyph name="Softsign-cy" format="2">
	<advance width="1230" height="0"/>
	<unicode hex="042C"/>
	<outline>
		<contour>
			<point x="74" y="270" type="line" smooth="yes"/>
			<point x="121" y="270"/>
			<point x="130" y="271"/>
			<point x="130" y="318" type="curve" smooth="yes"/>
			<point x="130" y="1166" type="line" smooth="yes"/>
			<point x="130" y="1220"/>
			<point x="128" y="1230"/>
			<point x="72" y="1230" type="curve" smooth="yes"/>
			<point x="56" y="1230" type="line" smooth="yes"/>
			<point x="14" y="1230"/>
			<point x="10" y="1237"/>
			<point x="10" y="1280" type="curve" smooth="yes"/>
			<point x="10" y="1454" type="line" smooth="yes"/>
			<point x="10" y="1496"/>
			<point x="18" y="1500"/>
			<point x="58" y="1500" type="curve" smooth="yes"/>
			<point x="714" y="1500" type="line" smooth="yes"/>
			<point x="760" y="1500"/>
			<point x="760" y="1490"/>
			<point x="760" y="1444" type="curve" smooth="yes"/>
			<point x="760" y="1280" type="line" smooth="yes"/>
			<point x="760" y="1238"/>
			<point x="758" y="1230"/>
			<point x="716" y="1230" type="curve" smooth="yes"/>
			<point x="652" y="1230" type="line" smooth="yes"/>
			<point x="607" y="1230"/>
			<point x="600" y="1226"/>
			<point x="600" y="1182" type="curve" smooth="yes"/>
			<point x="600" y="992" type="line" smooth="yes"/>
			<point x="600" y="949"/>
			<point x="601" y="940"/>
			<point x="644" y="940" type="curve" smooth="yes"/>
			<point x="680" y="940" type="line" smooth="yes"/>
			<point x="1042" y="940"/>
			<point x="1220" y="800"/>
			<point x="1220" y="460" type="curve" smooth="yes"/>
			<point x="1220" y="120"/>
			<point x="1042" y="0"/>
			<point x="680" y="0" type="curve" smooth="yes"/>
			<point x="66" y="0" type="line" smooth="yes"/>
			<point x="21" y="0"/>
			<point x="10" y="4"/>
			<point x="10" y="52" type="curve" smooth="yes"/>
			<point x="10" y="222" type="line" smooth="yes"/>
			<point x="10" y="268"/>
			<point x="18" y="270"/>
			<point x="64" y="270" type="curve" smooth="yes"/>
		</contour>
		<contour>
			<point x="632" y="670" type="line" smooth="yes"/>
			<point x="595" y="670"/>
			<point x="600" y="664"/>
			<point x="600" y="626" type="curve" smooth="yes"/>
			<point x="600" y="314" type="line" smooth="yes"/>
			<point x="600" y="279"/>
			<point x="591" y="270"/>
			<point x="626" y="270" type="curve" smooth="yes"/>
			<point x="650" y="270" type="line" smooth="yes"/>
			<point x="702" y="270"/>
			<point x="720" y="322"/>
			<point x="720" y="460" type="curve" smooth="yes"/>
			<point x="720" y="598"/>
			<point x="702" y="670"/>
			<point x="650" y="670" type="curve" smooth="yes"/>
		</contour>
	</outline>
</glyph>
<glyph name="Ya-cy" format="2">
	<advance width="1356" height="0"/>
	<unicode hex="042F"/>
	<anchor x="812" y="1500" name="Anchor-0"/>
	<anchor x="692" y="0" name="Anchor-1"/>
	<anchor x="692" y="0" name="Anchor-2"/>
	<outline>
		<contour>
			<point x="-30" y="273" type="curve" smooth="yes"/>
			<point x="-39.937" y="315.11"/>
			<point x="-49.678" y="342.046"/>
			<point x="-18" y="354" type="curve" smooth="yes"/>
			<point x="35" y="374" type="line" smooth="yes"/>
			<point x="73.351" y="388.472"/>
			<point x="92.651" y="384.417"/>
			<point x="100" y="358" type="curve" smooth="yes"/>
			<point x="109.711" y="323.092"/>
			<point x="112" y="308"/>
			<point x="138" y="308" type="curve" smooth="yes"/>
			<point x="253" y="308"/>
			<point x="48" y="545"/>
			<point x="290" y="678" type="curve" smooth="yes"/>
			<point x="342" y="707"/>
			<point x="309.086" y="702.518"/>
			<point x="273" y="742" type="curve" smooth="yes"/>
			<point x="188" y="835"/>
			<point x="166" y="949"/>
			<point x="166" y="1110" type="curve" smooth="yes"/>
			<point x="166" y="1300"/>
			<point x="294" y="1500"/>
			<point x="636" y="1500" type="curve" smooth="yes"/>
			<point x="1301" y="1500" type="line" smooth="yes"/>
			<point x="1336" y="1500"/>
			<point x="1346" y="1496"/>
			<point x="1346" y="1462" type="curve" smooth="yes"/>
			<point x="1346" y="1282" type="line" smooth="yes"/>
			<point x="1346" y="1242"/>
			<point x="1342" y="1230"/>
			<point x="1300" y="1230" type="curve" smooth="yes"/>
			<point x="1280" y="1230" type="line" smooth="yes"/>
			<point x="1237" y="1230"/>
			<point x="1226" y="1225"/>
			<point x="1226" y="1179" type="curve" smooth="yes"/>
			<point x="1226" y="322" type="line" smooth="yes"/>
			<point x="1226" y="276"/>
			<point x="1236" y="270"/>
			<point x="1283" y="270" type="curve" smooth="yes"/>
			<point x="1304" y="270" type="line" smooth="yes"/>
			<point x="1340" y="270"/>
			<point x="1346" y="263"/>
			<point x="1346" y="226" type="curve" smooth="yes"/>
			<point x="1346" y="38" type="line" smooth="yes"/>
			<point x="1346" y="5"/>
			<point x="1337" y="0"/>
			<point x="1303" y="0" type="curve" smooth="yes"/>
			<point x="696" y="0" type="line" smooth="yes"/>
			<point x="637" y="0"/>
			<point x="636" y="13"/>
			<point x="636" y="72" type="curve" smooth="yes"/>
			<point x="636" y="224" type="line" smooth="yes"/>
			<point x="636" y="263"/>
			<point x="646" y="270"/>
			<point x="682" y="270" type="curve" smooth="yes"/>
			<point x="724" y="270" type="line" smooth="yes"/>
			<point x="755" y="270"/>
			<point x="756" y="279"/>
			<point x="756" y="310" type="curve" smooth="yes"/>
			<point x="756" y="572" type="line" smooth="yes"/>
			<point x="756" y="610"/>
			<point x="756" y="620"/>
			<point x="718" y="620" type="curve" smooth="yes"/>
			<point x="706" y="620" type="line" smooth="yes"/>
			<point x="473" y="620"/>
			<point x="802" y="-40"/>
			<point x="306" y="-40" type="curve" smooth="yes"/>
			<point x="96" y="-40"/>
			<point x="12" y="95"/>
		</contour>
		<contour>
			<point x="715" y="880" type="line" smooth="yes"/>
			<point x="763" y="880"/>
			<point x="756" y="877"/>
			<point x="756" y="926" type="curve" smooth="yes"/>
			<point x="756" y="1182" type="line" smooth="yes"/>
			<point x="756" y="1221"/>
			<point x="763" y="1230"/>
			<point x="725" y="1230" type="curve" smooth="yes"/>
			<point x="707" y="1230" type="line" smooth="yes"/>
			<point x="645" y="1230"/>
			<point x="636" y="1148"/>
			<point x="636" y="1050" type="curve" smooth="yes"/>
			<point x="636" y="952"/>
			<point x="645" y="880"/>
			<point x="707" y="880" type="curve" smooth="yes"/>
		</contour>
	</outline>
</glyph>
<glyph name="ze-cy" format="2">
	<advance width="820" height="2234"/>
	<unicode hex="0437"/>
	<outline>
		<contour>
			<point x="372" y="856" type="line"/>
			<point x="318" y="856"/>
			<point x="293" y="802"/>
			<point x="276" y="689" type="curve" smooth="yes"/>
			<point x="272.788" y="667.653"/>
			<point x="268" y="660"/>
			<point x="242" y="660" type="curve" smooth="yes"/>
			<point x="89" y="660" type="line" smooth="yes"/>
			<point x="66" y="660"/>
			<point x="52" y="664"/>
			<point x="52" y="686" type="curve" smooth="yes"/>
			<point x="52" y="1021" type="line" smooth="yes"/>
			<point x="52" y="1047"/>
			<point x="65" y="1060"/>
			<point x="92" y="1060" type="curve" smooth="yes"/>
			<point x="226" y="1060" type="line" smooth="yes"/>
			<point x="235" y="1060"/>
			<point x="241" y="1055"/>
			<point x="247" y="1042" type="curve" smooth="yes"/>
			<point x="259" y="1004" type="line" smooth="yes"/>
			<point x="275" y="969"/>
			<point x="279" y="966"/>
			<point x="298" y="988" type="curve" smooth="yes"/>
			<point x="339" y="1034"/>
			<point x="409" y="1070"/>
			<point x="492" y="1070" type="curve"/>
		</contour>
		<contour>
			<point x="0" y="301" type="curve" smooth="yes"/>
			<point x="0" y="447"/>
			<point x="80" y="530"/>
			<point x="198" y="530" type="curve" smooth="yes"/>
			<point x="292" y="530"/>
			<point x="342" y="468"/>
			<point x="342" y="384" type="curve" smooth="yes"/>
			<point x="342" y="292"/>
			<point x="268" y="262"/>
			<point x="268" y="236" type="curve" smooth="yes"/>
			<point x="268" y="212"/>
			<point x="291" y="179"/>
			<point x="339" y="179" type="curve" smooth="yes"/>
			<point x="407" y="179"/>
			<point x="438" y="222"/>
			<point x="438" y="310" type="curve" smooth="yes"/>
			<point x="438" y="374"/>
			<point x="433.142" y="399.52"/>
			<point x="394" y="407" type="curve" smooth="yes"/>
			<point x="362.764" y="412.97"/>
			<point x="354" y="423"/>
			<point x="354" y="482" type="curve" smooth="yes"/>
			<point x="354" y="556" type="line" smooth="yes"/>
			<point x="354" y="605"/>
			<point x="362.566" y="606.27"/>
			<point x="394" y="616" type="curve" smooth="yes"/>
			<point x="416.219" y="622.878"/>
			<point x="438" y="646"/>
			<point x="438" y="722" type="curve" smooth="yes"/>
			<point x="438" y="760"/>
			<point x="430" y="856"/>
			<point x="372" y="856" type="curve"/>
			<point x="492" y="1070" type="line"/>
			<point x="684" y="1070"/>
			<point x="800" y="972"/>
			<point x="800" y="792" type="curve" smooth="yes"/>
			<point x="800" y="656"/>
			<point x="752.436" y="601.262"/>
			<point x="702" y="572" type="curve" smooth="yes"/>
			<point x="665.56" y="550.857"/>
			<point x="636" y="537"/>
			<point x="636" y="515" type="curve" smooth="yes"/>
			<point x="636" y="499"/>
			<point x="677.916" y="491.803"/>
			<point x="716" y="468" type="curve" smooth="yes"/>
			<point x="764" y="438"/>
			<point x="820" y="394"/>
			<point x="820" y="280" type="curve" smooth="yes"/>
			<point x="820" y="110"/>
			<point x="704" y="-20"/>
			<point x="362" y="-20" type="curve" smooth="yes"/>
			<point x="118" y="-20"/>
			<point x="0" y="117"/>
		</contour>
	</outline>
</glyph>
<glyph name="em-cy" format="2">
	<advance width="1310" height="2234"/>
	<unicode hex="043C"/>
	<outline>
		<contour>
			<point x="71" y="830" type="curve" smooth="yes"/>
			<point x="52" y="830" type="line" smooth="yes"/>
			<point x="25" y="830"/>
			<point x="18" y="834"/>
			<point x="18" y="860" type="curve" smooth="yes"/>
			<point x="18" y="1006" type="line" smooth="yes"/>
			<point x="18" y="1038"/>
			<point x="31" y="1040"/>
			<point x="60" y="1040" type="curve" smooth="yes"/>
			<point x="562" y="1040" type="line" smooth="yes"/>
			<point x="606" y="1040"/>
			<point x="605.861" y="1025.951"/>
			<point x="611" y="994" type="curve" smooth="yes"/>
			<point x="644" y="708" type="line" smooth="yes"/>
			<point x="650.442" y="667.945"/>
			<point x="653" y="641"/>
			<point x="664" y="641" type="curve" smooth="yes"/>
			<point x="673" y="641"/>
			<point x="676.311" y="654.858"/>
			<point x="681" y="688" type="curve" smooth="yes"/>
			<point x="756" y="1006" type="line" smooth="yes"/>
			<point x="759.923" y="1033.719"/>
			<point x="762" y="1040"/>
			<point x="799" y="1040" type="curve" smooth="yes"/>
			<point x="1257" y="1040" type="line" smooth="yes"/>
			<point x="1286" y="1040"/>
			<point x="1293" y="1035"/>
			<point x="1293" y="1004" type="curve" smooth="yes"/>
			<point x="1293" y="880" type="line" smooth="yes"/>
			<point x="1293" y="837"/>
			<point x="1292" y="830"/>
			<point x="1262" y="830" type="curve" smooth="yes"/>
			<point x="1235" y="830" type="line" smooth="yes"/>
			<point x="1208" y="830"/>
			<point x="1208" y="810"/>
			<point x="1209" y="776" type="curve" smooth="yes"/>
			<point x="1229" y="252" type="line" smooth="yes"/>
			<point x="1230" y="219"/>
			<point x="1235" y="210"/>
			<point x="1261" y="210" type="curve" smooth="yes"/>
			<point x="1267" y="210" type="line" smooth="yes"/>
			<point x="1305" y="210"/>
			<point x="1305" y="210"/>
			<point x="1305" y="172" type="curve" smooth="yes"/>
			<point x="1305" y="42" type="line" smooth="yes"/>
			<point x="1305" y="8"/>
			<point x="1302" y="0"/>
			<point x="1269" y="0" type="curve" smooth="yes"/>
			<point x="803" y="0" type="line" smooth="yes"/>
			<point x="772" y="0"/>
			<point x="755" y="5"/>
			<point x="755" y="38" type="curve" smooth="yes"/>
			<point x="755" y="162" type="line" smooth="yes"/>
			<point x="755" y="201"/>
			<point x="756" y="210"/>
			<point x="795" y="210" type="curve" smooth="yes"/>
			<point x="801" y="210" type="line" smooth="yes"/>
			<point x="836" y="210"/>
			<point x="831" y="220"/>
			<point x="830" y="252" type="curve" smooth="yes"/>
			<point x="829" y="509" type="line" smooth="yes"/>
			<point x="828.799" y="560.596"/>
			<point x="848" y="616"/>
			<point x="829" y="616" type="curve" smooth="yes"/>
			<point x="807" y="616"/>
			<point x="810.692" y="568.857"/>
			<point x="799" y="512" type="curve" smooth="yes"/>
			<point x="697" y="26" type="line" smooth="yes"/>
			<point x="689" y="2"/>
			<point x="683" y="-10"/>
			<point x="649" y="-10" type="curve" smooth="yes"/>
			<point x="443" y="-10" type="line" smooth="yes"/>
			<point x="395" y="-10"/>
			<point x="392.449" y="9.251"/>
			<point x="389" y="44" type="curve" smooth="yes"/>
			<point x="319" y="508" type="line" smooth="yes"/>
			<point x="314.834" y="549.976"/>
			<point x="317" y="610"/>
			<point x="292" y="610" type="curve" smooth="yes"/>
			<point x="285" y="610"/>
			<point x="282" y="580"/>
			<point x="279" y="518" type="curve" smooth="yes"/>
			<point x="281" y="275" type="line" smooth="yes"/>
			<point x="279" y="220"/>
			<point x="278" y="210"/>
			<point x="295" y="210" type="curve" smooth="yes"/>
			<point x="303" y="210" type="line" smooth="yes"/>
			<point x="331" y="210"/>
			<point x="335" y="206"/>
			<point x="335" y="166" type="curve" smooth="yes"/>
			<point x="335" y="40" type="line" smooth="yes"/>
			<point x="335" y="5"/>
			<point x="319" y="0"/>
			<point x="283" y="0" type="curve" smooth="yes"/>
			<point x="49" y="0" type="line" smooth="yes"/>
			<point x="12" y="0"/>
			<point x="5" y="4"/>
			<point x="5" y="40" type="curve" smooth="yes"/>
			<point x="5" y="168" type="line" smooth="yes"/>
			<point x="5" y="205"/>
			<point x="11" y="210"/>
			<point x="47" y="210" type="curve" smooth="yes"/>
			<point x="50" y="210" type="line" smooth="yes"/>
			<point x="73" y="210"/>
			<point x="80.54" y="225.023"/>
			<point x="82" y="254" type="curve" smooth="yes"/>
			<point x="97" y="790" type="line" smooth="yes"/>
			<point x="98" y="817"/>
			<point x="101" y="830"/>
		</contour>
	</outline>
</glyph>
<glyph name="en-cy" format="2">
	<advance width="1120" height="2310"/>
	<unicode hex="043D"/>
	<outline>
		<contour>
			<point x="1030" y="255" type="line" smooth="yes"/>
			<point x="1030" y="220"/>
			<point x="1031" y="210"/>
			<point x="1066" y="210" type="curve" smooth="yes"/>
			<point x="1084" y="210" type="line" smooth="yes"/>
			<point x="1106" y="210"/>
			<point x="1110" y="203"/>
			<point x="1110" y="180" type="curve" smooth="yes"/>
			<point x="1110" y="22" type="line" smooth="yes"/>
			<point x="1110" y="0"/>
			<point x="1101" y="0"/>
			<point x="1079" y="0" type="curve" smooth="yes"/>
			<point x="593" y="0" type="line" smooth="yes"/>
			<point x="572" y="0"/>
			<point x="571" y="9"/>
			<point x="571" y="31" type="curve" smooth="yes"/>
			<point x="571" y="181" type="line" smooth="yes"/>
			<point x="571" y="203"/>
			<point x="575" y="210"/>
			<point x="586" y="210" type="curve" smooth="yes"/>
			<point x="595" y="210" type="line" smooth="yes"/>
			<point x="607" y="210"/>
			<point x="610" y="214"/>
			<point x="610" y="249" type="curve" smooth="yes"/>
			<point x="610" y="401" type="line" smooth="yes"/>
			<point x="610" y="425"/>
			<point x="605" y="432"/>
			<point x="579" y="432" type="curve" smooth="yes"/>
			<point x="559" y="432" type="line" smooth="yes"/>
			<point x="519" y="432"/>
			<point x="510" y="429"/>
			<point x="510" y="386" type="curve" smooth="yes"/>
			<point x="510" y="251" type="line" smooth="yes"/>
			<point x="510" y="220"/>
			<point x="514" y="210"/>
			<point x="525" y="210" type="curve" smooth="yes"/>
			<point x="529" y="210" type="line" smooth="yes"/>
			<point x="546" y="210"/>
			<point x="551" y="205"/>
			<point x="551" y="176" type="curve" smooth="yes"/>
			<point x="551" y="30" type="line" smooth="yes"/>
			<point x="551" y="6"/>
			<point x="546" y="0"/>
			<point x="523" y="0" type="curve" smooth="yes"/>
			<point x="38" y="0" type="line" smooth="yes"/>
			<point x="14" y="0"/>
			<point x="10" y="7"/>
			<point x="10" y="32" type="curve" smooth="yes"/>
			<point x="10" y="178" type="line" smooth="yes"/>
			<point x="10" y="206"/>
			<point x="20" y="210"/>
			<point x="46" y="210" type="curve" smooth="yes"/>
			<point x="56" y="210" type="line" smooth="yes"/>
			<point x="82" y="210"/>
			<point x="90" y="213"/>
			<point x="90" y="238" type="curve" smooth="yes"/>
			<point x="90" y="785" type="line" smooth="yes"/>
			<point x="90" y="820"/>
			<point x="89" y="830"/>
			<point x="54" y="830" type="curve" smooth="yes"/>
			<point x="36" y="830" type="line" smooth="yes"/>
			<point x="14" y="830"/>
			<point x="10" y="837"/>
			<point x="10" y="860" type="curve" smooth="yes"/>
			<point x="10" y="1018" type="line" smooth="yes"/>
			<point x="10" y="1040"/>
			<point x="19" y="1040"/>
			<point x="41" y="1040" type="curve" smooth="yes"/>
			<point x="528" y="1040" type="line" smooth="yes"/>
			<point x="549" y="1040"/>
			<point x="550" y="1031"/>
			<point x="550" y="1009" type="curve" smooth="yes"/>
			<point x="550" y="859" type="line" smooth="yes"/>
			<point x="550" y="837"/>
			<point x="541" y="830"/>
			<point x="530" y="830" type="curve" smooth="yes"/>
			<point x="529" y="830" type="line" smooth="yes"/>
			<point x="513" y="830"/>
			<point x="510" y="826"/>
			<point x="510" y="791" type="curve" smooth="yes"/>
			<point x="510" y="695" type="line" smooth="yes"/>
			<point x="510" y="661"/>
			<point x="514" y="652"/>
			<point x="550" y="652" type="curve" smooth="yes"/>
			<point x="580" y="652" type="line" smooth="yes"/>
			<point x="610" y="652"/>
			<point x="610" y="652"/>
			<point x="610" y="682" type="curve" smooth="yes"/>
			<point x="610" y="789" type="line" smooth="yes"/>
			<point x="610" y="820"/>
			<point x="609" y="830"/>
			<point x="593" y="830" type="curve" smooth="yes"/>
			<point x="586" y="830" type="line" smooth="yes"/>
			<point x="573" y="830"/>
			<point x="571" y="835"/>
			<point x="571" y="864" type="curve" smooth="yes"/>
			<point x="571" y="1010" type="line" smooth="yes"/>
			<point x="571" y="1034"/>
			<point x="576" y="1040"/>
			<point x="599" y="1040" type="curve" smooth="yes"/>
			<point x="1082" y="1040" type="line" smooth="yes"/>
			<point x="1106" y="1040"/>
			<point x="1110" y="1033"/>
			<point x="1110" y="1008" type="curve" smooth="yes"/>
			<point x="1110" y="862" type="line" smooth="yes"/>
			<point x="1110" y="834"/>
			<point x="1100" y="830"/>
			<point x="1074" y="830" type="curve" smooth="yes"/>
			<point x="1064" y="830" type="line" smooth="yes"/>
			<point x="1038" y="830"/>
			<point x="1030" y="827"/>
			<point x="1030" y="802" type="curve" smooth="yes"/>
		</contour>
	</outline>
</glyph>
<glyph name="yu-cy" format="2">
	<advance width="1601" height="2310"/>
	<unicode hex="044E"/>
	<outline>
		<contour>
			<point x="1025" y="540" type="curve" smooth="yes"/>
			<point x="1025" y="232"/>
			<point x="1025" y="160"/>
			<point x="1073" y="160" type="curve" smooth="yes"/>
			<point x="1121" y="160"/>
			<point x="1121" y="232"/>
			<point x="1121" y="500" type="curve" smooth="yes"/>
			<point x="1121" y="808"/>
			<point x="1121" y="880"/>
			<point x="1073" y="880" type="curve" smooth="yes"/>
			<point x="1025" y="880"/>
			<point x="1025" y="808"/>
		</contour>
		<contour>
			<point x="90" y="249" type="curve" smooth="yes"/>
			<point x="90" y="785" type="line" smooth="yes"/>
			<point x="90" y="818"/>
			<point x="81" y="830"/>
			<point x="48" y="830" type="curve" smooth="yes"/>
			<point x="36" y="830" type="line" smooth="yes"/>
			<point x="14" y="830"/>
			<point x="10" y="837"/>
			<point x="10" y="860" type="curve" smooth="yes"/>
			<point x="10" y="1018" type="line" smooth="yes"/>
			<point x="10" y="1040"/>
			<point x="19" y="1040"/>
			<point x="41" y="1040" type="curve" smooth="yes"/>
			<point x="562" y="1040" type="line" smooth="yes"/>
			<point x="586" y="1040"/>
			<point x="590" y="1033"/>
			<point x="590" y="1008" type="curve" smooth="yes"/>
			<point x="590" y="862" type="line" smooth="yes"/>
			<point x="590" y="834"/>
			<point x="580" y="830"/>
			<point x="554" y="830" type="curve" smooth="yes"/>
			<point x="550" y="830" type="line" smooth="yes"/>
			<point x="518" y="830"/>
			<point x="510" y="826"/>
			<point x="510" y="791" type="curve" smooth="yes"/>
			<point x="510" y="666" type="line" smooth="yes"/>
			<point x="510" y="627"/>
			<point x="500" y="610"/>
			<point x="543" y="610" type="curve" smooth="yes"/>
			<point x="549" y="610" type="line" smooth="yes"/>
			<point x="590.991" y="610"/>
			<point x="582.21" y="626.236"/>
			<point x="587.686" y="660" type="curve" smooth="yes"/>
			<point x="626.622" y="900.123"/>
			<point x="761.205" y="1080"/>
			<point x="1073" y="1080" type="curve" smooth="yes"/>
			<point x="1455" y="1080"/>
			<point x="1571" y="820"/>
			<point x="1571" y="540" type="curve" smooth="yes"/>
			<point x="1571" y="220"/>
			<point x="1455" y="-40"/>
			<point x="1073" y="-40" type="curve" smooth="yes"/>
			<point x="761.219" y="-40"/>
			<point x="626.634" y="126.538"/>
			<point x="587.69" y="340" type="curve" smooth="yes"/>
			<point x="578.617" y="389.734"/>
			<point x="579.504" y="400"/>
			<point x="547" y="400" type="curve" smooth="yes"/>
			<point x="535" y="400" type="line" smooth="yes"/>
			<point x="516" y="400"/>
			<point x="510" y="399"/>
			<point x="510" y="366" type="curve" smooth="yes"/>
			<point x="510" y="255" type="line" smooth="yes"/>
			<point x="510" y="222"/>
			<point x="519" y="210"/>
			<point x="552" y="210" type="curve" smooth="yes"/>
			<point x="564" y="210" type="line" smooth="yes"/>
			<point x="586" y="210"/>
			<point x="590" y="203"/>
			<point x="590" y="180" type="curve" smooth="yes"/>
			<point x="590" y="22" type="line" smooth="yes"/>
			<point x="590" y="0"/>
			<point x="581" y="0"/>
			<point x="559" y="0" type="curve" smooth="yes"/>
			<point x="38" y="0" type="line" smooth="yes"/>
			<point x="14" y="0"/>
			<point x="10" y="7"/>
			<point x="10" y="32" type="curve" smooth="yes"/>
			<point x="10" y="178" type="line" smooth="yes"/>
			<point x="10" y="206"/>
			<point x="20" y="210"/>
			<point x="46" y="210" type="curve" smooth="yes"/>
			<point x="55" y="210" type="line" smooth="yes"/>
			<point x="87" y="210"/>
			<point x="90" y="214"/>
		</contour>
	</outline>
</glyph>
<glyph name="dje-cy" format="2">
	<advance width="1070" height="2310"/>
	<unicode hex="0452"/>
	<outline>
		<contour>
			<point x="46" y="1300" type="curve" smooth="yes"/>
			<point x="630" y="1300" type="line" smooth="yes"/>
			<point x="657" y="1300"/>
			<point x="665" y="1295"/>
			<point x="665" y="1266" type="curve" smooth="yes"/>
			<point x="665" y="1110" type="line" smooth="yes"/>
			<point x="665" y="1086"/>
			<point x="660" y="1080"/>
			<point x="637" y="1080" type="curve" smooth="yes"/>
			<point x="38" y="1080" type="line" smooth="yes"/>
			<point x="14" y="1080"/>
			<point x="10" y="1087"/>
			<point x="10" y="1112" type="curve" smooth="yes"/>
			<point x="10" y="1268" type="line" smooth="yes"/>
			<point x="10" y="1296"/>
			<point x="20" y="1300"/>
		</contour>
		<contour>
			<point x="53" y="1350" type="curve" smooth="yes"/>
			<point x="50" y="1350" type="line" smooth="yes"/>
			<point x="15" y="1350"/>
			<point x="10" y="1357"/>
			<point x="10" y="1401" type="curve" smooth="yes"/>
			<point x="10" y="1507" type="line" smooth="yes"/>
			<point x="10" y="1553"/>
			<point x="35" y="1560"/>
			<point x="76" y="1560" type="curve" smooth="yes"/>
			<point x="414" y="1560" type="line" smooth="yes"/>
			<point x="445" y="1560"/>
			<point x="470" y="1552"/>
			<point x="470" y="1510" type="curve" smooth="yes"/>
			<point x="470" y="994" type="line" smooth="yes"/>
			<point x="470" y="945"/>
			<point x="486.105" y="927.529"/>
			<point x="511" y="962" type="curve" smooth="yes"/>
			<point x="563" y="1034"/>
			<point x="617" y="1060"/>
			<point x="716" y="1060" type="curve" smooth="yes"/>
			<point x="940" y="1060"/>
			<point x="1030" y="952"/>
			<point x="1030" y="738" type="curve" smooth="yes"/>
			<point x="1030" y="-64" type="line" smooth="yes"/>
			<point x="1030" y="-386"/>
			<point x="897" y="-520"/>
			<point x="597" y="-520" type="curve" smooth="yes"/>
			<point x="355" y="-520"/>
			<point x="161" y="-422"/>
			<point x="161" y="-228" type="curve" smooth="yes"/>
			<point x="161" y="-108"/>
			<point x="261" y="-16"/>
			<point x="385" y="-16" type="curve" smooth="yes"/>
			<point x="529" y="-16"/>
			<point x="625" y="-102"/>
			<point x="625" y="-192" type="curve" smooth="yes"/>
			<point x="625" y="-306"/>
			<point x="545" y="-302"/>
			<point x="545" y="-324" type="curve" smooth="yes"/>
			<point x="545" y="-340"/>
			<point x="567" y="-350"/>
			<point x="603" y="-350" type="curve" smooth="yes"/>
			<point x="803" y="-350"/>
			<point x="610" y="-84"/>
			<point x="610" y="190" type="curve" smooth="yes"/>
			<point x="610" y="686" type="line" smooth="yes"/>
			<point x="610" y="794"/>
			<point x="599" y="816"/>
			<point x="557" y="816" type="curve" smooth="yes"/>
			<point x="511" y="816"/>
			<point x="510" y="752"/>
			<point x="510" y="546" type="curve" smooth="yes"/>
			<point x="510" y="249" type="line" smooth="yes"/>
			<point x="510" y="219"/>
			<point x="511" y="210"/>
			<point x="527" y="210" type="curve" smooth="yes"/>
			<point x="531" y="210" type="line" smooth="yes"/>
			<point x="549" y="210"/>
			<point x="551" y="206"/>
			<point x="551" y="173" type="curve" smooth="yes"/>
			<point x="551" y="37" type="line" smooth="yes"/>
			<point x="551" y="2"/>
			<point x="533" y="0"/>
			<point x="501" y="0" type="curve" smooth="yes"/>
			<point x="42" y="0" type="line" smooth="yes"/>
			<point x="11" y="0"/>
			<point x="10" y="9"/>
			<point x="10" y="41" type="curve" smooth="yes"/>
			<point x="10" y="168" type="line" smooth="yes"/>
			<point x="10" y="204"/>
			<point x="25" y="210"/>
			<point x="40" y="210" type="curve" smooth="yes"/>
			<point x="60" y="210" type="line" smooth="yes"/>
			<point x="78" y="210"/>
			<point x="90" y="211"/>
			<point x="90" y="252" type="curve" smooth="yes"/>
			<point x="90" y="1304" type="line" smooth="yes"/>
			<point x="90" y="1345"/>
			<point x="83" y="1350"/>
		</contour>
	</outline>
</glyph>
<glyph name="nje-cy" format="2">
	<advance width="1563" height="2310"/>
	<unicode hex="045A"/>
	<outline>
		<contour>
			<point x="1046" y="210" type="curve" smooth="yes"/>
			<point x="1053" y="210" type="line" smooth="yes"/>
			<point x="1085" y="210"/>
			<point x="1098" y="222"/>
			<point x="1098" y="320" type="curve" smooth="yes"/>
			<point x="1098" y="418"/>
			<point x="1085" y="440"/>
			<point x="1053" y="440" type="curve" smooth="yes"/>
			<point x="1049" y="440" type="line" smooth="yes"/>
			<point x="1032" y="440"/>
			<point x="1030" y="432"/>
			<point x="1030" y="384" type="curve" smooth="yes"/>
			<point x="1030" y="255" type="line" smooth="yes"/>
			<point x="1030" y="220"/>
			<point x="1032" y="210"/>
		</contour>
		<contour>
			<point x="592" y="0" type="line" smooth="yes"/>
			<point x="571" y="0"/>
			<point x="571" y="9"/>
			<point x="571" y="31" type="curve" smooth="yes"/>
			<point x="571" y="181" type="line" smooth="yes"/>
			<point x="571" y="203"/>
			<point x="574" y="210"/>
			<point x="585" y="210" type="curve" smooth="yes"/>
			<point x="590" y="210" type="line" smooth="yes"/>
			<point x="602" y="210"/>
			<point x="610" y="214"/>
			<point x="610" y="249" type="curve" smooth="yes"/>
			<point x="610" y="401" type="line" smooth="yes"/>
			<point x="610" y="425"/>
			<point x="595" y="432"/>
			<point x="569" y="432" type="curve" smooth="yes"/>
			<point x="559" y="432" type="line" smooth="yes"/>
			<point x="519" y="432"/>
			<point x="510" y="429"/>
			<point x="510" y="386" type="curve" smooth="yes"/>
			<point x="510" y="251" type="line" smooth="yes"/>
			<point x="510" y="220"/>
			<point x="512" y="210"/>
			<point x="530" y="210" type="curve" smooth="yes"/>
			<point x="533" y="210" type="line" smooth="yes"/>
			<point x="548" y="210"/>
			<point x="551" y="205"/>
			<point x="551" y="176" type="curve" smooth="yes"/>
			<point x="551" y="30" type="line" smooth="yes"/>
			<point x="551" y="6"/>
			<point x="545" y="0"/>
			<point x="522" y="0" type="curve" smooth="yes"/>
			<point x="38" y="0" type="line" smooth="yes"/>
			<point x="14" y="0"/>
			<point x="10" y="7"/>
			<point x="10" y="32" type="curve" smooth="yes"/>
			<point x="10" y="178" type="line" smooth="yes"/>
			<point x="10" y="206"/>
			<point x="20" y="210"/>
			<point x="46" y="210" type="curve" smooth="yes"/>
			<point x="56" y="210" type="line" smooth="yes"/>
			<point x="82" y="210"/>
			<point x="90" y="213"/>
			<point x="90" y="238" type="curve" smooth="yes"/>
			<point x="90" y="785" type="line" smooth="yes"/>
			<point x="90" y="820"/>
			<point x="89" y="830"/>
			<point x="54" y="830" type="curve" smooth="yes"/>
			<point x="36" y="830" type="line" smooth="yes"/>
			<point x="14" y="830"/>
			<point x="10" y="837"/>
			<point x="10" y="860" type="curve" smooth="yes"/>
			<point x="10" y="1018" type="line" smooth="yes"/>
			<point x="10" y="1040"/>
			<point x="19" y="1040"/>
			<point x="41" y="1040" type="curve" smooth="yes"/>
			<point x="528" y="1040" type="line" smooth="yes"/>
			<point x="549" y="1040"/>
			<point x="550" y="1031"/>
			<point x="550" y="1009" type="curve" smooth="yes"/>
			<point x="550" y="859" type="line" smooth="yes"/>
			<point x="550" y="837"/>
			<point x="546" y="830"/>
			<point x="535" y="830" type="curve" smooth="yes"/>
			<point x="533" y="830" type="line" smooth="yes"/>
			<point x="514" y="830"/>
			<point x="510" y="826"/>
			<point x="510" y="791" type="curve" smooth="yes"/>
			<point x="510" y="695" type="line" smooth="yes"/>
			<point x="510" y="661"/>
			<point x="514" y="652"/>
			<point x="550" y="652" type="curve" smooth="yes"/>
			<point x="580" y="652" type="line" smooth="yes"/>
			<point x="610" y="652"/>
			<point x="610" y="652"/>
			<point x="610" y="682" type="curve" smooth="yes"/>
			<point x="610" y="789" type="line" smooth="yes"/>
			<point x="610" y="820"/>
			<point x="609" y="830"/>
			<point x="593" y="830" type="curve" smooth="yes"/>
			<point x="590" y="830" type="line" smooth="yes"/>
			<point x="574" y="830"/>
			<point x="570" y="835"/>
			<point x="570" y="864" type="curve" smooth="yes"/>
			<point x="570" y="1010" type="line" smooth="yes"/>
			<point x="570" y="1034"/>
			<point x="575" y="1040"/>
			<point x="598" y="1040" type="curve" smooth="yes"/>
			<point x="1082" y="1040" type="line" smooth="yes"/>
			<point x="1106" y="1040"/>
			<point x="1110" y="1033"/>
			<point x="1110" y="1008" type="curve" smooth="yes"/>
			<point x="1110" y="862" type="line" smooth="yes"/>
			<point x="1110" y="834"/>
			<point x="1100" y="830"/>
			<point x="1074" y="830" type="curve" smooth="yes"/>
			<point x="1064" y="830" type="line" smooth="yes"/>
			<point x="1038" y="830"/>
			<point x="1030" y="827"/>
			<point x="1030" y="802" type="curve" smooth="yes"/>
			<point x="1030" y="675" type="line" smooth="yes"/>
			<point x="1030" y="651"/>
			<point x="1039" y="650"/>
			<point x="1064" y="650" type="curve" smooth="yes"/>
			<point x="1113" y="650" type="line" smooth="yes"/>
			<point x="1385" y="650"/>
			<point x="1563" y="550"/>
			<point x="1563" y="310" type="curve" smooth="yes"/>
			<point x="1563" y="70"/>
			<point x="1385" y="0"/>
			<point x="1113" y="0" type="curve" smooth="yes"/>
		</contour>
	</outline>
</glyph>
<glyph name="ushort-cy" format="2">
	<advance width="1430" height="2310"/>
	<unicode hex="045E"/>
	<outline>
		<contour>
			<point x="753" y="1611" type="curve" smooth="yes"/>
			<point x="874" y="1611"/>
			<point x="966" y="1522"/>
			<point x="966" y="1411" type="curve" smooth="yes"/>
			<point x="966" y="1236"/>
			<point x="801" y="1137"/>
			<point x="519" y="1137" type="curve" smooth="yes"/>
			<point x="235" y="1137"/>
			<point x="71" y="1236"/>
			<point x="71" y="1413" type="curve" smooth="yes"/>
			<point x="71" y="1522"/>
			<point x="163" y="1611"/>
			<point x="284" y="1611" type="curve" smooth="yes"/>
			<point x="384" y="1611"/>
			<point x="450" y="1540"/>
			<point x="450" y="1456" type="curve" smooth="yes"/>
			<point x="450" y="1357"/>
			<point x="333" y="1359"/>
			<point x="333" y="1327" type="curve" smooth="yes"/>
			<point x="333" y="1294"/>
			<point x="400" y="1280"/>
			<point x="527" y="1280" type="curve" smooth="yes"/>
			<point x="641" y="1280"/>
			<point x="704" y="1296"/>
			<point x="704" y="1327" type="curve" smooth="yes"/>
			<point x="704" y="1360"/>
			<point x="587" y="1356"/>
			<point x="587" y="1456" type="curve" smooth="yes"/>
			<point x="587" y="1540"/>
			<point x="653" y="1611"/>
		</contour>
		<component base="y"/>
	</outline>
</glyph>
<glyph name="dzhe-cy" format="2">
	<advance width="1120" height="2310"/>
	<unicode hex="045F"/>
	<outline>
		<contour>
			<point x="464" y="-320" type="line" smooth="yes"/>
			<point x="445" y="-320"/>
			<point x="446" y="-315"/>
			<point x="445" y="-297" type="curve" smooth="yes"/>
			<point x="438" y="-153"/>
			<point x="401" y="0"/>
			<point x="205" y="0" type="curve" smooth="yes"/>
			<point x="38" y="0" type="line" smooth="yes"/>
			<point x="14" y="0"/>
			<point x="10" y="7"/>
			<point x="10" y="32" type="curve" smooth="yes"/>
			<point x="10" y="178" type="line" smooth="yes"/>
			<point x="10" y="206"/>
			<point x="20" y="210"/>
			<point x="46" y="210" type="curve" smooth="yes"/>
			<point x="56" y="210" type="line" smooth="yes"/>
			<point x="82" y="210"/>
			<point x="90" y="213"/>
			<point x="90" y="238" type="curve" smooth="yes"/>
			<point x="90" y="785" type="line" smooth="yes"/>
			<point x="90" y="820"/>
			<point x="89" y="830"/>
			<point x="54" y="830" type="curve" smooth="yes"/>
			<point x="36" y="830" type="line" smooth="yes"/>
			<point x="14" y="830"/>
			<point x="10" y="837"/>
			<point x="10" y="860" type="curve" smooth="yes"/>
			<point x="10" y="1018" type="line" smooth="yes"/>
			<point x="10" y="1040"/>
			<point x="19" y="1040"/>
			<point x="41" y="1040" type="curve" smooth="yes"/>
			<point x="528" y="1040" type="line" smooth="yes"/>
			<point x="549" y="1040"/>
			<point x="550" y="1031"/>
			<point x="550" y="1009" type="curve" smooth="yes"/>
			<point x="550" y="859" type="line" smooth="yes"/>
			<point x="550" y="837"/>
			<point x="541" y="830"/>
			<point x="530" y="830" type="curve" smooth="yes"/>
			<point x="527" y="830" type="line" smooth="yes"/>
			<point x="515" y="830"/>
			<point x="510" y="826"/>
			<point x="510" y="791" type="curve" smooth="yes"/>
			<point x="510" y="251" type="line" smooth="yes"/>
			<point x="510" y="220"/>
			<point x="521" y="210"/>
			<point x="552" y="210" type="curve" smooth="yes"/>
			<point x="570" y="210" type="line" smooth="yes"/>
			<point x="602" y="210"/>
			<point x="610" y="214"/>
			<point x="610" y="249" type="curve" smooth="yes"/>
			<point x="610" y="789" type="line" smooth="yes"/>
			<point x="610" y="820"/>
			<point x="609" y="830"/>
			<point x="598" y="830" type="curve" smooth="yes"/>
			<point x="595" y="830" type="line" smooth="yes"/>
			<point x="588" y="830"/>
			<point x="580" y="835"/>
			<point x="580" y="864" type="curve" smooth="yes"/>
			<point x="580" y="1010" type="line" smooth="yes"/>
			<point x="580" y="1034"/>
			<point x="585" y="1040"/>
			<point x="608" y="1040" type="curve" smooth="yes"/>
			<point x="1082" y="1040" type="line" smooth="yes"/>
			<point x="1106" y="1040"/>
			<point x="1110" y="1033"/>
			<point x="1110" y="1008" type="curve" smooth="yes"/>
			<point x="1110" y="862" type="line" smooth="yes"/>
			<point x="1110" y="834"/>
			<point x="1100" y="830"/>
			<point x="1074" y="830" type="curve" smooth="yes"/>
			<point x="1064" y="830" type="line" smooth="yes"/>
			<point x="1038" y="830"/>
			<point x="1030" y="827"/>
			<point x="1030" y="802" type="curve" smooth="yes"/>
			<point x="1030" y="255" type="line" smooth="yes"/>
			<point x="1030" y="220"/>
			<point x="1031" y="210"/>
			<point x="1066" y="210" type="curve" smooth="yes"/>
			<point x="1084" y="210" type="line" smooth="yes"/>
			<point x="1106" y="210"/>
			<point x="1110" y="203"/>
			<point x="1110" y="180" type="curve" smooth="yes"/>
			<point x="1110" y="27" type="line" smooth="yes"/>
			<point x="1110" y="9"/>
			<point x="1109" y="0"/>
			<point x="1091" y="0" type="curve" smooth="yes"/>
			<point x="916" y="0" type="line" smooth="yes"/>
			<point x="720" y="0"/>
			<point x="683" y="-153"/>
			<point x="676" y="-297" type="curve" smooth="yes"/>
			<point x="675" y="-316"/>
			<point x="676" y="-320"/>
			<point x="656" y="-320" type="curve" smooth="yes"/>
		</contour>
	</outline>
</glyph>
<glyph name="yat-cy" format="2">
	<advance width="1043" height="2234"/>
	<unicode hex="0463"/>
	<outline>
		<contour>
			<point x="70" y="1180" type="curve" smooth="yes"/>
			<point x="662" y="1180" type="line" smooth="yes"/>
			<point x="690" y="1180"/>
			<point x="693" y="1176"/>
			<point x="693" y="1152" type="curve" smooth="yes"/>
			<point x="693" y="1003" type="line" smooth="yes"/>
			<point x="693" y="979"/>
			<point x="691" y="970"/>
			<point x="659" y="970" type="curve" smooth="yes"/>
			<point x="68" y="970" type="line" smooth="yes"/>
			<point x="38" y="970"/>
			<point x="36" y="974"/>
			<point x="36" y="1000" type="curve" smooth="yes"/>
			<point x="36" y="1152" type="line" smooth="yes"/>
			<point x="36" y="1175"/>
			<point x="44" y="1180"/>
		</contour>
		<contour>
			<point x="33" y="0" type="line" smooth="yes"/>
			<point x="12" y="0"/>
			<point x="10" y="4"/>
			<point x="10" y="26" type="curve" smooth="yes"/>
			<point x="10" y="188" type="line" smooth="yes"/>
			<point x="10" y="208"/>
			<point x="20" y="210"/>
			<point x="38" y="210" type="curve" smooth="yes"/>
			<point x="68" y="210" type="line" smooth="yes"/>
			<point x="89" y="210"/>
			<point x="90" y="217"/>
			<point x="90" y="237" type="curve" smooth="yes"/>
			<point x="90" y="1316" type="line" smooth="yes"/>
			<point x="90" y="1341"/>
			<point x="89" y="1350"/>
			<point x="64" y="1350" type="curve" smooth="yes"/>
			<point x="35" y="1350" type="line" smooth="yes"/>
			<point x="15" y="1350"/>
			<point x="10" y="1352"/>
			<point x="10" y="1374" type="curve" smooth="yes"/>
			<point x="10" y="1536" type="line" smooth="yes"/>
			<point x="10" y="1557"/>
			<point x="17" y="1560"/>
			<point x="37" y="1560" type="curve" smooth="yes"/>
			<point x="564" y="1560" type="line" smooth="yes"/>
			<point x="591" y="1560"/>
			<point x="590" y="1559"/>
			<point x="590" y="1530" type="curve" smooth="yes"/>
			<point x="590" y="1379" type="line" smooth="yes"/>
			<point x="590" y="1351"/>
			<point x="597" y="1350"/>
			<point x="569" y="1350" type="curve" smooth="yes"/>
			<point x="535" y="1350" type="line" smooth="yes"/>
			<point x="513" y="1350"/>
			<point x="510" y="1343"/>
			<point x="510" y="1320" type="curve" smooth="yes"/>
			<point x="510" y="675" type="line" smooth="yes"/>
			<point x="510" y="651"/>
			<point x="519" y="650"/>
			<point x="544" y="650" type="curve" smooth="yes"/>
			<point x="593" y="650" type="line" smooth="yes"/>
			<point x="865" y="650"/>
			<point x="1043" y="550"/>
			<point x="1043" y="310" type="curve" smooth="yes"/>
			<point x="1043" y="70"/>
			<point x="865" y="0"/>
			<point x="593" y="0" type="curve" smooth="yes"/>
		</contour>
		<contour>
			<point x="538" y="210" type="line" smooth="yes"/>
			<point x="565" y="210"/>
			<point x="578" y="222"/>
			<point x="578" y="320" type="curve" smooth="yes"/>
			<point x="578" y="418"/>
			<point x="565" y="440"/>
			<point x="533" y="440" type="curve" smooth="yes"/>
			<point x="529" y="440" type="line" smooth="yes"/>
			<point x="507" y="440"/>
			<point x="510" y="432"/>
			<point x="510" y="384" type="curve" smooth="yes"/>
			<point x="510" y="246" type="line" smooth="yes"/>
			<point x="510" y="214"/>
			<point x="516" y="210"/>
			<point x="533" y="210" type="curve" smooth="yes"/>
		</contour>
	</outline>
</glyph>
<glyph name="Germandbls" format="2">
	<advance width="1523" height="2309"/>
	<unicode hex="1E9E"/>
	<outline>
		<contour>
			<point x="796" y="451" type="line"/>
			<point x="796" y="331"/>
			<point x="878" y="187"/>
			<point x="1024" y="187" type="curve" smooth="yes"/>
			<point x="1082" y="187"/>
			<point x="1113" y="212"/>
			<point x="1113" y="350" type="curve" smooth="yes"/>
			<point x="1113" y="498"/>
			<point x="1016" y="665"/>
			<point x="758" y="735" type="curve"/>
			<point x="758" y="848" type="line"/>
			<point x="1340" y="848"/>
			<point x="1523" y="621"/>
			<point x="1523" y="380" type="curve" smooth="yes"/>
			<point x="1523" y="120"/>
			<point x="1305" y="-30"/>
			<point x="1063" y="-30" type="curve" smooth="yes"/>
			<point x="779" y="-30"/>
			<point x="601" y="96"/>
			<point x="601" y="291" type="curve" smooth="yes"/>
			<point x="601" y="423"/>
			<point x="702" y="522"/>
			<point x="822" y="522" type="curve" smooth="yes"/>
			<point x="933" y="522"/>
			<point x="1030" y="432"/>
			<point x="1030" y="310" type="curve" smooth="yes"/>
			<point x="1030" y="196"/>
			<point x="926" y="100"/>
			<point x="817" y="100" type="curve" smooth="yes"/>
			<point x="756" y="100"/>
			<point x="603" y="241"/>
			<point x="603" y="291" type="curve"/>
		</contour>
		<contour>
			<point x="11" y="210" type="line"/>
			<point x="562" y="210" type="line"/>
			<point x="562" y="0" type="line"/>
			<point x="11" y="0" type="line"/>
		</contour>
		<contour>
			<point x="1098" y="780" type="line"/>
			<point x="1057" y="791"/>
			<point x="825" y="838"/>
			<point x="758" y="848" type="curve"/>
			<point x="1061" y="1248" type="line"/>
			<point x="1001" y="1299"/>
			<point x="936" y="1327"/>
			<point x="818" y="1327" type="curve" smooth="yes"/>
			<point x="590" y="1327"/>
			<point x="492" y="1185"/>
			<point x="492" y="861" type="curve" smooth="yes"/>
			<point x="492" y="0" type="line"/>
			<point x="92" y="0" type="line"/>
			<point x="92" y="882" type="line" smooth="yes"/>
			<point x="92" y="1288"/>
			<point x="312" y="1530"/>
			<point x="848" y="1530" type="curve" smooth="yes"/>
			<point x="1265" y="1530"/>
			<point x="1403" y="1348"/>
			<point x="1464" y="1282" type="curve"/>
		</contour>
	</outline>
</glyph>
<glyph name="horizontalbar" format="2">
	<advance width="2331" height="0"/>
	<unicode hex="2015"/>
	<outline>
		<contour>
			<point x="225" y="890" type="curve" smooth="yes"/>
			<point x="2107" y="890" type="line" smooth="yes"/>
			<point x="2202" y="890"/>
			<point x="2211" y="883"/>
			<point x="2211" y="851" type="curve" smooth="yes"/>
			<point x="2211" y="701" type="line" smooth="yes"/>
			<point x="2211" y="666"/>
			<point x="2209" y="660"/>
			<point x="2101" y="660" type="curve" smooth="yes"/>
			<point x="249" y="660" type="line" smooth="yes"/>
			<point x="138" y="660"/>
			<point x="120" y="665"/>
			<point x="120" y="700" type="curve" smooth="yes"/>
			<point x="120" y="849" type="line" smooth="yes"/>
			<point x="120" y="881"/>
			<point x="127" y="890"/>
		</contour>
	</outline>
</glyph>
<glyph name="quotedblright" format="2">
	<advance width="1324" height="0"/>
	<unicode hex="201D"/>
	<outline>
		<contour>
			<point x="80" y="1502" type="curve" smooth="yes"/>
			<point x="80" y="1648"/>
			<point x="208" y="1740"/>
			<point x="344" y="1740" type="curve" smooth="yes"/>
			<point x="512" y="1740"/>
			<point x="624" y="1629"/>
			<point x="624" y="1413" type="curve" smooth="yes"/>
			<point x="624" y="1133"/>
			<point x="337" y="939"/>
			<point x="153" y="915" type="curve" smooth="yes"/>
			<point x="124" y="911"/>
			<point x="116" y="916"/>
			<point x="116" y="948" type="curve" smooth="yes"/>
			<point x="116" y="1067" type="line" smooth="yes"/>
			<point x="116" y="1087"/>
			<point x="124" y="1091"/>
			<point x="141" y="1093" type="curve" smooth="yes"/>
			<point x="261" y="1105"/>
			<point x="382" y="1203"/>
			<point x="423" y="1272" type="curve" smooth="yes"/>
			<point x="428" y="1280"/>
			<point x="421" y="1286"/>
			<point x="409" y="1281" type="curve" smooth="yes"/>
			<point x="386" y="1271"/>
			<point x="350" y="1264"/>
			<point x="306" y="1264" type="curve" smooth="yes"/>
			<point x="170" y="1264"/>
			<point x="80" y="1356"/>
		</contour>
		<contour>
			<point x="700" y="1502" type="curve" smooth="yes"/>
			<point x="700" y="1648"/>
			<point x="828" y="1740"/>
			<point x="964" y="1740" type="curve" smooth="yes"/>
			<point x="1132" y="1740"/>
			<point x="1244" y="1629"/>
			<point x="1244" y="1413" type="curve" smooth="yes"/>
			<point x="1244" y="1133"/>
			<point x="957" y="939"/>
			<point x="773" y="915" type="curve" smooth="yes"/>
			<point x="744" y="911"/>
			<point x="736" y="916"/>
			<point x="736" y="948" type="curve" smooth="yes"/>
			<point x="736" y="1067" type="line" smooth="yes"/>
			<point x="736" y="1087"/>
			<point x="744" y="1091"/>
			<point x="761" y="1093" type="curve" smooth="yes"/>
			<point x="881" y="1105"/>
			<point x="1002" y="1203"/>
			<point x="1043" y="1272" type="curve" smooth="yes"/>
			<point x="1048" y="1280"/>
			<point x="1041" y="1286"/>
			<point x="1029" y="1281" type="curve" smooth="yes"/>
			<point x="1006" y="1271"/>
			<point x="970" y="1264"/>
			<point x="926" y="1264" type="curve" smooth="yes"/>
			<point x="790" y="1264"/>
			<point x="700" y="1356"/>
		</contour>
	</outline>
</glyph>
<glyph name="lessequal" format="2">
	<advance width="1119" height="0"/>
	<unicode hex="2264"/>
	<outline>
		<contour>
			<point x="438" y="748" type="curve" smooth="yes"/>
			<point x="960" y="555" type="line" smooth="yes"/>
			<point x="989" y="544"/>
			<point x="1000" y="533"/>
			<point x="1000" y="491" type="curve" smooth="yes"/>
			<point x="1000" y="373" type="line" smooth="yes"/>
			<point x="1000" y="315"/>
			<point x="993" y="313"/>
			<point x="954" y="328" type="curve" smooth="yes"/>
			<point x="164" y="642" type="line" smooth="yes"/>
			<point x="131" y="655"/>
			<point x="120" y="672"/>
			<point x="120" y="720" type="curve" smooth="yes"/>
			<point x="120" y="830" type="line" smooth="yes"/>
			<point x="120" y="890"/>
			<point x="135" y="896"/>
			<point x="176" y="912" type="curve" smooth="yes"/>
			<point x="940" y="1216" type="line" smooth="yes"/>
			<point x="980" y="1232"/>
			<point x="1000" y="1235"/>
			<point x="1000" y="1169" type="curve" smooth="yes"/>
			<point x="1000" y="1082" type="line" smooth="yes"/>
			<point x="1000" y="1025"/>
			<point x="992" y="1007"/>
			<point x="952" y="992" type="curve" smooth="yes"/>
			<point x="438" y="802" type="line" smooth="yes"/>
			<point x="403" y="789"/>
			<point x="382" y="788"/>
			<point x="382" y="776" type="curve" smooth="yes"/>
			<point x="382" y="759"/>
			<point x="399" y="763"/>
		</contour>
		<contour>
			<point x="164" y="230" type="curve" smooth="yes"/>
			<point x="956" y="230" type="line" smooth="yes"/>
			<point x="996" y="230"/>
			<point x="1000" y="223"/>
			<point x="1000" y="191" type="curve" smooth="yes"/>
			<point x="1000" y="41" type="line" smooth="yes"/>
			<point x="1000" y="6"/>
			<point x="998" y="0"/>
			<point x="953" y="0" type="curve" smooth="yes"/>
			<point x="174" y="0" type="line" smooth="yes"/>
			<point x="127" y="0"/>
			<point x="120" y="5"/>
			<point x="120" y="40" type="curve" smooth="yes"/>
			<point x="120" y="189" type="line" smooth="yes"/>
			<point x="120" y="221"/>
			<point x="123" y="230"/>
		</contour>
	</outline>
</glyph>
<glyph name="fl" format="2">
	<advance width="1160" height="2310"/>
	<unicode hex="FB02"/>
	<anchor x="580" y="0" name="caret_1"/>
	<outline>
		<contour>
			<point x="510" y="786" type="curve" smooth="yes"/>
			<point x="510" y="252" type="line" smooth="yes"/>
			<point x="510" y="221"/>
			<point x="511" y="210"/>
			<point x="535" y="210" type="curve" smooth="yes"/>
			<point x="539" y="210" type="line" smooth="yes"/>
			<point x="556" y="210"/>
			<point x="560" y="202"/>
			<point x="560" y="174" type="curve" smooth="yes"/>
			<point x="560" y="58" type="line" smooth="yes"/>
			<point x="560" y="5"/>
			<point x="554" y="0"/>
			<point x="503" y="0" type="curve" smooth="yes"/>
			<point x="59" y="0" type="line" smooth="yes"/>
			<point x="13" y="0"/>
			<point x="10" y="7"/>
			<point x="10" y="54" type="curve" smooth="yes"/>
			<point x="10" y="162" type="line" smooth="yes"/>
			<point x="10" y="204"/>
			<point x="10" y="210"/>
			<point x="45" y="210" type="curve" smooth="yes"/>
			<point x="52" y="210" type="line" smooth="yes"/>
			<point x="89" y="210"/>
			<point x="90" y="217"/>
			<point x="90" y="268" type="curve" smooth="yes"/>
			<point x="90" y="788" type="line" smooth="yes"/>
			<point x="90" y="828"/>
			<point x="82" y="830"/>
			<point x="41" y="830" type="curve" smooth="yes"/>
			<point x="37" y="830" type="line" smooth="yes"/>
			<point x="12" y="830"/>
			<point x="10" y="838"/>
			<point x="10" y="864" type="curve" smooth="yes"/>
			<point x="10" y="992" type="line" smooth="yes"/>
			<point x="10" y="1030"/>
			<point x="11" y="1040"/>
			<point x="37" y="1040" type="curve" smooth="yes"/>
			<point x="39" y="1040" type="line" smooth="yes"/>
			<point x="83" y="1040"/>
			<point x="90" y="1044"/>
			<point x="90" y="1090" type="curve" smooth="yes"/>
			<point x="90" y="1144" type="line" smooth="yes"/>
			<point x="90" y="1366"/>
			<point x="184" y="1600"/>
			<point x="584" y="1600" type="curve" smooth="yes"/>
			<point x="686" y="1600"/>
			<point x="763" y="1578"/>
			<point x="827" y="1535" type="curve" smooth="yes"/>
			<point x="869.422" y="1506.498"/>
			<point x="882.828" y="1500.805"/>
			<point x="915" y="1518" type="curve" smooth="yes"/>
			<point x="973" y="1549" type="line" smooth="yes"/>
			<point x="1032" y="1580"/>
			<point x="1070" y="1565"/>
			<point x="1070" y="1464" type="curve" smooth="yes"/>
			<point x="1070" y="258" type="line" smooth="yes"/>
			<point x="1070" y="216"/>
			<point x="1075" y="210"/>
			<point x="1109" y="210" type="curve" smooth="yes"/>
			<point x="1113" y="210" type="line" smooth="yes"/>
			<point x="1144" y="210"/>
			<point x="1150" y="204"/>
			<point x="1150" y="174" type="curve" smooth="yes"/>
			<point x="1150" y="48" type="line" smooth="yes"/>
			<point x="1150" y="9"/>
			<point x="1148" y="0"/>
			<point x="1109" y="0" type="curve" smooth="yes"/>
			<point x="611" y="0" type="line" smooth="yes"/>
			<point x="582" y="0"/>
			<point x="580" y="8"/>
			<point x="580" y="48" type="curve" smooth="yes"/>
			<point x="580" y="168" type="line" smooth="yes"/>
			<point x="580" y="205"/>
			<point x="586" y="210"/>
			<point x="615" y="210" type="curve" smooth="yes"/>
			<point x="621" y="210" type="line" smooth="yes"/>
			<point x="649" y="210"/>
			<point x="650" y="216"/>
			<point x="650" y="258" type="curve" smooth="yes"/>
			<point x="650" y="1048" type="line" smooth="yes"/>
			<point x="650" y="1097"/>
			<point x="636.843" y="1092.925"/>
			<point x="605" y="1113" type="curve" smooth="yes"/>
			<point x="559" y="1142"/>
			<point x="526" y="1200"/>
			<point x="526" y="1272" type="curve" smooth="yes"/>
			<point x="526" y="1366"/>
			<point x="579" y="1378"/>
			<point x="579" y="1400" type="curve" smooth="yes"/>
			<point x="579" y="1414"/>
			<point x="560" y="1426"/>
			<point x="540" y="1426" type="curve" smooth="yes"/>
			<point x="430" y="1426"/>
			<point x="510" y="1234"/>
			<point x="510" y="1100" type="curve" smooth="yes"/>
			<point x="510" y="1084" type="line" smooth="yes"/>
			<point x="510" y="1046"/>
			<point x="514" y="1040"/>
			<point x="531" y="1040" type="curve" smooth="yes"/>
			<point x="559" y="1040" type="line" smooth="yes"/>
			<point x="591" y="1040"/>
			<point x="600" y="1038"/>
			<point x="600" y="986" type="curve" smooth="yes"/>
			<point x="600" y="878" type="line" smooth="yes"/>
			<point x="600" y="836"/>
			<point x="595" y="830"/>
			<point x="575" y="830" type="curve" smooth="yes"/>
			<point x="561" y="830" type="line" smooth="yes"/>
			<point x="542" y="830"/>
			<point x="510" y="828"/>
		</contour>
	</outline>
</glyph>
<glyph name=".notdef" format="2">
	<advance width="1200"/>
	<outline>
		<contour>
			<point x="157" y="-500" type="curve" smooth="yes"/>
			<point x="1053" y="-500" type="line" smooth="yes"/>
			<point x="1088" y="-500"/>
			<point x="1090" y="-486"/>
			<point x="1090" y="-454" type="curve" smooth="yes"/>
			<point x="1090" y="1512" type="line" smooth="yes"/>
			<point x="1090" y="1555"/>
			<point x="1084" y="1560"/>
			<point x="1039" y="1560" type="curve" smooth="yes"/>
			<point x="157" y="1560" type="line" smooth="yes"/>
			<point x="112" y="1560"/>
			<point x="110" y="1551"/>
			<point x="110" y="1506" type="curve" smooth="yes"/>
			<point x="110" y="-456" type="line" smooth="yes"/>
			<point x="110" y="-495"/>
			<point x="116" y="-500"/>
		</contour>
		<contour>
			<point x="290" y="-320" type="line"/>
			<point x="290" y="1380" type="line"/>
			<point x="910" y="1380" type="line"/>
			<point x="910" y="-320" type="line"/>
		</contour>
	</outline>
</glyph>
<glyph name="f_f_i.liga" format="2">
	<advance width="1710" height="2310"/>
	<anchor x="285" y="0" name="bottom_1"/>
	<anchor x="855" y="0" name="bottom_2"/>
	<anchor x="1425" y="0" name="bottom_3"/>
	<anchor x="570" y="0" name="caret_1"/>
	<anchor x="1140" y="0" name="caret_2"/>
	<anchor x="285" y="1600" name="top_1"/>
	<anchor x="855" y="1600" name="top_2"/>
	<anchor x="1425" y="1600" name="top_3"/>
	<outline>
		<contour>
			<point x="532" y="1040" type="curve" smooth="yes"/>
			<point x="614" y="1040" type="line" smooth="yes"/>
			<point x="631" y="1040"/>
			<point x="640" y="1045"/>
			<point x="640" y="1054" type="curve" smooth="yes"/>
			<point x="640" y="1055" type="line" smooth="yes"/>
			<point x="640" y="1064"/>
			<point x="610.028" y="1077.832"/>
			<point x="599" y="1085" type="curve" smooth="yes"/>
			<point x="559" y="1111"/>
			<point x="526" y="1142"/>
			<point x="526" y="1232" type="curve" smooth="yes"/>
			<point x="526" y="1326"/>
			<point x="578" y="1338"/>
			<point x="578" y="1360" type="curve" smooth="yes"/>
			<point x="578" y="1374"/>
			<point x="560" y="1386"/>
			<point x="540" y="1386" type="curve" smooth="yes"/>
			<point x="430" y="1386"/>
			<point x="510" y="1194"/>
			<point x="510" y="1070" type="curve" smooth="yes"/>
			<point x="510" y="1049"/>
			<point x="511" y="1040"/>
		</contour>
		<contour>
			<point x="10" y="34" type="curve" smooth="yes"/>
			<point x="10" y="162" type="line" smooth="yes"/>
			<point x="10" y="201"/>
			<point x="12" y="210"/>
			<point x="51" y="210" type="curve" smooth="yes"/>
			<point x="53" y="210" type="line" smooth="yes"/>
			<point x="88" y="210"/>
			<point x="90" y="218"/>
			<point x="90" y="254" type="curve" smooth="yes"/>
			<point x="90" y="786" type="line" smooth="yes"/>
			<point x="90" y="824"/>
			<point x="86" y="830"/>
			<point x="49" y="830" type="curve" smooth="yes"/>
			<point x="37" y="830" type="line" smooth="yes"/>
			<point x="10" y="830"/>
			<point x="10" y="840"/>
			<point x="10" y="867" type="curve" smooth="yes"/>
			<point x="10" y="1004" type="line" smooth="yes"/>
			<point x="10" y="1033"/>
			<point x="14" y="1040"/>
			<point x="42" y="1040" type="curve" smooth="yes"/>
			<point x="55" y="1040" type="line" smooth="yes"/>
			<point x="84" y="1040"/>
			<point x="90" y="1045"/>
			<point x="90" y="1073" type="curve" smooth="yes"/>
			<point x="90" y="1104" type="line" smooth="yes"/>
			<point x="90" y="1326"/>
			<point x="214" y="1560"/>
			<point x="524" y="1560" type="curve" smooth="yes"/>
			<point x="649" y="1560"/>
			<point x="689.525" y="1546.736"/>
			<point x="744" y="1527" type="curve" smooth="yes"/>
			<point x="785.792" y="1511.859"/>
			<point x="803.282" y="1519.759"/>
			<point x="853" y="1545" type="curve" smooth="yes"/>
			<point x="918" y="1578"/>
			<point x="1031" y="1600"/>
			<point x="1164" y="1600" type="curve" smooth="yes"/>
			<point x="1456" y="1600"/>
			<point x="1590" y="1452"/>
			<point x="1590" y="1308" type="curve" smooth="yes"/>
			<point x="1590" y="1188"/>
			<point x="1500" y="1106"/>
			<point x="1356" y="1106" type="curve" smooth="yes"/>
			<point x="1182" y="1106"/>
			<point x="1116" y="1172"/>
			<point x="1116" y="1262" type="curve" smooth="yes"/>
			<point x="1116" y="1356"/>
			<point x="1188" y="1378"/>
			<point x="1188" y="1400" type="curve" smooth="yes"/>
			<point x="1188" y="1414"/>
			<point x="1170" y="1426"/>
			<point x="1130" y="1426" type="curve" smooth="yes"/>
			<point x="1030" y="1426"/>
			<point x="1060" y="1224"/>
			<point x="1060" y="1100" type="curve" smooth="yes"/>
			<point x="1060" y="1060" type="line" smooth="yes"/>
			<point x="1060" y="1041"/>
			<point x="1069" y="1040"/>
			<point x="1088" y="1040" type="curve" smooth="yes"/>
			<point x="1565" y="1040" type="line" smooth="yes"/>
			<point x="1613" y="1040"/>
			<point x="1620" y="1035"/>
			<point x="1620" y="985" type="curve" smooth="yes"/>
			<point x="1620" y="258" type="line" smooth="yes"/>
			<point x="1620" y="218"/>
			<point x="1624" y="210"/>
			<point x="1656" y="210" type="curve" smooth="yes"/>
			<point x="1660" y="210" type="line" smooth="yes"/>
			<point x="1685" y="210"/>
			<point x="1700" y="209"/>
			<point x="1700" y="171" type="curve" smooth="yes"/>
			<point x="1700" y="30" type="line" smooth="yes"/>
			<point x="1700" y="6"/>
			<point x="1694" y="0"/>
			<point x="1668" y="0" type="curve" smooth="yes"/>
			<point x="1163" y="0" type="line" smooth="yes"/>
			<point x="1133" y="0"/>
			<point x="1130" y="7"/>
			<point x="1130" y="38" type="curve" smooth="yes"/>
			<point x="1130" y="171" type="line" smooth="yes"/>
			<point x="1130" y="204"/>
			<point x="1135" y="210"/>
			<point x="1170" y="210" type="curve" smooth="yes"/>
			<point x="1177" y="210" type="line" smooth="yes"/>
			<point x="1195" y="210"/>
			<point x="1200" y="218"/>
			<point x="1200" y="249" type="curve" smooth="yes"/>
			<point x="1200" y="778" type="line" smooth="yes"/>
			<point x="1200" y="828"/>
			<point x="1192" y="830"/>
			<point x="1142" y="830" type="curve" smooth="yes"/>
			<point x="1112" y="830" type="line" smooth="yes"/>
			<point x="1064" y="830"/>
			<point x="1060" y="824"/>
			<point x="1060" y="774" type="curve" smooth="yes"/>
			<point x="1060" y="249" type="line" smooth="yes"/>
			<point x="1060" y="211"/>
			<point x="1065" y="210"/>
			<point x="1078" y="210" type="curve" smooth="yes"/>
			<point x="1082" y="210" type="line" smooth="yes"/>
			<point x="1104" y="210"/>
			<point x="1110" y="201"/>
			<point x="1110" y="163" type="curve" smooth="yes"/>
			<point x="1110" y="38" type="line" smooth="yes"/>
			<point x="1110" y="1"/>
			<point x="1105" y="0"/>
			<point x="1072" y="0" type="curve" smooth="yes"/>
			<point x="617" y="0" type="line" smooth="yes"/>
			<point x="591" y="0"/>
			<point x="580" y="3"/>
			<point x="580" y="32" type="curve" smooth="yes"/>
			<point x="580" y="174" type="line" smooth="yes"/>
			<point x="580" y="207"/>
			<point x="587" y="210"/>
			<point x="611" y="210" type="curve" smooth="yes"/>
			<point x="613" y="210" type="line" smooth="yes"/>
			<point x="637" y="210"/>
			<point x="640" y="217"/>
			<point x="640" y="242" type="curve" smooth="yes"/>
			<point x="640" y="778" type="line" smooth="yes"/>
			<point x="640" y="821"/>
			<point x="638" y="830"/>
			<point x="595" y="830" type="curve" smooth="yes"/>
			<point x="553" y="830" type="line" smooth="yes"/>
			<point x="520" y="830"/>
			<point x="510" y="829"/>
			<point x="510" y="796" type="curve" smooth="yes"/>
			<point x="510" y="240" type="line" smooth="yes"/>
			<point x="510" y="218"/>
			<point x="506" y="210"/>
			<point x="524" y="210" type="curve" smooth="yes"/>
			<point x="530" y="210" type="line" smooth="yes"/>
			<point x="545" y="210"/>
			<point x="550" y="209"/>
			<point x="550" y="184" type="curve" smooth="yes"/>
			<point x="550" y="39" type="line" smooth="yes"/>
			<point x="550" y="8"/>
			<point x="547" y="0"/>
			<point x="517" y="0" type="curve" smooth="yes"/>
			<point x="35" y="0" type="line" smooth="yes"/>
			<point x="11" y="0"/>
			<point x="10" y="9"/>
		</contour>
	</outline>
</glyph>
<glyph name="four.tosf" format="2">
	<advance width="1100" height="2310"/>
	<outline>
		<contour>
			<point x="993.996" y="-296" type="curve" smooth="yes"/>
			<point x="993.996" y="-424" type="line" smooth="yes"/>
			<point x="993.996" y="-457"/>
			<point x="985.996" y="-460"/>
			<point x="951.996" y="-460" type="curve" smooth="yes"/>
			<point x="419.996" y="-460" type="line" smooth="yes"/>
			<point x="372.996" y="-460"/>
			<point x="363.996" y="-459"/>
			<point x="363.996" y="-412" type="curve" smooth="yes"/>
			<point x="363.996" y="-295" type="line" smooth="yes"/>
			<point x="363.996" y="-259"/>
			<point x="370.996" y="-250"/>
			<point x="407.996" y="-250" type="curve" smooth="yes"/>
			<point x="456.996" y="-250" type="line" smooth="yes"/>
			<point x="500.996" y="-250"/>
			<point x="503.996" y="-243"/>
			<point x="503.996" y="-198" type="curve" smooth="yes"/>
			<point x="503.996" y="-53" type="line" smooth="yes"/>
			<point x="503.996" y="1"/>
			<point x="503.996" y="1"/>
			<point x="449.996" y="1" type="curve" smooth="yes"/>
			<point x="151.996" y="1" type="line" smooth="yes"/>
			<point x="108.996" y="1"/>
			<point x="108.996" y="9"/>
			<point x="94.996" y="35" type="curve" smooth="yes"/>
			<point x="63.996" y="93" type="line" smooth="yes"/>
			<point x="51.996" y="114"/>
			<point x="58.996" y="123"/>
			<point x="69.996" y="145" type="curve" smooth="yes"/>
			<point x="226.996" y="459"/>
			<point x="438.996" y="588"/>
			<point x="541.996" y="984" type="curve" smooth="yes"/>
			<point x="552.996" y="1026"/>
			<point x="553.996" y="1040"/>
			<point x="609.996" y="1040" type="curve" smooth="yes"/>
			<point x="879.996" y="1040" type="line" smooth="yes"/>
			<point x="932.996" y="1040"/>
			<point x="941.996" y="1035"/>
			<point x="933.996" y="988" type="curve" smooth="yes"/>
			<point x="869.996" y="602"/>
			<point x="590.996" y="481"/>
			<point x="394.996" y="262" type="curve" smooth="yes"/>
			<point x="367.996" y="232"/>
			<point x="342.996" y="211"/>
			<point x="420.996" y="211" type="curve" smooth="yes"/>
			<point x="465.996" y="211" type="line" smooth="yes"/>
			<point x="500.996" y="211"/>
			<point x="503.996" y="217"/>
			<point x="503.996" y="243" type="curve" smooth="yes"/>
			<point x="503.996" y="250" type="line" smooth="yes"/>
			<point x="503.996" y="297"/>
			<point x="514.996" y="294"/>
			<point x="545.996" y="311" type="curve" smooth="yes"/>
			<point x="611.996" y="346"/>
			<point x="700.996" y="394"/>
			<point x="741.996" y="480" type="curve" smooth="yes"/>
			<point x="750.996" y="500"/>
			<point x="756.996" y="510"/>
			<point x="787.996" y="510" type="curve" smooth="yes"/>
			<point x="853.996" y="510" type="line" smooth="yes"/>
			<point x="884.996" y="510"/>
			<point x="893.996" y="509"/>
			<point x="893.996" y="478" type="curve" smooth="yes"/>
			<point x="893.996" y="269" type="line" smooth="yes"/>
			<point x="893.996" y="236"/>
			<point x="902.996" y="211"/>
			<point x="939.996" y="211" type="curve" smooth="yes"/>
			<point x="987.996" y="211" type="line" smooth="yes"/>
			<point x="1019.996" y="211"/>
			<point x="1023.996" y="203"/>
			<point x="1023.996" y="173" type="curve" smooth="yes"/>
			<point x="1023.996" y="57" type="line" smooth="yes"/>
			<point x="1023.996" y="11"/>
			<point x="1023.996" y="1"/>
			<point x="977.996" y="1" type="curve" smooth="yes"/>
			<point x="947.996" y="1" type="line" smooth="yes"/>
			<point x="906.996" y="1"/>
			<point x="893.996" y="-3"/>
			<point x="893.996" y="-47" type="curve" smooth="yes"/>
			<point x="893.996" y="-198" type="line" smooth="yes"/>
			<point x="893.996" y="-243"/>
			<point x="898.996" y="-250"/>
			<point x="945.996" y="-250" type="curve" smooth="yes"/>
			<point x="949.996" y="-250" type="line" smooth="yes"/>
			<point x="988.996" y="-250"/>
			<point x="993.996" y="-256"/>
		</contour>
	</outline>
</glyph>
<glyph name="lcaron.sc" format="2">
	<advance width="1294" height="0"/>
	<outline>
		<contour>
			<point x="873" y="1062" type="curve" smooth="yes"/>
			<point x="873" y="1172"/>
			<point x="969" y="1241"/>
			<point x="1071" y="1241" type="curve" smooth="yes"/>
			<point x="1197" y="1241"/>
			<point x="1281" y="1158"/>
			<point x="1281" y="996" type="curve" smooth="yes"/>
			<point x="1281" y="786"/>
			<point x="1066" y="640"/>
			<point x="928" y="622" type="curve" smooth="yes"/>
			<point x="906" y="619"/>
			<point x="900" y="623"/>
			<point x="900" y="647" type="curve" smooth="yes"/>
			<point x="900" y="736" type="line" smooth="yes"/>
			<point x="900" y="751"/>
			<point x="906" y="754"/>
			<point x="919" y="756" type="curve" smooth="yes"/>
			<point x="1009" y="765"/>
			<point x="1099" y="838"/>
			<point x="1130" y="890" type="curve" smooth="yes"/>
			<point x="1134" y="896"/>
			<point x="1129" y="901"/>
			<point x="1120" y="897" type="curve" smooth="yes"/>
			<point x="1103" y="889"/>
			<point x="1076" y="884"/>
			<point x="1043" y="884" type="curve" smooth="yes"/>
			<point x="941" y="884"/>
			<point x="873" y="952"/>
		</contour>
		<component base="l.sc"/>
	</outline>
</glyph>
<glyph name="nine.tf" format="2">
	<advance width="1100" height="2310"/>
	<outline>
		<contour>
			<point x="469" y="158" type="curve" smooth="yes"/>
			<point x="469" y="142"/>
			<point x="479" y="134"/>
			<point x="497" y="134" type="curve" smooth="yes"/>
			<point x="595" y="134"/>
			<point x="601" y="303"/>
			<point x="621" y="636" type="curve" smooth="yes"/>
			<point x="623" y="671"/>
			<point x="628" y="685"/>
			<point x="621" y="689" type="curve" smooth="yes"/>
			<point x="612" y="694"/>
			<point x="601.996" y="682.578"/>
			<point x="588" y="658" type="curve" smooth="yes"/>
			<point x="547" y="586"/>
			<point x="483" y="540"/>
			<point x="393" y="540" type="curve" smooth="yes"/>
			<point x="171" y="540"/>
			<point x="75" y="690"/>
			<point x="75" y="1000" type="curve" smooth="yes"/>
			<point x="75" y="1370"/>
			<point x="245" y="1520"/>
			<point x="547" y="1520" type="curve" smooth="yes"/>
			<point x="869" y="1520"/>
			<point x="1025" y="1330"/>
			<point x="1025" y="760" type="curve" smooth="yes"/>
			<point x="1025" y="280"/>
			<point x="869" y="-20"/>
			<point x="497" y="-20" type="curve" smooth="yes"/>
			<point x="223" y="-20"/>
			<point x="125" y="124"/>
			<point x="125" y="278" type="curve" smooth="yes"/>
			<point x="125" y="414"/>
			<point x="204" y="510"/>
			<point x="343" y="510" type="curve" smooth="yes"/>
			<point x="477" y="510"/>
			<point x="567" y="438"/>
			<point x="567" y="324" type="curve" smooth="yes"/>
			<point x="567" y="212"/>
			<point x="469" y="184"/>
		</contour>
		<contour>
			<point x="475" y="1030" type="curve" smooth="yes"/>
			<point x="475" y="842"/>
			<point x="509" y="778"/>
			<point x="547" y="778" type="curve" smooth="yes"/>
			<point x="583" y="778"/>
			<point x="625" y="880"/>
			<point x="625" y="1040" type="curve" smooth="yes"/>
			<point x="625" y="1198"/>
			<point x="605" y="1290"/>
			<point x="547" y="1290" type="curve" smooth="yes"/>
			<point x="499" y="1290"/>
			<point x="475" y="1208"/>
		</contour>
	</outline>
</glyph>
<glyph name="p.sc" format="2">
	<advance width="1304" height="0"/>
	<anchor x="612" y="1040" name="Anchor-0"/>
	<anchor x="359" y="0" name="Anchor-1"/>
	<outline>
		<contour>
			<point x="149" y="799" type="curve" smooth="yes"/>
			<point x="72" y="799" type="line" smooth="yes"/>
			<point x="37" y="799"/>
			<point x="35" y="803"/>
			<point x="35" y="842" type="curve" smooth="yes"/>
			<point x="35" y="994" type="line" smooth="yes"/>
			<point x="35" y="1033"/>
			<point x="39" y="1040"/>
			<point x="74" y="1040" type="curve" smooth="yes"/>
			<point x="703" y="1040" type="line" smooth="yes"/>
			<point x="977" y="1040"/>
			<point x="1277" y="977"/>
			<point x="1277" y="710" type="curve" smooth="yes"/>
			<point x="1277" y="444"/>
			<point x="992" y="366"/>
			<point x="722" y="366" type="curve" smooth="yes"/>
			<point x="614" y="366" type="line" smooth="yes"/>
			<point x="585" y="366"/>
			<point x="578" y="367"/>
			<point x="578" y="344" type="curve" smooth="yes"/>
			<point x="578" y="262" type="line" smooth="yes"/>
			<point x="578" y="240"/>
			<point x="588" y="241"/>
			<point x="614" y="241" type="curve" smooth="yes"/>
			<point x="758" y="241" type="line" smooth="yes"/>
			<point x="790" y="241"/>
			<point x="788" y="230"/>
			<point x="788" y="196" type="curve" smooth="yes"/>
			<point x="788" y="50" type="line" smooth="yes"/>
			<point x="788" y="12"/>
			<point x="791" y="0"/>
			<point x="756" y="0" type="curve" smooth="yes"/>
			<point x="68" y="0" type="line" smooth="yes"/>
			<point x="37" y="0"/>
			<point x="35" y="7"/>
			<point x="35" y="41" type="curve" smooth="yes"/>
			<point x="35" y="196" type="line" smooth="yes"/>
			<point x="35" y="231"/>
			<point x="35" y="241"/>
			<point x="67" y="241" type="curve" smooth="yes"/>
			<point x="147" y="241" type="line" smooth="yes"/>
			<point x="183" y="241"/>
			<point x="188" y="244"/>
			<point x="188" y="278" type="curve" smooth="yes"/>
			<point x="188" y="771" type="line" smooth="yes"/>
			<point x="188" y="800"/>
			<point x="180" y="799"/>
		</contour>
		<contour>
			<point x="607" y="609" type="curve" smooth="yes"/>
			<point x="677" y="609" type="line" smooth="yes"/>
			<point x="756" y="609"/>
			<point x="830" y="635"/>
			<point x="830" y="709" type="curve" smooth="yes"/>
			<point x="830" y="783"/>
			<point x="756" y="799"/>
			<point x="677" y="799" type="curve" smooth="yes"/>
			<point x="603" y="799" type="line" smooth="yes"/>
			<point x="581" y="799"/>
			<point x="578" y="798"/>
			<point x="578" y="778" type="curve" smooth="yes"/>
			<point x="578" y="630" type="line" smooth="yes"/>
			<point x="578" y="610"/>
			<point x="585" y="609"/>
		</contour>
	</outline>
</glyph>
<glyph name="seven.tosf" format="2">
	<advance width="1100" height="2310"/>
	<outline>
		<contour>
			<point x="36.961" y="522" type="curve" smooth="yes"/>
			<point x="46.961" y="887"/>
			<point x="155.961" y="1060"/>
			<point x="356.961" y="1060" type="curve" smooth="yes"/>
			<point x="550.961" y="1060"/>
			<point x="570.961" y="940"/>
			<point x="736.961" y="940" type="curve" smooth="yes"/>
			<point x="804.961" y="940"/>
			<point x="837.961" y="967"/>
			<point x="857.961" y="1011" type="curve" smooth="yes"/>
			<point x="865.961" y="1029"/>
			<point x="868.961" y="1040"/>
			<point x="896.961" y="1040" type="curve" smooth="yes"/>
			<point x="1025.961" y="1040" type="line" smooth="yes"/>
			<point x="1060.961" y="1040"/>
			<point x="1066.961" y="1033"/>
			<point x="1061.961" y="1000" type="curve" smooth="yes"/>
			<point x="1038.961" y="845"/>
			<point x="877.961" y="533"/>
			<point x="732.961" y="296" type="curve" smooth="yes"/>
			<point x="629.194" y="126.396"/>
			<point x="584.961" y="72"/>
			<point x="584.961" y="4" type="curve" smooth="yes"/>
			<point x="584.961" y="-92"/>
			<point x="760.961" y="-92"/>
			<point x="760.961" y="-244" type="curve" smooth="yes"/>
			<point x="760.961" y="-358"/>
			<point x="690.961" y="-480"/>
			<point x="532.961" y="-480" type="curve" smooth="yes"/>
			<point x="384.961" y="-480"/>
			<point x="270.961" y="-386"/>
			<point x="270.961" y="-208" type="curve" smooth="yes"/>
			<point x="270.961" y="-30"/>
			<point x="367.644" y="80.104"/>
			<point x="494.961" y="302" type="curve" smooth="yes"/>
			<point x="564.961" y="424"/>
			<point x="604.961" y="505"/>
			<point x="700.961" y="640" type="curve" smooth="yes"/>
			<point x="729.961" y="681"/>
			<point x="754.961" y="716"/>
			<point x="744.961" y="726" type="curve" smooth="yes"/>
			<point x="729.961" y="741"/>
			<point x="699.559" y="705.315"/>
			<point x="676.961" y="676" type="curve" smooth="yes"/>
			<point x="639.961" y="628"/>
			<point x="600.961" y="616"/>
			<point x="546.961" y="616" type="curve" smooth="yes"/>
			<point x="456.961" y="616"/>
			<point x="456.961" y="674"/>
			<point x="374.961" y="674" type="curve" smooth="yes"/>
			<point x="307.961" y="674"/>
			<point x="222.961" y="622"/>
			<point x="212.961" y="520" type="curve" smooth="yes"/>
			<point x="210.961" y="497"/>
			<point x="217.961" y="486"/>
			<point x="189.961" y="486" type="curve" smooth="yes"/>
			<point x="73.961" y="486" type="line" smooth="yes"/>
			<point x="43.961" y="486"/>
			<point x="35.961" y="494"/>
		</contour>
	</outline>
</glyph>
<glyph name="three.tosf" format="2">
	<advance width="1100" height="2310"/>
	<outline>
		<contour>
			<point x="120" y="-112" type="curve" smooth="yes"/>
			<point x="120" y="24"/>
			<point x="210" y="130"/>
			<point x="358" y="130" type="curve" smooth="yes"/>
			<point x="492" y="130"/>
			<point x="562" y="58"/>
			<point x="562" y="-36" type="curve" smooth="yes"/>
			<point x="562" y="-188"/>
			<point x="427" y="-198"/>
			<point x="427" y="-244" type="curve" smooth="yes"/>
			<point x="427" y="-278"/>
			<point x="464" y="-296"/>
			<point x="492" y="-296" type="curve" smooth="yes"/>
			<point x="570" y="-296"/>
			<point x="598" y="-248"/>
			<point x="598" y="-40" type="curve" smooth="yes"/>
			<point x="598" y="96"/>
			<point x="549" y="195"/>
			<point x="476" y="210" type="curve" smooth="yes"/>
			<point x="438.662" y="217.672"/>
			<point x="424" y="203"/>
			<point x="424" y="247" type="curve" smooth="yes"/>
			<point x="424" y="378" type="line" smooth="yes"/>
			<point x="424" y="417"/>
			<point x="433.332" y="406.389"/>
			<point x="467" y="412" type="curve" smooth="yes"/>
			<point x="551" y="426"/>
			<point x="578" y="535"/>
			<point x="578" y="682" type="curve" smooth="yes"/>
			<point x="578" y="830"/>
			<point x="540" y="886"/>
			<point x="472" y="886" type="curve" smooth="yes"/>
			<point x="444" y="886"/>
			<point x="408" y="870"/>
			<point x="408" y="836" type="curve" smooth="yes"/>
			<point x="408" y="790"/>
			<point x="542" y="800"/>
			<point x="542" y="658" type="curve" smooth="yes"/>
			<point x="542" y="574"/>
			<point x="462" y="492"/>
			<point x="338" y="492" type="curve" smooth="yes"/>
			<point x="220" y="492"/>
			<point x="100" y="568"/>
			<point x="100" y="714" type="curve" smooth="yes"/>
			<point x="100" y="908"/>
			<point x="258" y="1060"/>
			<point x="562" y="1060" type="curve" smooth="yes"/>
			<point x="834" y="1060"/>
			<point x="980" y="912"/>
			<point x="980" y="682" type="curve" smooth="yes"/>
			<point x="980" y="538"/>
			<point x="905" y="428"/>
			<point x="804" y="358" type="curve" smooth="yes"/>
			<point x="766.05" y="331.698"/>
			<point x="730" y="329"/>
			<point x="730" y="315" type="curve" smooth="yes"/>
			<point x="730" y="298"/>
			<point x="753.935" y="298.729"/>
			<point x="804" y="272" type="curve" smooth="yes"/>
			<point x="922" y="209"/>
			<point x="1000" y="101"/>
			<point x="1000" y="-60" type="curve" smooth="yes"/>
			<point x="1000" y="-360"/>
			<point x="804" y="-480"/>
			<point x="502" y="-480" type="curve" smooth="yes"/>
			<point x="218" y="-480"/>
			<point x="120" y="-306"/>
		</contour>
	</outline>
</glyph>
<glyph name="two.tosf" format="2">
	<advance width="1100" height="2310"/>
	<outline>
		<contour>
			<point x="1056.96" y="510" type="curve" smooth="yes"/>
			<point x="1045.96" y="141"/>
			<point x="975.96" y="-20"/>
			<point x="727.96" y="-20" type="curve" smooth="yes"/>
			<point x="543.96" y="-20"/>
			<point x="503.96" y="100"/>
			<point x="417.96" y="100" type="curve" smooth="yes"/>
			<point x="360.96" y="100"/>
			<point x="323.96" y="74"/>
			<point x="300.96" y="34" type="curve" smooth="yes"/>
			<point x="284.96" y="7"/>
			<point x="290.96" y="0"/>
			<point x="245.96" y="0" type="curve" smooth="yes"/>
			<point x="103.96" y="0" type="line" smooth="yes"/>
			<point x="64.96" y="0"/>
			<point x="58.96" y="4"/>
			<point x="58.96" y="42" type="curve" smooth="yes"/>
			<point x="59.96" y="320"/>
			<point x="140.616" y="341.843"/>
			<point x="431.96" y="508" type="curve" smooth="yes"/>
			<point x="559.96" y="581"/>
			<point x="591.96" y="612"/>
			<point x="591.96" y="790" type="curve" smooth="yes"/>
			<point x="591.96" y="848"/>
			<point x="569.96" y="896"/>
			<point x="501.96" y="896" type="curve" smooth="yes"/>
			<point x="483.96" y="896"/>
			<point x="439.96" y="892"/>
			<point x="439.96" y="864" type="curve" smooth="yes"/>
			<point x="439.96" y="828"/>
			<point x="541.96" y="828"/>
			<point x="541.96" y="696" type="curve" smooth="yes"/>
			<point x="541.96" y="562"/>
			<point x="436.96" y="530"/>
			<point x="322.96" y="530" type="curve" smooth="yes"/>
			<point x="204.96" y="530"/>
			<point x="89.96" y="606"/>
			<point x="89.96" y="762" type="curve" smooth="yes"/>
			<point x="89.96" y="966"/>
			<point x="267.96" y="1080"/>
			<point x="561.96" y="1080" type="curve" smooth="yes"/>
			<point x="833.96" y="1080"/>
			<point x="1013.96" y="1030"/>
			<point x="1013.96" y="810" type="curve" smooth="yes"/>
			<point x="1013.96" y="570"/>
			<point x="775.011" y="527.579"/>
			<point x="601.96" y="460" type="curve" smooth="yes"/>
			<point x="535.069" y="433.878"/>
			<point x="469.96" y="406"/>
			<point x="436.96" y="391" type="curve" smooth="yes"/>
			<point x="371.686" y="361.33"/>
			<point x="292.96" y="301"/>
			<point x="314.96" y="301" type="curve" smooth="yes"/>
			<point x="347.96" y="301"/>
			<point x="389.665" y="339.633"/>
			<point x="488.96" y="384" type="curve" smooth="yes"/>
			<point x="543.422" y="408.335"/>
			<point x="581.96" y="419"/>
			<point x="617.96" y="419" type="curve" smooth="yes"/>
			<point x="687.96" y="419"/>
			<point x="737.96" y="351"/>
			<point x="779.96" y="351" type="curve" smooth="yes"/>
			<point x="826.96" y="351"/>
			<point x="847.96" y="431"/>
			<point x="860.96" y="510" type="curve" smooth="yes"/>
			<point x="866.96" y="552"/>
			<point x="861.96" y="554"/>
			<point x="909.96" y="554" type="curve" smooth="yes"/>
			<point x="1015.96" y="554" type="line" smooth="yes"/>
			<point x="1059.96" y="554"/>
			<point x="1056.96" y="552"/>
		</contour>
	</outline>
</glyph>
